<svg width="188" height="188" viewBox="0 0 188 188" fill="none" xmlns="http://www.w3.org/2000/svg">
<path d="M90.0139 160.028C128.129 160.028 159.028 129.129 159.028 91.0139C159.028 52.8986 128.129 22 90.0139 22C51.8986 22 21 52.8986 21 91.0139C21 129.129 51.8986 160.028 90.0139 160.028Z" fill="#FF725E"/>
<g filter="url(#filter0_d_90_547)">
<path d="M90 180C139.706 180 180 139.706 180 90C180 40.2944 139.706 0 90 0C40.2944 0 0 40.2944 0 90C0 139.706 40.2944 180 90 180Z" fill="url(#paint0_linear_90_547)" shape-rendering="crispEdges"/>
</g>
<path d="M90.5737 70.0586H89.237C84.5684 70.0586 80.7837 73.8433 80.7837 78.5119V90.568C80.7837 95.2366 84.5684 99.0212 89.237 99.0212H90.5737C95.2423 99.0212 99.027 95.2366 99.027 90.568V78.5119C99.027 73.8433 95.2423 70.0586 90.5737 70.0586Z" fill="#FAFAFA"/>
<path d="M89.8993 104.547C86.3359 104.54 82.9203 103.122 80.4006 100.602C77.8809 98.0823 76.4623 94.6668 76.4556 91.1033C76.4556 90.9345 76.5226 90.7726 76.642 90.6532C76.7614 90.5339 76.9233 90.4668 77.0921 90.4668C77.2609 90.4668 77.4228 90.5339 77.5422 90.6532C77.6616 90.7726 77.7286 90.9345 77.7286 91.1033C77.732 94.3302 79.0154 97.4239 81.2971 99.7056C83.5788 101.987 86.6725 103.271 89.8993 103.274C91.5179 103.348 93.1342 103.084 94.645 102.499C96.1559 101.914 97.5282 101.02 98.6745 99.875C99.8208 98.7299 100.716 97.3585 101.303 95.8482C101.89 94.338 102.155 92.722 102.083 91.1033C102.083 90.9345 102.15 90.7726 102.269 90.6532C102.389 90.5339 102.55 90.4668 102.719 90.4668C102.888 90.4668 103.05 90.5339 103.169 90.6532C103.289 90.7726 103.356 90.9345 103.356 91.1033C103.356 99.0092 97.8179 104.534 89.8993 104.547Z" fill="#FAFAFA"/>
<path d="M76.6207 75.3299C76.5443 75.4954 75.5768 75.1516 74.431 74.6679C73.2852 74.1841 72.3686 73.713 72.4195 73.5348C72.4704 73.3566 73.5144 73.5348 74.6856 74.0568C75.8568 74.5787 76.6207 75.1644 76.6207 75.3299Z" fill="white"/>
<path d="M81.7128 68.5055C81.5728 68.62 80.7453 67.7416 79.8669 66.5576C78.9884 65.3737 78.4028 64.317 78.5938 64.2152C78.7848 64.1133 79.5613 64.979 80.4398 66.163C81.3182 67.347 81.8402 68.4036 81.7128 68.5055Z" fill="white"/>
<path d="M89.9495 66.0611C89.7585 66.0611 89.6312 64.9535 89.6439 63.5149C89.6567 62.0763 89.8222 60.9688 90.0004 60.9688C90.4415 62.6073 90.4415 64.3334 90.0004 65.972L89.9495 66.0611Z" fill="white"/>
<path d="M100.542 64.266C100.695 64.3678 100.3 65.3099 99.5617 66.3029C98.8233 67.2959 98.0086 67.9325 97.8812 67.8051C97.7539 67.6778 98.3014 66.8631 99.027 65.8955C99.7527 64.928 100.376 64.1769 100.542 64.266Z" fill="white"/>
<path d="M107.659 72.8851C107.748 73.0506 106.895 73.6999 105.762 74.3492C104.629 74.9984 103.636 75.3804 103.547 75.2276C103.457 75.0748 104.298 74.4128 105.431 73.7636C106.564 73.1143 107.569 72.7324 107.659 72.8851Z" fill="white"/>
<path d="M91.2731 104H90V110.595H91.2731V104Z" fill="white"/>
<path d="M98.5628 111.273H82.6365C82.4677 111.273 82.3058 111.206 82.1864 111.087C82.0671 110.967 82 110.805 82 110.637C82 110.468 82.0671 110.306 82.1864 110.186C82.3058 110.067 82.4677 110 82.6365 110H98.5628C98.7317 110 98.8935 110.067 99.0129 110.186C99.1323 110.306 99.1994 110.468 99.1994 110.637C99.1961 110.804 99.128 110.964 99.0093 111.083C98.8907 111.202 98.7306 111.27 98.5628 111.273Z" fill="white"/>
<defs>
<filter id="filter0_d_90_547" x="0" y="0" width="188" height="188" filterUnits="userSpaceOnUse" color-interpolation-filters="sRGB">
<feFlood flood-opacity="0" result="BackgroundImageFix"/>
<feColorMatrix in="SourceAlpha" type="matrix" values="0 0 0 0 0 0 0 0 0 0 0 0 0 0 0 0 0 0 127 0" result="hardAlpha"/>
<feOffset dx="4" dy="4"/>
<feGaussianBlur stdDeviation="2"/>
<feComposite in2="hardAlpha" operator="out"/>
<feColorMatrix type="matrix" values="0 0 0 0 0 0 0 0 0 0 0 0 0 0 0 0 0 0 0.25 0"/>
<feBlend mode="normal" in2="BackgroundImageFix" result="effect1_dropShadow_90_547"/>
<feBlend mode="normal" in="SourceGraphic" in2="effect1_dropShadow_90_547" result="shape"/>
</filter>
<linearGradient id="paint0_linear_90_547" x1="90" y1="0" x2="90" y2="180" gradientUnits="userSpaceOnUse">
<stop stop-color="#FFB3A8"/>
<stop offset="1" stop-color="#FF725E" stop-opacity="0"/>
</linearGradient>
</defs>
</svg>
