<svg width="35" height="38" viewBox="0 0 35 38" fill="none" xmlns="http://www.w3.org/2000/svg">
<path d="M32.9994 36.6957C32.1794 37.5169 31.0671 37.9782 29.9074 37.9782C28.7476 37.9782 27.6354 37.5169 26.8153 36.6957L17.1546 25.6382L7.49391 36.692C7.08905 37.1041 6.60673 37.4319 6.07477 37.6563C5.5428 37.8808 4.97172 37.9976 4.39445 38C3.81719 38.0023 3.24517 37.8902 2.7114 37.6701C2.17763 37.4499 1.69266 37.1261 1.28447 36.7174C0.876277 36.3086 0.552945 35.8229 0.333121 35.2884C0.113296 34.7539 0.0013296 34.181 0.00368016 33.603C0.00603072 33.0249 0.122651 32.453 0.346815 31.9203C0.570979 31.3875 0.898251 30.9045 1.30975 30.4991L11.3604 19.0037L1.30611 7.50091C0.894607 7.09548 0.567336 6.61247 0.343172 6.07975C0.119007 5.54703 0.00238681 4.97513 3.62557e-05 4.39705C-0.0023143 3.81897 0.109652 3.24614 0.329477 2.7116C0.549301 2.17707 0.872633 1.69141 1.28082 1.28264C1.68901 0.873873 2.17398 0.550082 2.70776 0.329945C3.24153 0.109808 3.81355 -0.00231759 4.39081 3.63072e-05C4.96807 0.00239021 5.53916 0.119177 6.07112 0.343659C6.60309 0.568142 7.08541 0.895879 7.49026 1.30796L17.1546 12.3691L26.8153 1.30796C27.2201 0.895879 27.7025 0.568142 28.2344 0.343659C28.7664 0.119177 29.3375 0.00239021 29.9147 3.63072e-05C30.492 -0.00231759 31.064 0.109808 31.5978 0.329945C32.1316 0.550082 32.6165 0.873873 33.0247 1.28264C33.4329 1.69141 33.7563 2.17707 33.9761 2.7116C34.1959 3.24614 34.3079 3.81897 34.3055 4.39705C34.3032 4.97513 34.1865 5.54703 33.9624 6.07975C33.7382 6.61247 33.4109 7.09548 32.9994 7.50091L22.9488 19.0037L32.9994 30.4991C33.406 30.9058 33.7286 31.3888 33.9486 31.9204C34.1687 32.452 34.282 33.0219 34.282 33.5974C34.282 34.1729 34.1687 34.7427 33.9486 35.2744C33.7286 35.806 33.406 36.289 32.9994 36.6957Z" fill="#B6B0B0"/>
</svg>
