<svg width="529" height="400" viewBox="0 0 529 400" fill="none" xmlns="http://www.w3.org/2000/svg">
<path d="M98.6273 74.8233C102.817 57.1538 91.8895 39.4336 74.2201 35.2439C56.5507 31.0543 38.8304 41.9818 34.6407 59.6512C30.4511 77.3206 41.3786 95.0409 59.048 99.2305C76.7174 103.42 94.4377 92.4927 98.6273 74.8233Z" fill="#EBEBEB"/>
<path d="M57.4634 66.9996V57.3867C57.4644 56.8165 57.6154 56.2566 57.9012 55.7632C58.1869 55.2698 58.5974 54.8603 59.0915 54.5756C59.5856 54.291 60.1458 54.1413 60.716 54.1415C61.2862 54.1418 61.8463 54.292 62.3401 54.5771L70.6585 59.3835L78.9769 64.19C79.4707 64.4754 79.8807 64.8858 80.1658 65.3798C80.4508 65.8739 80.6009 66.4342 80.6009 67.0046C80.6009 67.575 80.4508 68.1353 80.1658 68.6294C79.8807 69.1234 79.4707 69.5338 78.9769 69.8192L70.6585 74.6156L62.3401 79.4221C61.8463 79.7072 61.2862 79.8574 60.716 79.8576C60.1458 79.8579 59.5856 79.7082 59.0915 79.4235C58.5974 79.1389 58.1869 78.7293 57.9012 78.2359C57.6154 77.7425 57.4644 77.1826 57.4634 76.6124V66.9996Z" fill="white"/>
<path d="M353.747 78.8698C348.814 78.8698 344.084 76.9112 340.595 73.4245C337.107 69.9378 335.146 65.2085 335.143 60.2762V38.4315C335.143 35.9889 335.624 33.5703 336.559 31.3138C337.494 29.0572 338.865 27.007 340.593 25.2803C342.32 23.5536 344.371 22.1843 346.628 21.2504C348.885 20.3166 351.304 19.8366 353.747 19.838C358.676 19.8406 363.403 21.8008 366.888 25.2874C370.373 28.7741 372.33 33.5019 372.33 38.4315V60.2762C372.33 65.2058 370.373 69.9336 366.888 73.4203C363.403 76.907 358.676 78.8671 353.747 78.8698Z" fill="#EBEBEB"/>
<path d="M353.747 90.1992C346.465 90.1912 339.483 87.2935 334.336 82.1423C329.188 76.9911 326.296 70.0075 326.293 62.7253H328.952C328.96 69.2971 331.574 75.5976 336.22 80.2455C340.866 84.8934 347.165 87.5094 353.737 87.5201C368.337 87.5201 378.532 77.3051 378.532 62.7253H381.191C381.191 78.8906 369.902 90.1792 353.747 90.1992Z" fill="#EBEBEB"/>
<path d="M355.071 88.8441H352.412V102.28H355.071V88.8441Z" fill="#EBEBEB"/>
<path d="M369.972 100.373H337.511V103.032H369.972V100.373Z" fill="#EBEBEB"/>
<path d="M326.333 31.9998C325.33 31.9998 323.875 31.468 321.537 30.4746C317.573 28.7889 316.249 27.936 316.71 26.5211L316.901 25.9692L317.523 25.6481C318.908 25.026 322.42 26.4609 323.112 26.7519C323.805 27.0429 327.276 28.5882 327.788 30.0131L327.989 30.5649L327.718 31.1971C327.595 31.4551 327.397 31.6698 327.15 31.8131C326.903 31.9564 326.618 32.0215 326.333 31.9998Z" fill="#EBEBEB"/>
<path d="M336.949 18.083C336.106 18.083 334.822 17.1398 332.143 13.5074C328.972 9.20264 329.133 8.15907 329.193 7.8179L329.273 7.26601L330.186 6.53351L330.828 6.59371C331.17 6.64389 332.213 6.80444 335.384 11.1092C339.087 16.1263 338.655 17.1297 337.772 17.7519C337.544 17.9542 337.254 18.0713 336.949 18.083Z" fill="#EBEBEB"/>
<path d="M353.325 13.0453L352.823 12.6138C352.573 12.373 351.82 11.6104 351.82 6.59326C351.82 1.5761 352.653 0.813496 352.914 0.572673L353.335 0.181335H354.008C354.82 0.241541 355.934 0.33185 355.864 6.62336C355.794 12.9149 354.68 12.965 353.857 13.0152L353.325 13.0453Z" fill="#EBEBEB"/>
<path d="M369.641 16.657L369.089 16.2155C367.915 15.1419 368.969 13.6166 371.267 10.5662C373.565 7.51578 374.729 6.08088 376.103 6.90369L376.615 7.19469L376.796 7.89709C377.117 9.47247 374.789 12.6333 374.498 12.9945C374.207 13.3558 371.839 16.4764 370.243 16.6069L369.641 16.657Z" fill="#EBEBEB"/>
<path d="M381.672 31.7989C381.409 31.8159 381.146 31.7532 380.919 31.619C380.692 31.4848 380.51 31.2852 380.398 31.0463C379.686 29.7921 381.06 28.7284 381.722 28.2066C382.68 27.4709 383.685 26.8004 384.733 26.1998C389.67 23.3902 390.573 24.0223 391.085 24.9154C391.787 26.1596 390.422 27.2333 389.76 27.7451C388.804 28.482 387.798 29.1525 386.75 29.7519C384.05 31.2872 382.555 31.7989 381.672 31.7989Z" fill="#EBEBEB"/>
<path d="M241.232 409.209C240.434 409.209 239.668 408.892 239.104 408.328C238.539 407.763 238.222 406.997 238.222 406.199V362.419C238.222 361.614 238.542 360.842 239.111 360.273C239.68 359.704 240.452 359.384 241.257 359.384C242.062 359.384 242.834 359.704 243.404 360.273C243.973 360.842 244.293 361.614 244.293 362.419V406.179C244.295 406.58 244.218 406.978 244.065 407.349C243.911 407.72 243.686 408.056 243.401 408.339C243.115 408.621 242.777 408.843 242.404 408.993C242.032 409.142 241.633 409.216 241.232 409.209Z" fill="#E4E3E3"/>
<path d="M227.003 402.366C226.205 402.366 225.439 402.049 224.875 401.484C224.31 400.92 223.993 400.154 223.993 399.356V369.253C223.993 368.448 224.313 367.676 224.882 367.106C225.451 366.537 226.223 366.217 227.028 366.217C227.833 366.217 228.605 366.537 229.175 367.106C229.744 367.676 230.064 368.448 230.064 369.253V399.356C230.064 399.755 229.984 400.151 229.83 400.519C229.675 400.888 229.449 401.222 229.164 401.502C228.879 401.782 228.542 402.003 228.171 402.151C227.8 402.3 227.403 402.373 227.003 402.366Z" fill="#E4E3E3"/>
<path d="M255.471 402.366C254.672 402.366 253.907 402.049 253.342 401.484C252.778 400.92 252.46 400.154 252.46 399.356V369.253C252.46 368.448 252.78 367.676 253.349 367.106C253.919 366.537 254.691 366.217 255.496 366.217C256.301 366.217 257.073 366.537 257.642 367.106C258.211 367.676 258.531 368.448 258.531 369.253V399.356C258.531 399.755 258.452 400.151 258.297 400.519C258.143 400.888 257.917 401.222 257.632 401.502C257.347 401.782 257.009 402.003 256.638 402.151C256.267 402.3 255.87 402.373 255.471 402.366Z" fill="#E4E3E3"/>
<path d="M269.699 396.226C268.901 396.226 268.135 395.909 267.571 395.344C267.006 394.779 266.689 394.014 266.689 393.215V375.404C266.689 374.599 267.009 373.827 267.578 373.258C268.147 372.689 268.919 372.369 269.724 372.369C270.529 372.369 271.301 372.689 271.871 373.258C272.44 373.827 272.76 374.599 272.76 375.404V393.195C272.762 393.597 272.685 393.994 272.532 394.365C272.379 394.736 272.153 395.073 271.868 395.355C271.582 395.637 271.244 395.86 270.871 396.009C270.499 396.159 270.1 396.232 269.699 396.226Z" fill="#E4E3E3"/>
<path d="M497.378 409.21C496.58 409.21 495.814 408.893 495.249 408.328C494.685 407.764 494.368 406.998 494.368 406.2V362.42C494.368 361.622 494.685 360.856 495.249 360.292C495.814 359.727 496.58 359.41 497.378 359.41C498.176 359.41 498.942 359.727 499.507 360.292C500.071 360.856 500.388 361.622 500.388 362.42V406.18C500.391 406.577 500.315 406.97 500.165 407.338C500.015 407.705 499.793 408.04 499.514 408.321C499.234 408.603 498.901 408.827 498.535 408.979C498.168 409.132 497.775 409.21 497.378 409.21Z" fill="#E4E3E3"/>
<path d="M483.149 402.366C482.351 402.366 481.585 402.049 481.021 401.484C480.456 400.92 480.139 400.154 480.139 399.356V369.253C480.139 368.448 480.459 367.676 481.028 367.106C481.597 366.537 482.37 366.217 483.175 366.217C483.98 366.217 484.752 366.537 485.321 367.106C485.89 367.676 486.21 368.448 486.21 369.253V399.356C486.21 399.755 486.13 400.151 485.976 400.519C485.822 400.888 485.595 401.222 485.311 401.502C485.026 401.782 484.688 402.003 484.317 402.151C483.946 402.3 483.549 402.373 483.149 402.366Z" fill="#E4E3E3"/>
<path d="M511.617 402.366C510.818 402.366 510.053 402.049 509.488 401.484C508.924 400.92 508.606 400.154 508.606 399.356V369.253C508.606 368.448 508.926 367.676 509.495 367.106C510.065 366.537 510.837 366.217 511.642 366.217C512.447 366.217 513.219 366.537 513.788 367.106C514.357 367.676 514.677 368.448 514.677 369.253V399.356C514.677 399.755 514.598 400.151 514.443 400.519C514.289 400.888 514.063 401.222 513.778 401.502C513.493 401.782 513.155 402.003 512.784 402.151C512.413 402.3 512.016 402.373 511.617 402.366Z" fill="#E4E3E3"/>
<path d="M525.855 396.226C525.057 396.226 524.291 395.909 523.727 395.344C523.162 394.779 522.845 394.014 522.845 393.215V375.405C522.845 374.606 523.162 373.84 523.727 373.276C524.291 372.711 525.057 372.394 525.855 372.394C526.654 372.394 527.419 372.711 527.984 373.276C528.548 373.84 528.866 374.606 528.866 375.405V393.195C528.868 393.592 528.792 393.986 528.642 394.354C528.492 394.721 528.271 395.055 527.991 395.337C527.711 395.619 527.378 395.842 527.012 395.995C526.645 396.147 526.252 396.226 525.855 396.226Z" fill="#E4E3E3"/>
<path d="M283.928 401.804C283.13 401.804 282.364 401.487 281.799 400.923C281.235 400.358 280.918 399.592 280.918 398.794V369.835C280.918 369.03 281.238 368.258 281.807 367.689C282.376 367.119 283.148 366.8 283.953 366.8C284.758 366.8 285.53 367.119 286.099 367.689C286.669 368.258 286.989 369.03 286.989 369.835V398.764C286.993 399.166 286.916 399.565 286.763 399.937C286.611 400.309 286.385 400.647 286.1 400.93C285.815 401.213 285.476 401.437 285.102 401.587C284.729 401.737 284.33 401.811 283.928 401.804Z" fill="#E4E3E3"/>
<path d="M298.157 408.126C297.358 408.126 296.592 407.809 296.028 407.244C295.463 406.68 295.146 405.914 295.146 405.116V363.503C295.146 362.698 295.466 361.926 296.035 361.357C296.605 360.788 297.377 360.468 298.182 360.468C298.987 360.468 299.759 360.788 300.328 361.357C300.897 361.926 301.217 362.698 301.217 363.503V405.086C301.221 405.488 301.145 405.886 300.992 406.259C300.839 406.631 300.614 406.968 300.328 407.252C300.043 407.535 299.704 407.758 299.331 407.909C298.958 408.059 298.559 408.133 298.157 408.126Z" fill="#E4E3E3"/>
<path d="M312.385 415.702C311.587 415.702 310.821 415.385 310.257 414.82C309.692 414.256 309.375 413.49 309.375 412.692V355.928C309.375 355.123 309.695 354.351 310.264 353.781C310.833 353.212 311.605 352.892 312.41 352.892C313.215 352.892 313.987 353.212 314.557 353.781C315.126 354.351 315.446 355.123 315.446 355.928V412.672C315.448 413.073 315.371 413.471 315.218 413.842C315.065 414.212 314.839 414.549 314.554 414.831C314.268 415.114 313.93 415.336 313.557 415.486C313.185 415.635 312.787 415.709 312.385 415.702Z" fill="#E4E3E3"/>
<path d="M326.614 408.447C325.816 408.447 325.05 408.13 324.485 407.565C323.921 407.001 323.604 406.235 323.604 405.437V363.182C323.604 362.377 323.924 361.605 324.493 361.036C325.062 360.467 325.834 360.147 326.639 360.147C327.444 360.147 328.216 360.467 328.785 361.036C329.355 361.605 329.675 362.377 329.675 363.182V405.417C329.677 405.818 329.6 406.216 329.447 406.587C329.293 406.957 329.067 407.294 328.782 407.576C328.497 407.859 328.158 408.081 327.786 408.231C327.414 408.38 327.015 408.454 326.614 408.447Z" fill="#E4E3E3"/>
<path d="M340.853 401.644C340.054 401.644 339.289 401.327 338.724 400.762C338.16 400.198 337.843 399.432 337.843 398.634V369.996C337.843 369.198 338.16 368.432 338.724 367.867C339.289 367.303 340.054 366.986 340.853 366.986C341.651 366.986 342.417 367.303 342.981 367.867C343.546 368.432 343.863 369.198 343.863 369.996V398.604C343.867 399.002 343.792 399.396 343.643 399.765C343.493 400.134 343.272 400.469 342.992 400.752C342.712 401.035 342.379 401.259 342.012 401.412C341.645 401.565 341.251 401.644 340.853 401.644Z" fill="#E4E3E3"/>
<path d="M355.081 398.002C354.283 398.002 353.517 397.684 352.953 397.12C352.388 396.555 352.071 395.79 352.071 394.991V373.628C352.071 372.823 352.391 372.051 352.96 371.482C353.529 370.913 354.301 370.593 355.106 370.593C355.911 370.593 356.684 370.913 357.253 371.482C357.822 372.051 358.142 372.823 358.142 373.628V394.971C358.145 395.372 358.067 395.77 357.914 396.141C357.761 396.512 357.535 396.848 357.25 397.131C356.965 397.413 356.626 397.636 356.253 397.785C355.881 397.935 355.483 398.008 355.081 398.002Z" fill="#E4E3E3"/>
<path d="M369.32 408.909C368.521 408.909 367.756 408.592 367.191 408.027C366.627 407.463 366.31 406.697 366.31 405.899V362.751C366.31 361.953 366.627 361.187 367.191 360.623C367.756 360.058 368.521 359.741 369.32 359.741C370.118 359.741 370.884 360.058 371.448 360.623C372.013 361.187 372.33 361.953 372.33 362.751V405.899C372.33 406.697 372.013 407.463 371.448 408.027C370.884 408.592 370.118 408.909 369.32 408.909Z" fill="#E4E3E3"/>
<path d="M426.234 408.909C425.436 408.909 424.67 408.592 424.106 408.027C423.541 407.463 423.224 406.697 423.224 405.899V362.751C423.224 361.953 423.541 361.187 424.106 360.623C424.67 360.058 425.436 359.741 426.234 359.741C427.033 359.741 427.798 360.058 428.363 360.623C428.928 361.187 429.245 361.953 429.245 362.751V405.899C429.245 406.697 428.928 407.463 428.363 408.027C427.798 408.592 427.033 408.909 426.234 408.909Z" fill="#E4E3E3"/>
<path d="M383.538 415.702C382.74 415.702 381.974 415.385 381.41 414.82C380.845 414.256 380.528 413.49 380.528 412.692V355.928C380.528 355.123 380.848 354.351 381.417 353.781C381.986 353.212 382.758 352.892 383.563 352.892C384.369 352.892 385.141 353.212 385.71 353.781C386.279 354.351 386.599 355.123 386.599 355.928V412.672C386.602 413.073 386.524 413.471 386.371 413.842C386.218 414.212 385.992 414.549 385.707 414.831C385.422 415.114 385.083 415.336 384.71 415.486C384.338 415.635 383.94 415.709 383.538 415.702Z" fill="#E4E3E3"/>
<path d="M397.767 427.182C396.969 427.182 396.203 426.864 395.639 426.3C395.074 425.735 394.757 424.97 394.757 424.171V344.449C394.757 343.65 395.074 342.885 395.639 342.32C396.203 341.756 396.969 341.438 397.767 341.438C398.566 341.438 399.331 341.756 399.896 342.32C400.461 342.885 400.778 343.65 400.778 344.449V424.151C400.78 424.548 400.704 424.942 400.554 425.309C400.404 425.677 400.183 426.011 399.903 426.293C399.623 426.574 399.291 426.798 398.924 426.951C398.557 427.103 398.164 427.182 397.767 427.182Z" fill="#E4E3E3"/>
<path d="M411.996 415.702C411.197 415.702 410.432 415.385 409.867 414.82C409.302 414.256 408.985 413.49 408.985 412.692V355.928C408.985 355.129 409.302 354.364 409.867 353.799C410.432 353.234 411.197 352.917 411.996 352.917C412.794 352.917 413.56 353.234 414.124 353.799C414.689 354.364 415.006 355.129 415.006 355.928V412.672C415.009 413.069 414.933 413.462 414.783 413.83C414.632 414.197 414.411 414.532 414.131 414.813C413.852 415.095 413.519 415.318 413.152 415.471C412.786 415.623 412.393 415.702 411.996 415.702Z" fill="#E4E3E3"/>
<path d="M440.463 398.002C439.665 398.002 438.899 397.684 438.335 397.12C437.77 396.555 437.453 395.79 437.453 394.991V373.628C437.453 372.83 437.77 372.064 438.335 371.5C438.899 370.935 439.665 370.618 440.463 370.618C441.262 370.618 442.027 370.935 442.592 371.5C443.156 372.064 443.473 372.83 443.473 373.628V394.971C443.476 395.368 443.4 395.762 443.25 396.129C443.1 396.497 442.879 396.831 442.599 397.113C442.319 397.394 441.986 397.618 441.62 397.77C441.253 397.923 440.86 398.002 440.463 398.002Z" fill="#E4E3E3"/>
<path d="M468.92 398.002C468.122 398.002 467.356 397.684 466.792 397.12C466.227 396.555 465.91 395.79 465.91 394.991V373.628C465.91 372.83 466.227 372.064 466.792 371.5C467.356 370.935 468.122 370.618 468.92 370.618C469.719 370.618 470.485 370.935 471.049 371.5C471.614 372.064 471.931 372.83 471.931 373.628V394.971C471.933 395.368 471.857 395.762 471.707 396.129C471.557 396.497 471.336 396.831 471.056 397.113C470.776 397.394 470.444 397.618 470.077 397.77C469.711 397.923 469.317 398.002 468.92 398.002Z" fill="#E4E3E3"/>
<path d="M454.692 394.44C453.894 394.44 453.128 394.122 452.564 393.558C451.999 392.993 451.682 392.228 451.682 391.429V377.191C451.682 376.386 452.002 375.614 452.571 375.044C453.14 374.475 453.912 374.155 454.717 374.155C455.522 374.155 456.294 374.475 456.864 375.044C457.433 375.614 457.753 376.386 457.753 377.191V391.409C457.755 391.81 457.678 392.208 457.525 392.579C457.371 392.95 457.146 393.286 456.86 393.569C456.575 393.851 456.237 394.074 455.864 394.223C455.492 394.373 455.093 394.446 454.692 394.44Z" fill="#E4E3E3"/>
<path d="M212.785 398.002C211.986 398.002 211.221 397.684 210.656 397.12C210.092 396.555 209.774 395.79 209.774 394.991V373.628C209.774 372.83 210.092 372.064 210.656 371.5C211.221 370.935 211.986 370.618 212.785 370.618C213.583 370.618 214.349 370.935 214.913 371.5C215.478 372.064 215.795 372.83 215.795 373.628V394.971C215.798 395.368 215.722 395.762 215.572 396.129C215.422 396.497 215.2 396.831 214.92 397.113C214.641 397.394 214.308 397.618 213.941 397.77C213.575 397.923 213.182 398.002 212.785 398.002Z" fill="#E4E3E3"/>
<path d="M74.4014 232.024C73.8106 232.024 73.244 231.789 72.8263 231.371C72.4085 230.953 72.1738 230.387 72.1738 229.796V197.686C72.1738 197.394 72.2315 197.104 72.3434 196.834C72.4553 196.564 72.6194 196.318 72.8263 196.111C73.0331 195.904 73.2787 195.74 73.549 195.628C73.8193 195.516 74.1089 195.459 74.4014 195.459C74.694 195.459 74.9837 195.516 75.2539 195.628C75.5242 195.74 75.7698 195.904 75.9766 196.111C76.1835 196.318 76.3475 196.564 76.4595 196.834C76.5714 197.104 76.6291 197.394 76.6291 197.686V229.796C76.6291 230.387 76.3944 230.953 75.9766 231.371C75.5589 231.789 74.9922 232.024 74.4014 232.024Z" fill="#F5F5F5"/>
<path d="M63.9556 226.996C63.3648 226.996 62.7982 226.762 62.3805 226.344C61.9627 225.926 61.728 225.36 61.728 224.769V202.693C61.728 202.102 61.9627 201.536 62.3805 201.118C62.7982 200.7 63.3648 200.466 63.9556 200.466C64.5464 200.466 65.113 200.7 65.5308 201.118C65.9486 201.536 66.1832 202.102 66.1832 202.693V224.769C66.1846 225.062 66.1279 225.352 66.0164 225.623C65.9049 225.894 65.7409 226.14 65.5338 226.347C65.3266 226.554 65.0806 226.718 64.8097 226.829C64.5388 226.941 64.2485 226.998 63.9556 226.996Z" fill="#F5F5F5"/>
<path d="M84.8473 226.996C84.5544 226.998 84.2641 226.941 83.9932 226.829C83.7224 226.718 83.4763 226.554 83.2692 226.347C83.062 226.14 82.898 225.894 82.7865 225.623C82.675 225.352 82.6183 225.062 82.6197 224.769V202.693C82.6197 202.102 82.8543 201.536 83.2721 201.118C83.6899 200.7 84.2565 200.466 84.8473 200.466C85.4381 200.466 86.0047 200.7 86.4224 201.118C86.8402 201.536 87.0749 202.102 87.0749 202.693V224.769C87.0749 225.36 86.8402 225.926 86.4224 226.344C86.0047 226.762 85.4381 226.996 84.8473 226.996Z" fill="#F5F5F5"/>
<path d="M95.2828 222.491C94.692 222.491 94.1254 222.257 93.7076 221.839C93.2899 221.421 93.0552 220.854 93.0552 220.264V207.219C93.0552 206.628 93.2899 206.062 93.7076 205.644C94.1254 205.226 94.692 204.991 95.2828 204.991C95.8736 204.991 96.4402 205.226 96.858 205.644C97.2757 206.062 97.5104 206.628 97.5104 207.219V220.264C97.5117 220.557 97.455 220.847 97.3436 221.118C97.2321 221.389 97.068 221.635 96.8609 221.842C96.6538 222.049 96.4077 222.213 96.1368 222.324C95.866 222.436 95.5757 222.493 95.2828 222.491Z" fill="#F5F5F5"/>
<path d="M262.354 232.024C261.764 232.021 261.199 231.786 260.782 231.368C260.365 230.951 260.129 230.386 260.126 229.796V197.686C260.126 197.095 260.361 196.529 260.779 196.111C261.197 195.693 261.763 195.459 262.354 195.459C262.945 195.459 263.512 195.693 263.929 196.111C264.347 196.529 264.582 197.095 264.582 197.686V229.796C264.582 230.387 264.347 230.953 263.929 231.371C263.512 231.789 262.945 232.024 262.354 232.024Z" fill="#F5F5F5"/>
<path d="M251.919 226.996C251.626 226.998 251.335 226.941 251.065 226.829C250.794 226.718 250.548 226.554 250.34 226.347C250.133 226.14 249.969 225.894 249.858 225.623C249.746 225.352 249.69 225.062 249.691 224.769V202.693C249.691 202.102 249.926 201.536 250.343 201.118C250.761 200.7 251.328 200.466 251.919 200.466C252.509 200.466 253.076 200.7 253.494 201.118C253.911 201.536 254.146 202.102 254.146 202.693V224.769C254.146 225.36 253.911 225.926 253.494 226.344C253.076 226.762 252.509 226.996 251.919 226.996Z" fill="#F5F5F5"/>
<path d="M272.8 226.996C272.507 226.998 272.217 226.941 271.946 226.829C271.675 226.718 271.429 226.554 271.222 226.347C271.015 226.14 270.851 225.894 270.739 225.623C270.628 225.352 270.571 225.062 270.573 224.769V202.693C270.573 202.102 270.807 201.536 271.225 201.118C271.643 200.7 272.209 200.466 272.8 200.466C273.391 200.466 273.958 200.7 274.375 201.118C274.793 201.536 275.028 202.102 275.028 202.693V224.769C275.028 225.36 274.793 225.926 274.375 226.344C273.958 226.762 273.391 226.996 272.8 226.996Z" fill="#F5F5F5"/>
<path d="M283.246 222.491C282.953 222.493 282.663 222.436 282.392 222.324C282.121 222.213 281.875 222.049 281.668 221.842C281.46 221.635 281.296 221.389 281.185 221.118C281.073 220.847 281.017 220.557 281.018 220.264V207.219C281.056 206.655 281.307 206.127 281.719 205.741C282.132 205.355 282.676 205.141 283.241 205.141C283.806 205.141 284.349 205.355 284.762 205.741C285.175 206.127 285.425 206.655 285.463 207.219V220.264C285.465 220.556 285.408 220.845 285.297 221.115C285.187 221.386 285.023 221.631 284.817 221.838C284.611 222.045 284.366 222.209 284.097 222.321C283.827 222.434 283.538 222.491 283.246 222.491Z" fill="#F5F5F5"/>
<path d="M105.729 226.585C105.138 226.585 104.571 226.351 104.153 225.933C103.736 225.515 103.501 224.949 103.501 224.358V203.125C103.501 202.534 103.736 201.968 104.153 201.55C104.571 201.132 105.138 200.898 105.729 200.898C106.319 200.898 106.886 201.132 107.304 201.55C107.722 201.968 107.956 202.534 107.956 203.125V224.358C107.954 224.948 107.718 225.513 107.301 225.93C106.884 226.347 106.319 226.583 105.729 226.585Z" fill="#F5F5F5"/>
<path d="M116.164 231.222C115.872 231.222 115.583 231.164 115.313 231.052C115.043 230.94 114.798 230.776 114.592 230.569C114.386 230.362 114.223 230.116 114.112 229.846C114.001 229.576 113.945 229.286 113.946 228.994V198.48C113.926 198.175 113.968 197.87 114.071 197.583C114.173 197.295 114.333 197.032 114.542 196.809C114.75 196.586 115.002 196.408 115.282 196.287C115.562 196.165 115.864 196.103 116.169 196.103C116.474 196.103 116.776 196.165 117.056 196.287C117.336 196.408 117.588 196.586 117.796 196.809C118.005 197.032 118.165 197.295 118.267 197.583C118.37 197.87 118.412 198.175 118.392 198.48V228.994C118.393 229.287 118.336 229.577 118.225 229.848C118.113 230.119 117.949 230.365 117.742 230.572C117.535 230.779 117.289 230.943 117.018 231.055C116.747 231.166 116.457 231.223 116.164 231.222Z" fill="#F5F5F5"/>
<path d="M126.61 236.78C126.318 236.78 126.028 236.722 125.758 236.61C125.488 236.498 125.242 236.334 125.035 236.127C124.828 235.921 124.664 235.675 124.552 235.405C124.44 235.135 124.383 234.845 124.383 234.552V192.92C124.383 192.329 124.618 191.763 125.035 191.345C125.453 190.927 126.02 190.692 126.61 190.692C127.201 190.692 127.768 190.927 128.186 191.345C128.603 191.763 128.838 192.329 128.838 192.92V234.552C128.839 234.845 128.783 235.135 128.671 235.406C128.56 235.677 128.396 235.923 128.189 236.13C127.981 236.338 127.735 236.502 127.464 236.613C127.194 236.725 126.903 236.781 126.61 236.78Z" fill="#F5F5F5"/>
<path d="M137.056 231.462C136.465 231.462 135.898 231.228 135.481 230.81C135.063 230.392 134.828 229.826 134.828 229.235V198.249C134.828 197.658 135.063 197.092 135.481 196.674C135.898 196.256 136.465 196.021 137.056 196.021C137.647 196.021 138.213 196.256 138.631 196.674C139.049 197.092 139.283 197.658 139.283 198.249V229.235C139.281 229.825 139.045 230.39 138.628 230.807C138.211 231.224 137.646 231.46 137.056 231.462Z" fill="#F5F5F5"/>
<path d="M147.491 226.465C147.199 226.465 146.909 226.408 146.639 226.296C146.369 226.184 146.123 226.02 145.916 225.813C145.709 225.606 145.545 225.36 145.433 225.09C145.321 224.82 145.264 224.53 145.264 224.238V203.206C145.264 202.615 145.498 202.048 145.916 201.631C146.334 201.213 146.9 200.978 147.491 200.978C148.082 200.978 148.649 201.213 149.066 201.631C149.484 202.048 149.719 202.615 149.719 203.206V224.278C149.711 224.863 149.472 225.42 149.055 225.83C148.638 226.24 148.076 226.468 147.491 226.465Z" fill="#F5F5F5"/>
<path d="M157.937 223.795C157.644 223.797 157.354 223.74 157.083 223.629C156.812 223.517 156.566 223.353 156.359 223.146C156.152 222.939 155.988 222.693 155.876 222.422C155.765 222.151 155.708 221.861 155.709 221.568V205.904C155.709 205.313 155.944 204.747 156.362 204.329C156.78 203.911 157.346 203.677 157.937 203.677C158.528 203.677 159.095 203.911 159.512 204.329C159.93 204.747 160.165 205.313 160.165 205.904V221.568C160.166 221.861 160.109 222.151 159.998 222.422C159.886 222.693 159.722 222.939 159.515 223.146C159.308 223.353 159.062 223.517 158.791 223.629C158.52 223.74 158.23 223.797 157.937 223.795Z" fill="#F5F5F5"/>
<path d="M168.383 231.803C168.09 231.805 167.8 231.748 167.529 231.636C167.258 231.525 167.012 231.361 166.805 231.154C166.598 230.947 166.434 230.701 166.322 230.43C166.211 230.159 166.154 229.869 166.155 229.576V197.897C166.155 197.307 166.39 196.74 166.808 196.322C167.226 195.904 167.792 195.67 168.383 195.67C168.974 195.67 169.54 195.904 169.958 196.322C170.376 196.74 170.611 197.307 170.611 197.897V229.576C170.611 230.166 170.376 230.733 169.958 231.151C169.54 231.569 168.974 231.803 168.383 231.803Z" fill="#F5F5F5"/>
<path d="M210.146 231.803C209.853 231.805 209.562 231.748 209.292 231.636C209.021 231.525 208.775 231.361 208.567 231.154C208.36 230.947 208.196 230.701 208.085 230.43C207.973 230.159 207.917 229.869 207.918 229.576V197.897C207.918 197.307 208.153 196.74 208.57 196.322C208.988 195.904 209.555 195.67 210.146 195.67C210.736 195.67 211.303 195.904 211.721 196.322C212.139 196.74 212.373 197.307 212.373 197.897V229.576C212.375 229.869 212.318 230.159 212.206 230.43C212.095 230.701 211.931 230.947 211.724 231.154C211.517 231.361 211.271 231.525 211 231.636C210.729 231.748 210.439 231.805 210.146 231.803Z" fill="#F5F5F5"/>
<path d="M178.819 236.78C178.526 236.78 178.237 236.722 177.966 236.61C177.696 236.498 177.451 236.334 177.244 236.127C177.037 235.921 176.873 235.675 176.761 235.405C176.649 235.135 176.591 234.845 176.591 234.552V192.92C176.591 192.329 176.826 191.763 177.244 191.345C177.662 190.927 178.228 190.692 178.819 190.692C179.41 190.692 179.976 190.927 180.394 191.345C180.812 191.763 181.047 192.329 181.047 192.92V234.552C181.048 234.845 180.991 235.135 180.88 235.406C180.768 235.677 180.604 235.923 180.397 236.13C180.19 236.338 179.944 236.502 179.673 236.613C179.402 236.725 179.112 236.781 178.819 236.78Z" fill="#F5F5F5"/>
<path d="M189.264 245.209C188.972 245.209 188.682 245.152 188.412 245.04C188.142 244.928 187.896 244.764 187.689 244.557C187.482 244.35 187.318 244.104 187.206 243.834C187.094 243.564 187.037 243.274 187.037 242.982V184.502C187.037 183.911 187.271 183.344 187.689 182.927C188.107 182.509 188.673 182.274 189.264 182.274C189.855 182.274 190.422 182.509 190.839 182.927C191.257 183.344 191.492 183.911 191.492 184.502V242.982C191.489 243.572 191.254 244.137 190.836 244.554C190.419 244.971 189.854 245.207 189.264 245.209Z" fill="#F5F5F5"/>
<path d="M199.74 236.78C199.448 236.78 199.159 236.722 198.889 236.61C198.62 236.498 198.375 236.334 198.169 236.127C197.963 235.92 197.8 235.674 197.689 235.404C197.578 235.134 197.522 234.844 197.523 234.552V192.92C197.502 192.616 197.545 192.31 197.647 192.023C197.75 191.735 197.91 191.472 198.118 191.249C198.327 191.026 198.579 190.849 198.859 190.727C199.138 190.606 199.44 190.543 199.745 190.543C200.051 190.543 200.352 190.606 200.632 190.727C200.912 190.849 201.164 191.026 201.373 191.249C201.581 191.472 201.741 191.735 201.844 192.023C201.946 192.31 201.989 192.616 201.968 192.92V234.552C201.969 234.845 201.913 235.135 201.801 235.406C201.69 235.677 201.526 235.923 201.319 236.13C201.111 236.338 200.865 236.502 200.594 236.613C200.324 236.725 200.033 236.781 199.74 236.78Z" fill="#F5F5F5"/>
<path d="M220.592 223.795C220.299 223.797 220.008 223.74 219.738 223.629C219.467 223.517 219.221 223.353 219.014 223.146C218.806 222.939 218.642 222.693 218.531 222.422C218.419 222.151 218.363 221.861 218.364 221.568V205.904C218.364 205.313 218.599 204.747 219.017 204.329C219.434 203.911 220.001 203.677 220.592 203.677C221.182 203.677 221.749 203.911 222.167 204.329C222.585 204.747 222.819 205.313 222.819 205.904V221.568C222.819 222.159 222.585 222.725 222.167 223.143C221.749 223.561 221.182 223.795 220.592 223.795Z" fill="#F5F5F5"/>
<path d="M241.473 223.795C241.18 223.797 240.89 223.74 240.619 223.629C240.348 223.517 240.102 223.353 239.895 223.146C239.688 222.939 239.523 222.693 239.412 222.422C239.301 222.151 239.244 221.861 239.245 221.568V205.904C239.245 205.313 239.48 204.747 239.898 204.329C240.315 203.911 240.882 203.677 241.473 203.677C242.064 203.677 242.63 203.911 243.048 204.329C243.466 204.747 243.7 205.313 243.7 205.904V221.568C243.702 221.861 243.645 222.151 243.534 222.422C243.422 222.693 243.258 222.939 243.051 223.146C242.844 223.353 242.598 223.517 242.327 223.629C242.056 223.74 241.766 223.797 241.473 223.795Z" fill="#F5F5F5"/>
<path d="M231.027 221.176C230.445 221.166 229.89 220.928 229.482 220.513C229.073 220.099 228.842 219.541 228.84 218.959V208.523C228.84 207.932 229.075 207.366 229.492 206.948C229.91 206.53 230.477 206.295 231.067 206.295C231.658 206.295 232.225 206.53 232.643 206.948C233.06 207.366 233.295 207.932 233.295 208.523V218.959C233.295 219.254 233.236 219.547 233.122 219.819C233.007 220.092 232.839 220.338 232.628 220.545C232.417 220.751 232.166 220.914 231.891 221.022C231.617 221.131 231.323 221.183 231.027 221.176Z" fill="#F5F5F5"/>
<path d="M53.5201 223.795C53.2272 223.797 52.9369 223.74 52.6661 223.629C52.3952 223.517 52.1491 223.353 51.942 223.146C51.7349 222.939 51.5708 222.693 51.4594 222.422C51.3479 222.151 51.2912 221.861 51.2925 221.568V205.904C51.2925 205.313 51.5272 204.747 51.945 204.329C52.3627 203.911 52.9293 203.677 53.5201 203.677C54.1109 203.677 54.6775 203.911 55.0953 204.329C55.513 204.747 55.7477 205.313 55.7477 205.904V221.568C55.7477 222.159 55.513 222.725 55.0953 223.143C54.6775 223.561 54.1109 223.795 53.5201 223.795Z" fill="#F5F5F5"/>
<path d="M147.341 232.024C146.751 232.021 146.186 231.786 145.769 231.368C145.351 230.951 145.116 230.386 145.113 229.796V197.686C145.113 197.095 145.348 196.529 145.766 196.111C146.184 195.693 146.75 195.459 147.341 195.459C147.932 195.459 148.498 195.693 148.916 196.111C149.334 196.529 149.569 197.095 149.569 197.686V229.796C149.569 230.387 149.334 230.953 148.916 231.371C148.498 231.789 147.932 232.024 147.341 232.024Z" fill="#F5F5F5"/>
<path d="M136.905 226.996C136.612 226.998 136.322 226.941 136.051 226.829C135.78 226.718 135.534 226.554 135.327 226.347C135.12 226.14 134.956 225.894 134.845 225.623C134.733 225.352 134.676 225.062 134.678 224.769V202.693C134.678 202.102 134.912 201.536 135.33 201.118C135.748 200.7 136.315 200.466 136.905 200.466C137.496 200.466 138.063 200.7 138.481 201.118C138.898 201.536 139.133 202.102 139.133 202.693V224.769C139.133 225.36 138.898 225.926 138.481 226.344C138.063 226.762 137.496 226.996 136.905 226.996Z" fill="#F5F5F5"/>
<path d="M157.787 226.996C157.494 226.998 157.204 226.941 156.933 226.829C156.662 226.718 156.416 226.554 156.209 226.347C156.001 226.14 155.837 225.894 155.726 225.623C155.614 225.352 155.558 225.062 155.559 224.769V202.693C155.559 202.102 155.794 201.536 156.212 201.118C156.629 200.7 157.196 200.466 157.787 200.466C158.378 200.466 158.944 200.7 159.362 201.118C159.78 201.536 160.014 202.102 160.014 202.693V224.769C160.016 225.062 159.959 225.352 159.847 225.623C159.736 225.894 159.572 226.14 159.365 226.347C159.158 226.554 158.912 226.718 158.641 226.829C158.37 226.941 158.08 226.998 157.787 226.996Z" fill="#F5F5F5"/>
<path d="M168.233 222.491C167.94 222.493 167.649 222.436 167.378 222.324C167.108 222.213 166.862 222.049 166.654 221.842C166.447 221.635 166.283 221.389 166.172 221.118C166.06 220.847 166.004 220.557 166.005 220.264V207.219C166.005 206.628 166.24 206.062 166.657 205.644C167.075 205.226 167.642 204.991 168.233 204.991C168.823 204.991 169.39 205.226 169.808 205.644C170.225 206.062 170.46 206.628 170.46 207.219V220.264C170.46 220.854 170.225 221.421 169.808 221.839C169.39 222.257 168.823 222.491 168.233 222.491Z" fill="#F5F5F5"/>
<path d="M335.304 232.024C334.713 232.024 334.146 231.789 333.729 231.371C333.311 230.953 333.076 230.387 333.076 229.796V197.686C333.076 197.095 333.311 196.529 333.729 196.111C334.146 195.693 334.713 195.459 335.304 195.459C335.895 195.459 336.461 195.693 336.879 196.111C337.297 196.529 337.531 197.095 337.531 197.686V229.796C337.529 230.386 337.293 230.951 336.876 231.368C336.459 231.786 335.894 232.021 335.304 232.024Z" fill="#F5F5F5"/>
<path d="M324.858 226.996C324.565 226.998 324.275 226.941 324.004 226.829C323.733 226.718 323.487 226.554 323.28 226.347C323.073 226.14 322.909 225.894 322.797 225.623C322.686 225.352 322.629 225.062 322.63 224.769V202.693C322.63 202.102 322.865 201.536 323.283 201.118C323.701 200.7 324.267 200.466 324.858 200.466C325.449 200.466 326.015 200.7 326.433 201.118C326.851 201.536 327.086 202.102 327.086 202.693V224.769C327.087 225.062 327.03 225.352 326.919 225.623C326.807 225.894 326.643 226.14 326.436 226.347C326.229 226.554 325.983 226.718 325.712 226.829C325.441 226.941 325.151 226.998 324.858 226.996Z" fill="#F5F5F5"/>
<path d="M345.739 226.996C345.149 226.996 344.582 226.762 344.164 226.344C343.746 225.926 343.512 225.36 343.512 224.769V202.693C343.512 202.102 343.746 201.536 344.164 201.118C344.582 200.7 345.149 200.466 345.739 200.466C346.33 200.466 346.897 200.7 347.314 201.118C347.732 201.536 347.967 202.102 347.967 202.693V224.769C347.968 225.062 347.912 225.352 347.8 225.623C347.689 225.894 347.525 226.14 347.317 226.347C347.11 226.554 346.864 226.718 346.593 226.829C346.323 226.941 346.032 226.998 345.739 226.996Z" fill="#F5F5F5"/>
<path d="M356.185 222.491C355.892 222.493 355.602 222.436 355.331 222.324C355.06 222.213 354.814 222.049 354.607 221.842C354.4 221.635 354.236 221.389 354.124 221.118C354.013 220.847 353.956 220.557 353.957 220.264V207.219C353.957 206.628 354.192 206.062 354.61 205.644C355.027 205.226 355.594 204.991 356.185 204.991C356.776 204.991 357.342 205.226 357.76 205.644C358.178 206.062 358.413 206.628 358.413 207.219V220.264C358.413 220.854 358.178 221.421 357.76 221.839C357.342 222.257 356.776 222.491 356.185 222.491Z" fill="#F5F5F5"/>
<path d="M178.668 226.585C178.078 226.583 177.513 226.347 177.096 225.93C176.679 225.513 176.443 224.948 176.44 224.358V203.125C176.44 202.534 176.675 201.968 177.093 201.55C177.511 201.132 178.077 200.898 178.668 200.898C179.259 200.898 179.825 201.132 180.243 201.55C180.661 201.968 180.896 202.534 180.896 203.125V224.358C180.896 224.949 180.661 225.515 180.243 225.933C179.825 226.351 179.259 226.585 178.668 226.585Z" fill="#F5F5F5"/>
<path d="M189.114 231.222C188.821 231.223 188.531 231.166 188.26 231.055C187.989 230.943 187.743 230.779 187.536 230.572C187.329 230.365 187.165 230.119 187.053 229.848C186.942 229.577 186.885 229.287 186.886 228.994V198.48C186.886 197.889 187.121 197.322 187.539 196.904C187.956 196.487 188.523 196.252 189.114 196.252C189.705 196.252 190.271 196.487 190.689 196.904C191.107 197.322 191.341 197.889 191.341 198.48V228.994C191.341 229.585 191.107 230.151 190.689 230.569C190.271 230.987 189.705 231.222 189.114 231.222Z" fill="#F5F5F5"/>
<path d="M199.549 236.78C199.257 236.78 198.968 236.722 198.699 236.61C198.429 236.498 198.184 236.334 197.978 236.127C197.772 235.92 197.609 235.674 197.498 235.404C197.387 235.134 197.331 234.844 197.332 234.552V192.92C197.311 192.616 197.354 192.31 197.456 192.023C197.559 191.735 197.719 191.472 197.927 191.249C198.136 191.026 198.388 190.849 198.668 190.727C198.948 190.606 199.249 190.543 199.555 190.543C199.86 190.543 200.162 190.606 200.441 190.727C200.721 190.849 200.973 191.026 201.182 191.249C201.39 191.472 201.55 191.735 201.653 192.023C201.755 192.31 201.798 192.616 201.777 192.92V234.552C201.778 234.845 201.722 235.135 201.61 235.406C201.499 235.677 201.335 235.923 201.128 236.13C200.92 236.338 200.674 236.502 200.404 236.613C200.133 236.725 199.842 236.781 199.549 236.78Z" fill="#F5F5F5"/>
<path d="M209.995 231.462C209.405 231.462 208.838 231.228 208.42 230.81C208.003 230.392 207.768 229.826 207.768 229.235V198.249C207.768 197.658 208.003 197.092 208.42 196.674C208.838 196.256 209.405 196.021 209.995 196.021C210.586 196.021 211.153 196.256 211.571 196.674C211.988 197.092 212.223 197.658 212.223 198.249V229.235C212.223 229.826 211.988 230.392 211.571 230.81C211.153 231.228 210.586 231.462 209.995 231.462Z" fill="#F5F5F5"/>
<path d="M220.441 226.465C220.148 226.467 219.858 226.41 219.587 226.298C219.316 226.187 219.07 226.023 218.863 225.816C218.656 225.609 218.492 225.363 218.38 225.092C218.269 224.821 218.212 224.531 218.213 224.238V203.206C218.213 202.615 218.448 202.048 218.866 201.631C219.284 201.213 219.85 200.978 220.441 200.978C221.032 200.978 221.598 201.213 222.016 201.631C222.434 202.048 222.669 202.615 222.669 203.206V224.278C222.658 224.862 222.419 225.418 222.002 225.827C221.586 226.236 221.025 226.465 220.441 226.465Z" fill="#F5F5F5"/>
<path d="M230.847 223.795C230.256 223.795 229.689 223.561 229.271 223.143C228.854 222.725 228.619 222.159 228.619 221.568V205.904C228.619 205.313 228.854 204.747 229.271 204.329C229.689 203.911 230.256 203.677 230.847 203.677C231.437 203.677 232.004 203.911 232.422 204.329C232.839 204.747 233.074 205.313 233.074 205.904V221.568C233.075 221.861 233.019 222.151 232.907 222.422C232.796 222.693 232.632 222.939 232.425 223.146C232.218 223.353 231.971 223.517 231.701 223.629C231.43 223.74 231.139 223.797 230.847 223.795Z" fill="#F5F5F5"/>
<path d="M241.322 231.803C241.029 231.805 240.739 231.748 240.468 231.636C240.197 231.525 239.951 231.361 239.744 231.154C239.537 230.947 239.373 230.701 239.262 230.43C239.15 230.159 239.093 229.869 239.095 229.576V197.897C239.095 197.307 239.329 196.74 239.747 196.322C240.165 195.904 240.732 195.67 241.322 195.67C241.913 195.67 242.48 195.904 242.898 196.322C243.315 196.74 243.55 197.307 243.55 197.897V229.576C243.551 229.869 243.495 230.159 243.383 230.43C243.272 230.701 243.108 230.947 242.9 231.154C242.693 231.361 242.447 231.525 242.176 231.636C241.906 231.748 241.615 231.805 241.322 231.803Z" fill="#F5F5F5"/>
<path d="M283.085 231.803C282.793 231.803 282.504 231.746 282.234 231.634C281.964 231.522 281.719 231.357 281.513 231.15C281.307 230.943 281.144 230.698 281.033 230.428C280.922 230.157 280.866 229.868 280.867 229.576V197.898C280.847 197.593 280.889 197.288 280.992 197C281.094 196.713 281.254 196.45 281.463 196.227C281.671 196.004 281.923 195.826 282.203 195.705C282.483 195.583 282.785 195.52 283.09 195.52C283.395 195.52 283.697 195.583 283.977 195.705C284.257 195.826 284.509 196.004 284.717 196.227C284.925 196.45 285.086 196.713 285.188 197C285.291 197.288 285.333 197.593 285.313 197.898V229.576C285.314 229.869 285.257 230.159 285.146 230.43C285.034 230.701 284.87 230.947 284.663 231.154C284.456 231.361 284.21 231.525 283.939 231.637C283.668 231.748 283.378 231.805 283.085 231.803Z" fill="#F5F5F5"/>
<path d="M251.768 236.78C251.475 236.781 251.185 236.725 250.914 236.613C250.643 236.502 250.397 236.338 250.19 236.13C249.983 235.923 249.819 235.677 249.707 235.406C249.596 235.135 249.539 234.845 249.54 234.552V192.92C249.54 192.329 249.775 191.763 250.193 191.345C250.611 190.927 251.177 190.692 251.768 190.692C252.359 190.692 252.925 190.927 253.343 191.345C253.761 191.763 253.996 192.329 253.996 192.92V234.552C253.996 235.143 253.761 235.71 253.343 236.127C252.925 236.545 252.359 236.78 251.768 236.78Z" fill="#F5F5F5"/>
<path d="M262.203 245.209C261.613 245.207 261.048 244.971 260.631 244.554C260.214 244.137 259.978 243.572 259.976 242.982V184.502C259.976 183.911 260.211 183.344 260.628 182.927C261.046 182.509 261.613 182.274 262.203 182.274C262.794 182.274 263.361 182.509 263.779 182.927C264.196 183.344 264.431 183.911 264.431 184.502V242.982C264.431 243.274 264.373 243.564 264.262 243.834C264.15 244.104 263.985 244.35 263.779 244.557C263.572 244.764 263.326 244.928 263.056 245.04C262.786 245.152 262.496 245.209 262.203 245.209Z" fill="#F5F5F5"/>
<path d="M272.65 236.78C272.357 236.781 272.066 236.725 271.795 236.613C271.525 236.502 271.279 236.338 271.071 236.13C270.864 235.923 270.7 235.677 270.589 235.406C270.477 235.135 270.421 234.845 270.422 234.552V192.92C270.422 192.329 270.657 191.763 271.074 191.345C271.492 190.927 272.059 190.692 272.65 190.692C273.24 190.692 273.807 190.927 274.225 191.345C274.642 191.763 274.877 192.329 274.877 192.92V234.552C274.877 235.143 274.642 235.71 274.225 236.127C273.807 236.545 273.24 236.78 272.65 236.78Z" fill="#F5F5F5"/>
<path d="M293.531 223.795C293.238 223.795 292.949 223.738 292.678 223.626C292.408 223.514 292.163 223.35 291.956 223.143C291.749 222.936 291.585 222.69 291.473 222.42C291.361 222.15 291.303 221.86 291.303 221.568V205.904C291.303 205.313 291.538 204.747 291.956 204.329C292.373 203.911 292.94 203.677 293.531 203.677C294.122 203.677 294.688 203.911 295.106 204.329C295.524 204.747 295.758 205.313 295.758 205.904V221.568C295.76 221.861 295.703 222.151 295.592 222.422C295.48 222.693 295.316 222.939 295.109 223.146C294.902 223.353 294.656 223.517 294.385 223.629C294.114 223.74 293.824 223.797 293.531 223.795Z" fill="#F5F5F5"/>
<path d="M314.412 223.795C313.821 223.795 313.255 223.561 312.837 223.143C312.419 222.725 312.184 222.159 312.184 221.568V205.904C312.184 205.313 312.419 204.747 312.837 204.329C313.255 203.911 313.821 203.677 314.412 203.677C315.003 203.677 315.569 203.911 315.987 204.329C316.405 204.747 316.64 205.313 316.64 205.904V221.568C316.641 221.861 316.584 222.151 316.473 222.422C316.361 222.693 316.197 222.939 315.99 223.146C315.783 223.353 315.537 223.517 315.266 223.629C314.995 223.74 314.705 223.797 314.412 223.795Z" fill="#F5F5F5"/>
<path d="M303.977 221.176C303.685 221.178 303.395 221.121 303.125 221.01C302.855 220.9 302.609 220.736 302.402 220.53C302.195 220.324 302.031 220.079 301.919 219.81C301.807 219.54 301.749 219.251 301.749 218.959V208.523C301.749 207.932 301.984 207.366 302.402 206.948C302.819 206.53 303.386 206.295 303.977 206.295C304.568 206.295 305.134 206.53 305.552 206.948C305.97 207.366 306.205 207.932 306.205 208.523V218.959C306.202 219.548 305.966 220.112 305.549 220.527C305.131 220.943 304.566 221.176 303.977 221.176Z" fill="#F5F5F5"/>
<path d="M126.489 223.795C126.196 223.797 125.906 223.74 125.635 223.629C125.364 223.517 125.118 223.353 124.911 223.146C124.704 222.939 124.54 222.693 124.429 222.422C124.317 222.151 124.26 221.861 124.262 221.568V205.904C124.262 205.313 124.496 204.747 124.914 204.329C125.332 203.911 125.899 203.677 126.489 203.677C127.08 203.677 127.647 203.911 128.065 204.329C128.482 204.747 128.717 205.313 128.717 205.904V221.568C128.718 221.861 128.662 222.151 128.55 222.422C128.439 222.693 128.275 222.939 128.067 223.146C127.86 223.353 127.614 223.517 127.343 223.629C127.073 223.74 126.782 223.797 126.489 223.795Z" fill="#F5F5F5"/>
<path d="M174.654 409.209C173.856 409.209 173.09 408.892 172.526 408.328C171.961 407.763 171.644 406.997 171.644 406.199V362.419C171.644 361.614 171.964 360.842 172.533 360.273C173.102 359.704 173.874 359.384 174.679 359.384C175.484 359.384 176.257 359.704 176.826 360.273C177.395 360.842 177.715 361.614 177.715 362.419V406.179C177.718 406.58 177.64 406.978 177.487 407.349C177.334 407.72 177.108 408.056 176.823 408.339C176.537 408.621 176.199 408.843 175.826 408.993C175.454 409.142 175.056 409.216 174.654 409.209Z" fill="#E4E3E3"/>
<path d="M160.376 402.366C159.577 402.366 158.811 402.049 158.247 401.484C157.682 400.92 157.365 400.154 157.365 399.356V369.253C157.365 368.448 157.685 367.676 158.254 367.106C158.824 366.537 159.596 366.217 160.401 366.217C161.206 366.217 161.978 366.537 162.547 367.106C163.116 367.676 163.436 368.448 163.436 369.253V399.356C163.436 399.755 163.357 400.151 163.202 400.519C163.048 400.888 162.822 401.222 162.537 401.502C162.252 401.782 161.914 402.003 161.543 402.151C161.172 402.3 160.775 402.373 160.376 402.366Z" fill="#E4E3E3"/>
<path d="M188.833 402.367C188.034 402.367 187.268 402.05 186.704 401.485C186.139 400.92 185.822 400.155 185.822 399.356V369.254C185.822 368.455 186.139 367.689 186.704 367.125C187.268 366.56 188.034 366.243 188.833 366.243C189.631 366.243 190.397 366.56 190.961 367.125C191.526 367.689 191.843 368.455 191.843 369.254V399.356C191.843 400.155 191.526 400.92 190.961 401.485C190.397 402.05 189.631 402.367 188.833 402.367Z" fill="#E4E3E3"/>
<path d="M203.062 396.226C202.263 396.226 201.498 395.909 200.933 395.344C200.368 394.779 200.051 394.014 200.051 393.215V375.405C200.051 374.606 200.368 373.84 200.933 373.276C201.498 372.711 202.263 372.394 203.062 372.394C203.86 372.394 204.626 372.711 205.19 373.276C205.755 373.84 206.072 374.606 206.072 375.405V393.195C206.075 393.592 205.999 393.986 205.848 394.354C205.698 394.721 205.477 395.055 205.197 395.337C204.917 395.619 204.585 395.842 204.218 395.995C203.852 396.147 203.459 396.226 203.062 396.226Z" fill="#E4E3E3"/>
<path d="M3.84037 408.447C3.04199 408.447 2.27631 408.13 1.71177 407.565C1.14723 407.001 0.830078 406.235 0.830078 405.437V363.182C0.830078 362.384 1.14723 361.618 1.71177 361.054C2.27631 360.489 3.04199 360.172 3.84037 360.172C4.63875 360.172 5.40443 360.489 5.96897 361.054C6.53351 361.618 6.85066 362.384 6.85066 363.182V405.417C6.85331 405.814 6.7774 406.207 6.62731 406.575C6.47721 406.942 6.25589 407.277 5.97609 407.558C5.6963 407.84 5.36355 408.063 4.99701 408.216C4.63047 408.369 4.23738 408.447 3.84037 408.447Z" fill="#E4E3E3"/>
<path d="M18.1192 401.644C17.3208 401.644 16.5551 401.327 15.9906 400.762C15.426 400.198 15.1089 399.432 15.1089 398.634V369.996C15.1089 369.198 15.426 368.432 15.9906 367.867C16.5551 367.303 17.3208 366.986 18.1192 366.986C18.9176 366.986 19.6832 367.303 20.2478 367.867C20.8123 368.432 21.1295 369.198 21.1295 369.996V398.604C21.1335 399.002 21.0585 399.396 20.909 399.765C20.7595 400.134 20.5384 400.469 20.2585 400.752C19.9786 401.035 19.6454 401.259 19.2782 401.412C18.911 401.565 18.517 401.644 18.1192 401.644Z" fill="#E4E3E3"/>
<path d="M32.2974 398.002C31.499 398.002 30.7333 397.684 30.1688 397.12C29.6043 396.555 29.2871 395.79 29.2871 394.991V373.628C29.2871 372.83 29.6043 372.064 30.1688 371.5C30.7333 370.935 31.499 370.618 32.2974 370.618C33.0958 370.618 33.8615 370.935 34.426 371.5C34.9905 372.064 35.3077 372.83 35.3077 373.628V394.971C35.3103 395.368 35.2344 395.762 35.0843 396.129C34.9342 396.497 34.7129 396.831 34.4331 397.113C34.1533 397.394 33.8206 397.618 33.454 397.77C33.0875 397.923 32.6944 398.002 32.2974 398.002Z" fill="#E4E3E3"/>
<path d="M46.5264 408.908C45.728 408.908 44.9623 408.591 44.3978 408.026C43.8333 407.462 43.5161 406.696 43.5161 405.898V362.75C43.5161 361.945 43.8359 361.173 44.4052 360.604C44.9744 360.035 45.7465 359.715 46.5515 359.715C47.3565 359.715 48.1286 360.035 48.6978 360.604C49.2671 361.173 49.5869 361.945 49.5869 362.75V405.898C49.5869 406.297 49.5074 406.693 49.353 407.062C49.1986 407.43 48.9724 407.764 48.6875 408.044C48.4026 408.325 48.0648 408.545 47.6938 408.694C47.3228 408.842 46.9259 408.915 46.5264 408.908Z" fill="#E4E3E3"/>
<path d="M103.411 408.908C102.612 408.908 101.847 408.591 101.282 408.026C100.718 407.462 100.4 406.696 100.4 405.898V362.75C100.4 361.945 100.72 361.173 101.289 360.604C101.859 360.035 102.631 359.715 103.436 359.715C104.241 359.715 105.013 360.035 105.582 360.604C106.151 361.173 106.471 361.945 106.471 362.75V405.898C106.471 406.297 106.392 406.693 106.237 407.062C106.083 407.43 105.857 407.764 105.572 408.044C105.287 408.325 104.949 408.545 104.578 408.694C104.207 408.842 103.81 408.915 103.411 408.908Z" fill="#E4E3E3"/>
<path d="M60.7549 415.702C59.9565 415.702 59.1909 415.385 58.6263 414.82C58.0618 414.256 57.7446 413.49 57.7446 412.692V355.928C57.7446 355.123 58.0644 354.351 58.6337 353.781C59.2029 353.212 59.975 352.892 60.78 352.892C61.585 352.892 62.3571 353.212 62.9263 353.781C63.4956 354.351 63.8154 355.123 63.8154 355.928V412.672C63.8181 413.073 63.7406 413.471 63.5874 413.842C63.4342 414.212 63.2083 414.549 62.9232 414.831C62.6381 415.114 62.2994 415.336 61.927 415.486C61.5546 415.635 61.1561 415.709 60.7549 415.702Z" fill="#E4E3E3"/>
<path d="M74.9932 427.182C74.1948 427.182 73.4292 426.864 72.8646 426.3C72.3001 425.735 71.9829 424.97 71.9829 424.171V344.449C71.9829 343.65 72.3001 342.885 72.8646 342.32C73.4292 341.756 74.1948 341.438 74.9932 341.438C75.7916 341.438 76.5573 341.756 77.1218 342.32C77.6863 342.885 78.0035 343.65 78.0035 344.449V424.151C78.0061 424.548 77.9302 424.942 77.7801 425.309C77.63 425.677 77.4087 426.011 77.1289 426.293C76.8491 426.574 76.5164 426.798 76.1499 426.951C75.7833 427.103 75.3902 427.182 74.9932 427.182Z" fill="#E4E3E3"/>
<path d="M89.2222 415.702C88.4238 415.702 87.6581 415.385 87.0936 414.82C86.5291 414.256 86.2119 413.49 86.2119 412.692V355.928C86.2119 355.129 86.5291 354.364 87.0936 353.799C87.6581 353.234 88.4238 352.917 89.2222 352.917C90.0206 352.917 90.7863 353.234 91.3508 353.799C91.9153 354.364 92.2325 355.129 92.2325 355.928V412.672C92.2351 413.069 92.1592 413.462 92.0091 413.83C91.859 414.197 91.6377 414.532 91.3579 414.813C91.0781 415.095 90.7454 415.318 90.3789 415.471C90.0123 415.623 89.6192 415.702 89.2222 415.702Z" fill="#E4E3E3"/>
<path d="M117.68 398.002C116.881 398.002 116.116 397.684 115.551 397.12C114.987 396.555 114.669 395.79 114.669 394.991V373.628C114.669 372.823 114.989 372.051 115.558 371.482C116.128 370.913 116.9 370.593 117.705 370.593C118.51 370.593 119.282 370.913 119.851 371.482C120.42 372.051 120.74 372.823 120.74 373.628V394.971C120.743 395.372 120.665 395.77 120.512 396.141C120.359 396.512 120.133 396.848 119.848 397.131C119.563 397.413 119.224 397.636 118.852 397.785C118.479 397.935 118.081 398.008 117.68 398.002Z" fill="#E4E3E3"/>
<path d="M146.137 398.002C145.338 398.002 144.573 397.684 144.008 397.12C143.444 396.555 143.126 395.79 143.126 394.991V373.628C143.126 372.823 143.446 372.051 144.016 371.482C144.585 370.913 145.357 370.593 146.162 370.593C146.967 370.593 147.739 370.913 148.308 371.482C148.877 372.051 149.197 372.823 149.197 373.628V394.971C149.2 395.372 149.122 395.77 148.969 396.141C148.816 396.512 148.59 396.848 148.305 397.131C148.02 397.413 147.681 397.636 147.309 397.785C146.936 397.935 146.538 398.008 146.137 398.002Z" fill="#E4E3E3"/>
<path d="M131.908 394.44C131.11 394.44 130.344 394.122 129.78 393.558C129.215 392.993 128.898 392.228 128.898 391.429V377.191C128.898 376.386 129.218 375.614 129.787 375.044C130.356 374.475 131.128 374.155 131.933 374.155C132.738 374.155 133.51 374.475 134.08 375.044C134.649 375.614 134.969 376.386 134.969 377.191V391.409C134.971 391.81 134.894 392.208 134.741 392.579C134.587 392.95 134.362 393.286 134.077 393.569C133.791 393.851 133.453 394.074 133.08 394.223C132.708 394.373 132.309 394.446 131.908 394.44Z" fill="#E4E3E3"/>
<path d="M519.935 259.498C519.931 259.421 519.931 259.344 519.935 259.267V258.585C519.935 257.963 519.935 257.1 519.935 255.996C519.935 253.719 519.935 250.447 519.845 246.323L519.995 246.484L470.195 246.584L470.446 246.323V259.498L470.195 259.257L505.686 259.368L516.162 259.438H518.992H519.734H519.995C519.995 259.438 519.925 259.438 519.764 259.438H519.062H516.283L505.857 259.508L470.195 259.619H469.944V246.353L470.195 246.102L519.995 246.203H520.156V246.353C520.156 250.518 520.085 253.819 520.065 256.117C520.065 257.21 520.065 258.063 520.065 258.675V259.328C519.945 259.398 519.945 259.508 519.935 259.498Z" fill="#E4E3E3"/>
<path d="M526.688 246.353C526.688 246.353 526.688 246.263 526.688 246.102C526.688 245.942 526.688 245.691 526.688 245.41C526.688 244.758 526.688 243.875 526.688 242.771C526.688 240.453 526.628 237.192 526.588 233.178L526.768 233.359L496.756 233.409C496.535 233.63 497.067 233.098 497.007 233.148V239.931C497.007 242.129 497.007 244.266 497.007 246.313L496.766 246.072L518.169 246.193L524.41 246.253H526.086H526.688C526.508 246.268 526.326 246.268 526.146 246.253H524.521L518.339 246.323L496.766 246.434H496.525V246.353C496.525 244.346 496.525 242.169 496.525 239.972V233.188L496.776 232.937L526.698 233.008H526.859V233.188C526.859 237.202 526.778 240.553 526.758 242.891C526.758 243.985 526.758 244.848 526.758 245.49C526.76 245.78 526.736 246.068 526.688 246.353Z" fill="#E4E3E3"/>
<path d="M283.346 453L142.173 452.348C138.12 452.316 134.113 451.487 130.381 449.906C126.649 448.326 123.265 446.026 120.422 443.137C117.579 440.248 115.333 436.828 113.812 433.071C112.291 429.314 111.526 425.294 111.559 421.242L113.064 65.1137C113.07 61.0644 113.874 57.056 115.43 53.3173C116.986 49.5787 119.263 46.1832 122.131 43.3245C124.999 40.4658 128.402 38.2 132.145 36.6565C135.889 35.1129 139.9 34.3219 143.949 34.3285L285.122 34.9807C289.175 35.0122 293.182 35.8419 296.914 37.4223C300.646 39.0027 304.031 41.303 306.874 44.1916C309.717 47.0803 311.963 50.5007 313.483 54.2576C315.004 58.0145 315.77 62.0342 315.737 66.0871L314.242 422.215C314.226 430.394 310.962 438.232 305.168 444.005C299.374 449.778 291.525 453.013 283.346 453Z" fill="#ADB3B6"/>
<path d="M284.922 47.2724L257.558 47.1519L177.665 46.7807H168.042L144.03 46.6703C138.299 46.665 132.801 48.9357 128.744 52.9831C124.687 57.0306 122.404 62.5235 122.396 68.2541L120.941 415.863C120.901 421.59 123.136 427.099 127.154 431.18C131.173 435.26 136.647 437.579 142.374 437.627L283.266 438.279C286.104 438.283 288.915 437.728 291.538 436.645C294.161 435.563 296.546 433.974 298.555 431.969C300.564 429.965 302.158 427.585 303.247 424.964C304.336 422.343 304.897 419.533 304.9 416.696L306.365 69.0869C306.391 66.246 305.858 63.4278 304.794 60.7933C303.73 58.1589 302.158 55.7601 300.166 53.734C298.174 51.7079 295.803 50.0943 293.187 48.9856C290.571 47.8768 287.763 47.2947 284.922 47.2724Z" fill="#EFEFEF"/>
<path d="M288.654 73.5118C288.654 73.9749 288.47 74.419 288.143 74.7464C287.815 75.0739 287.371 75.2578 286.908 75.2578C286.445 75.2578 286.001 75.0739 285.674 74.7464C285.346 74.419 285.162 73.9749 285.162 73.5118C285.162 73.0488 285.346 72.6047 285.674 72.2772C286.001 71.9498 286.445 71.7659 286.908 71.7659C287.371 71.7659 287.815 71.9498 288.143 72.2772C288.47 72.6047 288.654 73.0488 288.654 73.5118Z" fill="#E4E3E3"/>
<path d="M288.634 79.7835C288.634 80.2466 288.45 80.6907 288.123 81.0181C287.795 81.3455 287.351 81.5295 286.888 81.5295C286.425 81.5295 285.981 81.3455 285.653 81.0181C285.326 80.6907 285.142 80.2466 285.142 79.7835C285.142 79.3204 285.326 78.8763 285.653 78.5489C285.981 78.2215 286.425 78.0375 286.888 78.0375C287.351 78.0375 287.795 78.2215 288.123 78.5489C288.45 78.8763 288.634 79.3204 288.634 79.7835Z" fill="#E4E3E3"/>
<path d="M288.604 86.0749C288.604 86.4206 288.501 86.7586 288.309 87.0459C288.117 87.3332 287.843 87.557 287.524 87.6889C287.204 87.8207 286.853 87.8547 286.514 87.7865C286.175 87.7183 285.864 87.551 285.62 87.3059C285.376 87.0607 285.211 86.7486 285.144 86.4093C285.078 86.0699 285.114 85.7186 285.248 85.3997C285.382 85.0809 285.607 84.8089 285.895 84.6182C286.184 84.4276 286.522 84.3269 286.868 84.3289C287.329 84.3315 287.771 84.5167 288.096 84.8438C288.421 85.171 288.604 85.6135 288.604 86.0749Z" fill="#E4E3E3"/>
<path d="M160.791 81.4324C162.261 75.237 158.43 69.0227 152.235 67.5525C146.04 66.0822 139.825 69.9127 138.355 76.1082C136.885 82.3036 140.715 88.5179 146.911 89.9882C153.106 91.4584 159.32 87.6279 160.791 81.4324Z" fill="#E4E3E3"/>
<path d="M249.46 77.4553H189.084C187.311 77.4553 185.873 78.8929 185.873 80.6662V82.1614C185.873 83.9347 187.311 85.3723 189.084 85.3723H249.46C251.234 85.3723 252.671 83.9347 252.671 82.1614V80.6662C252.671 78.8929 251.234 77.4553 249.46 77.4553Z" fill="#E4E3E3"/>
<path d="M270.081 125.329H85.7807C69.2052 125.329 55.7681 138.766 55.7681 155.342V158.533C55.7681 175.108 69.2052 188.546 85.7807 188.546H270.081C286.656 188.546 300.094 175.108 300.094 158.533V155.342C300.094 138.766 286.656 125.329 270.081 125.329Z" fill="#FAFAFA"/>
<path d="M270.081 189.047H85.7805C77.6856 189.042 69.9237 185.824 64.1988 180.101C58.474 174.378 55.2541 166.617 55.2461 158.523V155.342C55.2541 147.251 58.4715 139.494 64.1923 133.774C69.9132 128.053 77.67 124.835 85.7604 124.827H270.081C278.171 124.835 285.928 128.053 291.649 133.774C297.37 139.494 300.587 147.251 300.595 155.342V158.523C300.587 166.614 297.37 174.372 291.649 180.094C285.929 185.817 278.172 189.036 270.081 189.047ZM85.7805 125.831C77.9527 125.833 70.446 128.943 64.909 134.476C59.372 140.009 56.2575 147.514 56.2495 155.342V158.523C56.2575 166.348 59.3689 173.85 64.9013 179.385C70.4336 184.919 77.9352 188.033 85.7604 188.043H270.081C277.906 188.033 285.408 184.919 290.94 179.385C296.472 173.85 299.584 166.348 299.592 158.523V155.342C299.581 147.518 296.468 140.018 290.936 134.486C285.404 128.954 277.904 125.841 270.081 125.831H85.7805Z" fill="#ADB3B6"/>
<path d="M130.905 170.484C130.505 170.484 130.123 170.325 129.84 170.043C129.558 169.761 129.399 169.378 129.399 168.979V145.9C129.399 145.501 129.558 145.118 129.84 144.836C130.123 144.553 130.505 144.395 130.905 144.395C131.304 144.395 131.687 144.553 131.969 144.836C132.251 145.118 132.41 145.501 132.41 145.9V168.979C132.41 169.378 132.251 169.761 131.969 170.043C131.687 170.325 131.304 170.484 130.905 170.484Z" fill="#DC493A" fill-opacity="0.7"/>
<path d="M123.409 166.881C123.01 166.881 122.627 166.723 122.345 166.441C122.062 166.158 121.904 165.775 121.904 165.376V149.532C121.904 149.133 122.062 148.75 122.345 148.468C122.627 148.186 123.01 148.027 123.409 148.027C123.808 148.027 124.191 148.186 124.473 148.468C124.756 148.75 124.914 149.133 124.914 149.532V165.376C124.914 165.775 124.756 166.158 124.473 166.441C124.191 166.723 123.808 166.881 123.409 166.881Z" fill="#DC493A" fill-opacity="0.7"/>
<path d="M138.401 166.881C138.001 166.881 137.619 166.723 137.336 166.441C137.054 166.158 136.896 165.775 136.896 165.376V149.532C136.896 149.133 137.054 148.75 137.336 148.468C137.619 148.186 138.001 148.027 138.401 148.027C138.8 148.027 139.183 148.186 139.465 148.468C139.747 148.75 139.906 149.133 139.906 149.532V165.376C139.906 165.775 139.747 166.158 139.465 166.441C139.183 166.723 138.8 166.881 138.401 166.881Z" fill="#DC493A" fill-opacity="0.7"/>
<path d="M145.896 163.641C145.497 163.641 145.114 163.482 144.832 163.2C144.55 162.918 144.391 162.535 144.391 162.136V152.774C144.391 152.374 144.55 151.991 144.832 151.709C145.114 151.427 145.497 151.268 145.896 151.268C146.295 151.268 146.678 151.427 146.961 151.709C147.243 151.991 147.401 152.374 147.401 152.774V162.136C147.401 162.535 147.243 162.918 146.961 163.2C146.678 163.482 146.295 163.641 145.896 163.641Z" fill="#DC493A" fill-opacity="0.7"/>
<path d="M265.816 170.484C265.417 170.484 265.034 170.325 264.752 170.043C264.47 169.761 264.311 169.378 264.311 168.979V145.9C264.311 145.501 264.47 145.118 264.752 144.836C265.034 144.553 265.417 144.395 265.816 144.395C266.215 144.395 266.598 144.553 266.88 144.836C267.163 145.118 267.321 145.501 267.321 145.9V168.979C267.321 169.378 267.163 169.761 266.88 170.043C266.598 170.325 266.215 170.484 265.816 170.484Z" fill="#DC493A" fill-opacity="0.7"/>
<path d="M258.32 166.881C257.921 166.881 257.538 166.723 257.256 166.441C256.974 166.158 256.815 165.775 256.815 165.376V149.532C256.815 149.133 256.974 148.75 257.256 148.468C257.538 148.186 257.921 148.027 258.32 148.027C258.72 148.027 259.102 148.186 259.385 148.468C259.667 148.75 259.825 149.133 259.825 149.532V165.376C259.825 165.775 259.667 166.158 259.385 166.441C259.102 166.723 258.72 166.881 258.32 166.881Z" fill="#DC493A" fill-opacity="0.7"/>
<path d="M273.312 166.881C272.913 166.881 272.53 166.723 272.247 166.441C271.965 166.158 271.807 165.775 271.807 165.376V149.532C271.807 149.133 271.965 148.75 272.247 148.468C272.53 148.186 272.913 148.027 273.312 148.027C273.711 148.027 274.094 148.186 274.376 148.468C274.658 148.75 274.817 149.133 274.817 149.532V165.376C274.817 165.775 274.658 166.158 274.376 166.441C274.094 166.723 273.711 166.881 273.312 166.881Z" fill="#DC493A" fill-opacity="0.7"/>
<path d="M280.798 163.641C280.398 163.641 280.016 163.482 279.733 163.2C279.451 162.918 279.292 162.535 279.292 162.136V152.774C279.292 152.374 279.451 151.991 279.733 151.709C280.016 151.427 280.398 151.268 280.798 151.268C281.197 151.268 281.58 151.427 281.862 151.709C282.144 151.991 282.303 152.374 282.303 152.774V162.136C282.303 162.535 282.144 162.918 281.862 163.2C281.58 163.482 281.197 163.641 280.798 163.641Z" fill="#DC493A" fill-opacity="0.7"/>
<path d="M153.392 166.581C152.993 166.581 152.61 166.422 152.328 166.14C152.045 165.858 151.887 165.475 151.887 165.076V149.834C151.887 149.434 152.045 149.051 152.328 148.769C152.61 148.487 152.993 148.328 153.392 148.328C153.791 148.328 154.174 148.487 154.456 148.769C154.738 149.051 154.897 149.434 154.897 149.834V165.076C154.897 165.475 154.738 165.858 154.456 166.14C154.174 166.422 153.791 166.581 153.392 166.581Z" fill="#DC493A" fill-opacity="0.7"/>
<path d="M160.887 169.912C160.488 169.912 160.105 169.753 159.823 169.471C159.541 169.189 159.382 168.806 159.382 168.407V146.502C159.382 146.103 159.541 145.72 159.823 145.438C160.105 145.155 160.488 144.997 160.887 144.997C161.287 144.997 161.67 145.155 161.952 145.438C162.234 145.72 162.393 146.103 162.393 146.502V168.407C162.393 168.806 162.234 169.189 161.952 169.471C161.67 169.753 161.287 169.912 160.887 169.912Z" fill="#DC493A" fill-opacity="0.7"/>
<path d="M168.383 173.906C167.984 173.906 167.601 173.747 167.319 173.465C167.036 173.183 166.878 172.8 166.878 172.4V142.508C166.878 142.109 167.036 141.726 167.319 141.444C167.601 141.162 167.984 141.003 168.383 141.003C168.782 141.003 169.165 141.162 169.447 141.444C169.73 141.726 169.888 142.109 169.888 142.508V172.4C169.888 172.8 169.73 173.183 169.447 173.465C169.165 173.747 168.782 173.906 168.383 173.906Z" fill="#DC493A" fill-opacity="0.7"/>
<path d="M175.879 170.093C175.479 170.093 175.097 169.935 174.814 169.652C174.532 169.37 174.374 168.987 174.374 168.588V146.332C174.374 145.933 174.532 145.55 174.814 145.268C175.097 144.985 175.479 144.827 175.879 144.827C176.278 144.827 176.661 144.985 176.943 145.268C177.225 145.55 177.384 145.933 177.384 146.332V168.578C177.385 168.776 177.347 168.973 177.272 169.157C177.197 169.341 177.086 169.508 176.947 169.649C176.807 169.79 176.64 169.901 176.457 169.978C176.274 170.054 176.077 170.093 175.879 170.093Z" fill="#DC493A" fill-opacity="0.7"/>
<path d="M183.364 166.5C182.966 166.498 182.584 166.338 182.303 166.056C182.021 165.775 181.862 165.393 181.859 164.995V149.944C181.859 149.544 182.017 149.162 182.3 148.879C182.582 148.597 182.965 148.438 183.364 148.438C183.763 148.438 184.146 148.597 184.428 148.879C184.711 149.162 184.869 149.544 184.869 149.944V164.995C184.869 165.394 184.711 165.777 184.428 166.059C184.146 166.342 183.763 166.5 183.364 166.5Z" fill="#DC493A" fill-opacity="0.7"/>
<path d="M190.86 164.584C190.461 164.582 190.08 164.422 189.798 164.14C189.517 163.859 189.357 163.477 189.354 163.079V151.841C189.354 151.441 189.513 151.059 189.795 150.776C190.078 150.494 190.46 150.335 190.86 150.335C191.259 150.335 191.642 150.494 191.924 150.776C192.206 151.059 192.365 151.441 192.365 151.841V163.069C192.366 163.267 192.328 163.464 192.253 163.648C192.178 163.832 192.067 163.999 191.927 164.14C191.788 164.281 191.621 164.392 191.438 164.469C191.255 164.545 191.058 164.584 190.86 164.584Z" fill="#DC493A" fill-opacity="0.7"/>
<path d="M198.355 170.323C197.956 170.323 197.573 170.165 197.291 169.882C197.009 169.6 196.85 169.217 196.85 168.818V146.09C196.85 145.691 197.009 145.308 197.291 145.026C197.573 144.744 197.956 144.585 198.355 144.585C198.755 144.585 199.138 144.744 199.42 145.026C199.702 145.308 199.861 145.691 199.861 146.09V168.818C199.861 169.217 199.702 169.6 199.42 169.882C199.138 170.165 198.755 170.323 198.355 170.323Z" fill="#DC493A" fill-opacity="0.7"/>
<path d="M228.338 170.323C227.939 170.323 227.556 170.165 227.274 169.882C226.992 169.6 226.833 169.217 226.833 168.818V146.09C226.833 145.691 226.992 145.308 227.274 145.026C227.556 144.744 227.939 144.585 228.338 144.585C228.737 144.585 229.12 144.744 229.402 145.026C229.685 145.308 229.843 145.691 229.843 146.09V168.818C229.843 169.217 229.685 169.6 229.402 169.882C229.12 170.165 228.737 170.323 228.338 170.323Z" fill="#DC493A" fill-opacity="0.7"/>
<path d="M205.851 173.906C205.452 173.906 205.069 173.747 204.787 173.465C204.505 173.183 204.346 172.8 204.346 172.4V142.508C204.346 142.109 204.505 141.726 204.787 141.444C205.069 141.162 205.452 141.003 205.851 141.003C206.25 141.003 206.633 141.162 206.915 141.444C207.198 141.726 207.356 142.109 207.356 142.508V172.4C207.356 172.8 207.198 173.183 206.915 173.465C206.633 173.747 206.25 173.906 205.851 173.906Z" fill="#DC493A" fill-opacity="0.7"/>
<path d="M213.347 179.946C212.948 179.946 212.565 179.787 212.283 179.505C212 179.223 211.842 178.84 211.842 178.441V136.467C211.842 136.068 212 135.685 212.283 135.403C212.565 135.121 212.948 134.962 213.347 134.962C213.746 134.962 214.129 135.121 214.411 135.403C214.694 135.685 214.852 136.068 214.852 136.467V178.441C214.852 178.84 214.694 179.223 214.411 179.505C214.129 179.787 213.746 179.946 213.347 179.946Z" fill="#DC493A" fill-opacity="0.7"/>
<path d="M220.813 173.906C220.413 173.906 220.03 173.747 219.748 173.465C219.466 173.183 219.307 172.8 219.307 172.4V142.508C219.307 142.109 219.466 141.726 219.748 141.444C220.03 141.162 220.413 141.003 220.813 141.003C221.212 141.003 221.595 141.162 221.877 141.444C222.159 141.726 222.318 142.109 222.318 142.508V172.4C222.318 172.8 222.159 173.183 221.877 173.465C221.595 173.747 221.212 173.906 220.813 173.906Z" fill="#DC493A" fill-opacity="0.7"/>
<path d="M235.864 164.584C235.465 164.584 235.082 164.426 234.799 164.143C234.517 163.861 234.359 163.478 234.359 163.079V151.841C234.359 151.441 234.517 151.059 234.799 150.776C235.082 150.494 235.465 150.335 235.864 150.335C236.263 150.335 236.646 150.494 236.928 150.776C237.21 151.059 237.369 151.441 237.369 151.841V163.069C237.37 163.267 237.332 163.464 237.257 163.648C237.182 163.832 237.072 163.999 236.932 164.14C236.792 164.281 236.625 164.392 236.442 164.469C236.259 164.545 236.062 164.584 235.864 164.584Z" fill="#DC493A" fill-opacity="0.7"/>
<path d="M250.825 164.584C250.426 164.584 250.043 164.426 249.761 164.143C249.479 163.861 249.32 163.478 249.32 163.079V151.841C249.32 151.441 249.479 151.059 249.761 150.776C250.043 150.494 250.426 150.335 250.825 150.335C251.224 150.335 251.607 150.494 251.89 150.776C252.172 151.059 252.33 151.441 252.33 151.841V163.069C252.332 163.267 252.294 163.464 252.219 163.648C252.144 163.832 252.033 163.999 251.893 164.14C251.753 164.281 251.587 164.392 251.404 164.469C251.22 164.545 251.024 164.584 250.825 164.584Z" fill="#DC493A" fill-opacity="0.7"/>
<path d="M243.329 162.707C242.93 162.707 242.547 162.549 242.265 162.266C241.983 161.984 241.824 161.601 241.824 161.202V153.706C241.824 153.307 241.983 152.924 242.265 152.642C242.547 152.36 242.93 152.201 243.329 152.201C243.728 152.201 244.111 152.36 244.393 152.642C244.676 152.924 244.834 153.307 244.834 153.706V161.202C244.834 161.601 244.676 161.984 244.393 162.266C244.111 162.549 243.728 162.707 243.329 162.707Z" fill="#DC493A" fill-opacity="0.7"/>
<path d="M115.914 164.584C115.52 164.574 115.146 164.409 114.872 164.126C114.598 163.843 114.446 163.463 114.449 163.069V151.831C114.449 151.432 114.607 151.049 114.89 150.766C115.172 150.484 115.555 150.326 115.954 150.326C116.353 150.326 116.736 150.484 117.018 150.766C117.3 151.049 117.459 151.432 117.459 151.831V163.069C117.46 163.271 117.421 163.471 117.344 163.658C117.266 163.844 117.152 164.013 117.008 164.154C116.864 164.296 116.692 164.407 116.504 164.481C116.317 164.554 116.116 164.59 115.914 164.584Z" fill="#DC493A" fill-opacity="0.7"/>
<path d="M86.1216 178.07C97.8647 178.07 107.384 168.55 107.384 156.807C107.384 145.064 97.8647 135.544 86.1216 135.544C74.3785 135.544 64.8589 145.064 64.8589 156.807C64.8589 168.55 74.3785 178.07 86.1216 178.07Z" fill="#DC493A" fill-opacity="0.7"/>
<path d="M80.4922 157.459V151.258C80.4927 150.891 80.5897 150.53 80.7735 150.212C80.9573 149.894 81.2215 149.629 81.5395 149.445C81.8576 149.262 82.2183 149.164 82.5857 149.164C82.9531 149.163 83.3142 149.259 83.6329 149.442L89.0013 152.542L94.3797 155.643C94.6987 155.826 94.9638 156.089 95.1482 156.407C95.3325 156.726 95.4296 157.087 95.4296 157.454C95.4296 157.822 95.3325 158.183 95.1482 158.501C94.9638 158.819 94.6987 159.083 94.3797 159.265L89.0113 162.366L83.643 165.467C83.3243 165.649 82.9632 165.745 82.5958 165.745C82.2284 165.744 81.8676 165.647 81.5495 165.463C81.2315 165.279 80.9673 165.015 80.7835 164.697C80.5997 164.379 80.5027 164.018 80.5022 163.65L80.4922 157.459Z" fill="white"/>
<path d="M282.624 302.214H98.3237C81.7481 302.214 68.311 315.651 68.311 332.226V335.417C68.311 351.993 81.7481 365.43 98.3237 365.43H282.624C299.199 365.43 312.637 351.993 312.637 335.417V332.226C312.637 315.651 299.199 302.214 282.624 302.214Z" fill="#FAFAFA"/>
<path d="M282.624 365.932H98.3335C90.2421 365.924 82.4842 362.707 76.7618 356.986C71.0394 351.265 67.8197 343.509 67.8091 335.417V332.226C67.8197 324.135 71.0394 316.378 76.7618 310.658C82.4842 304.937 90.2421 301.72 98.3335 301.712H282.624C290.712 301.723 298.467 304.941 304.185 310.662C309.904 316.382 313.12 324.138 313.128 332.226V335.417C313.12 343.506 309.904 351.261 304.185 356.982C298.467 362.702 290.712 365.921 282.624 365.932ZM98.3335 302.716C90.5082 302.723 83.0056 305.835 77.4713 311.367C71.9371 316.9 68.8231 324.401 68.8125 332.226V335.417C68.8231 343.243 71.9371 350.744 77.4713 356.277C83.0056 361.809 90.5082 364.92 98.3335 364.928H282.624C290.446 364.918 297.945 361.805 303.476 356.272C309.006 350.74 312.117 343.24 312.125 335.417V332.226C312.114 324.403 309.001 316.903 303.469 311.371C297.937 305.839 290.437 302.726 282.614 302.716H98.3335Z" fill="#ADB3B6"/>
<path d="M143.458 347.369C143.059 347.369 142.676 347.21 142.393 346.928C142.111 346.645 141.953 346.263 141.953 345.863V322.784C141.953 322.385 142.111 322.002 142.393 321.72C142.676 321.438 143.059 321.279 143.458 321.279C143.857 321.279 144.24 321.438 144.522 321.72C144.804 322.002 144.963 322.385 144.963 322.784V345.863C144.963 346.263 144.804 346.645 144.522 346.928C144.24 347.21 143.857 347.369 143.458 347.369Z" fill="#DC493A" fill-opacity="0.7"/>
<path d="M135.962 343.767C135.563 343.767 135.18 343.608 134.898 343.326C134.616 343.044 134.457 342.661 134.457 342.262V326.427C134.457 326.028 134.616 325.645 134.898 325.363C135.18 325.081 135.563 324.922 135.962 324.922C136.361 324.922 136.744 325.081 137.026 325.363C137.309 325.645 137.467 326.028 137.467 326.427V342.262C137.467 342.661 137.309 343.044 137.026 343.326C136.744 343.608 136.361 343.767 135.962 343.767Z" fill="#DC493A" fill-opacity="0.7"/>
<path d="M150.953 343.767C150.554 343.767 150.171 343.608 149.889 343.326C149.607 343.044 149.448 342.661 149.448 342.262V326.427C149.448 326.028 149.607 325.645 149.889 325.363C150.171 325.081 150.554 324.922 150.953 324.922C151.353 324.922 151.735 325.081 152.018 325.363C152.3 325.645 152.459 326.028 152.459 326.427V342.262C152.459 342.661 152.3 343.044 152.018 343.326C151.735 343.608 151.353 343.767 150.953 343.767Z" fill="#DC493A" fill-opacity="0.7"/>
<path d="M158.439 340.536C158.04 340.533 157.659 340.374 157.377 340.092C157.096 339.81 156.936 339.429 156.934 339.03V329.638C156.934 329.239 157.092 328.856 157.374 328.574C157.657 328.292 158.04 328.133 158.439 328.133C158.838 328.133 159.221 328.292 159.503 328.574C159.785 328.856 159.944 329.239 159.944 329.638V339.01C159.947 339.21 159.91 339.408 159.835 339.593C159.761 339.777 159.65 339.946 159.51 340.088C159.37 340.23 159.203 340.342 159.019 340.419C158.835 340.496 158.638 340.536 158.439 340.536Z" fill="#DC493A" fill-opacity="0.7"/>
<path d="M278.359 347.369C277.96 347.369 277.577 347.21 277.295 346.928C277.012 346.645 276.854 346.263 276.854 345.863V322.784C276.854 322.385 277.012 322.002 277.295 321.72C277.577 321.438 277.96 321.279 278.359 321.279C278.758 321.279 279.141 321.438 279.423 321.72C279.705 322.002 279.864 322.385 279.864 322.784V345.863C279.864 346.263 279.705 346.645 279.423 346.928C279.141 347.21 278.758 347.369 278.359 347.369Z" fill="#E4E3E3"/>
<path d="M270.863 343.767C270.464 343.767 270.081 343.608 269.799 343.326C269.517 343.044 269.358 342.661 269.358 342.262V326.427C269.358 326.028 269.517 325.645 269.799 325.363C270.081 325.081 270.464 324.922 270.863 324.922C271.262 324.922 271.645 325.081 271.928 325.363C272.21 325.645 272.368 326.028 272.368 326.427V342.262C272.368 342.661 272.21 343.044 271.928 343.326C271.645 343.608 271.262 343.767 270.863 343.767Z" fill="#E4E3E3"/>
<path d="M285.855 343.767C285.455 343.767 285.072 343.608 284.79 343.326C284.508 343.044 284.349 342.661 284.349 342.262V326.427C284.349 326.028 284.508 325.645 284.79 325.363C285.072 325.081 285.455 324.922 285.855 324.922C286.254 324.922 286.637 325.081 286.919 325.363C287.201 325.645 287.36 326.028 287.36 326.427V342.262C287.36 342.661 287.201 343.044 286.919 343.326C286.637 343.608 286.254 343.767 285.855 343.767Z" fill="#E4E3E3"/>
<path d="M293.35 340.536C292.951 340.536 292.568 340.377 292.286 340.095C292.004 339.812 291.845 339.43 291.845 339.03V329.638C291.845 329.239 292.004 328.856 292.286 328.574C292.568 328.292 292.951 328.133 293.35 328.133C293.75 328.133 294.132 328.292 294.415 328.574C294.697 328.856 294.856 329.239 294.856 329.638V339.01C294.858 339.21 294.821 339.408 294.747 339.593C294.672 339.777 294.562 339.946 294.422 340.088C294.282 340.23 294.115 340.342 293.931 340.419C293.747 340.496 293.55 340.536 293.35 340.536Z" fill="#E4E3E3"/>
<path d="M165.935 343.465C165.536 343.465 165.153 343.307 164.871 343.024C164.588 342.742 164.43 342.359 164.43 341.96V326.728C164.43 326.329 164.588 325.946 164.871 325.664C165.153 325.381 165.536 325.223 165.935 325.223C166.334 325.223 166.717 325.381 166.999 325.664C167.281 325.946 167.44 326.329 167.44 326.728V341.96C167.44 342.359 167.281 342.742 166.999 343.024C166.717 343.307 166.334 343.465 165.935 343.465Z" fill="#DC493A" fill-opacity="0.7"/>
<path d="M173.43 346.797C173.031 346.797 172.648 346.639 172.366 346.356C172.084 346.074 171.925 345.691 171.925 345.292V323.397C171.925 322.998 172.084 322.615 172.366 322.333C172.648 322.051 173.031 321.892 173.43 321.892C173.83 321.892 174.212 322.051 174.495 322.333C174.777 322.615 174.936 322.998 174.936 323.397V345.292C174.936 345.691 174.777 346.074 174.495 346.356C174.212 346.639 173.83 346.797 173.43 346.797Z" fill="#DC493A" fill-opacity="0.7"/>
<path d="M180.926 350.791C180.527 350.791 180.144 350.632 179.862 350.35C179.579 350.068 179.421 349.685 179.421 349.286V319.404C179.421 319.004 179.579 318.622 179.862 318.339C180.144 318.057 180.527 317.898 180.926 317.898C181.325 317.898 181.708 318.057 181.99 318.339C182.273 318.622 182.431 319.004 182.431 319.404V349.286C182.431 349.685 182.273 350.068 181.99 350.35C181.708 350.632 181.325 350.791 180.926 350.791Z" fill="#DC493A" fill-opacity="0.7"/>
<path d="M188.422 346.967C188.022 346.967 187.64 346.809 187.357 346.527C187.075 346.244 186.917 345.862 186.917 345.462V323.226C186.917 322.827 187.075 322.444 187.357 322.162C187.64 321.88 188.022 321.721 188.422 321.721C188.821 321.721 189.204 321.88 189.486 322.162C189.768 322.444 189.927 322.827 189.927 323.226V345.462C189.927 345.862 189.768 346.244 189.486 346.527C189.204 346.809 188.821 346.967 188.422 346.967Z" fill="#E4E3E3"/>
<path d="M195.917 343.386C195.518 343.386 195.135 343.227 194.853 342.945C194.571 342.662 194.412 342.28 194.412 341.88V326.829C194.412 326.43 194.571 326.047 194.853 325.765C195.135 325.482 195.518 325.324 195.917 325.324C196.316 325.324 196.699 325.482 196.982 325.765C197.264 326.047 197.422 326.43 197.422 326.829V341.88C197.422 342.28 197.264 342.662 196.982 342.945C196.699 343.227 196.316 343.386 195.917 343.386Z" fill="#E4E3E3"/>
<path d="M203.413 341.469C203.014 341.469 202.631 341.31 202.349 341.028C202.066 340.746 201.908 340.363 201.908 339.964V328.725C201.908 328.326 202.066 327.943 202.349 327.661C202.631 327.379 203.014 327.22 203.413 327.22C203.812 327.22 204.195 327.379 204.477 327.661C204.759 327.943 204.918 328.326 204.918 328.725V339.964C204.918 340.363 204.759 340.746 204.477 341.028C204.195 341.31 203.812 341.469 203.413 341.469Z" fill="#E4E3E3"/>
<path d="M210.909 347.219C210.51 347.219 210.127 347.06 209.844 346.778C209.562 346.496 209.404 346.113 209.404 345.714V322.976C209.404 322.577 209.562 322.194 209.844 321.912C210.127 321.629 210.51 321.471 210.909 321.471C211.308 321.471 211.691 321.629 211.973 321.912C212.255 322.194 212.414 322.577 212.414 322.976V345.694C212.417 345.893 212.38 346.091 212.305 346.276C212.231 346.461 212.12 346.629 211.98 346.771C211.84 346.913 211.673 347.025 211.489 347.102C211.305 347.179 211.108 347.219 210.909 347.219Z" fill="#E4E3E3"/>
<path d="M240.881 347.219C240.482 347.219 240.099 347.06 239.817 346.778C239.535 346.496 239.376 346.113 239.376 345.714V322.976C239.376 322.577 239.535 322.194 239.817 321.912C240.099 321.629 240.482 321.471 240.881 321.471C241.28 321.471 241.663 321.629 241.945 321.912C242.228 322.194 242.386 322.577 242.386 322.976V345.694C242.389 345.893 242.352 346.091 242.277 346.276C242.203 346.461 242.093 346.629 241.953 346.771C241.813 346.913 241.646 347.025 241.462 347.102C241.278 347.179 241.08 347.219 240.881 347.219Z" fill="#E4E3E3"/>
<path d="M218.404 350.791C218.005 350.791 217.622 350.632 217.34 350.35C217.057 350.068 216.899 349.685 216.899 349.286V319.404C216.899 319.004 217.057 318.622 217.34 318.339C217.622 318.057 218.005 317.898 218.404 317.898C218.803 317.898 219.186 318.057 219.468 318.339C219.75 318.622 219.909 319.004 219.909 319.404V349.286C219.909 349.685 219.75 350.068 219.468 350.35C219.186 350.632 218.803 350.791 218.404 350.791Z" fill="#E4E3E3"/>
<path d="M225.9 356.842C225.501 356.842 225.118 356.683 224.836 356.401C224.553 356.118 224.395 355.736 224.395 355.336V313.353C224.395 312.954 224.553 312.571 224.836 312.289C225.118 312.006 225.501 311.848 225.9 311.848C226.299 311.848 226.682 312.006 226.964 312.289C227.246 312.571 227.405 312.954 227.405 313.353V355.336C227.405 355.736 227.246 356.118 226.964 356.401C226.682 356.683 226.299 356.842 225.9 356.842Z" fill="#E4E3E3"/>
<path d="M233.395 350.791C232.996 350.791 232.613 350.632 232.331 350.35C232.049 350.068 231.89 349.685 231.89 349.286V319.404C231.89 319.004 232.049 318.622 232.331 318.339C232.613 318.057 232.996 317.898 233.395 317.898C233.794 317.898 234.177 318.057 234.46 318.339C234.742 318.622 234.9 319.004 234.9 319.404V349.286C234.9 349.685 234.742 350.068 234.46 350.35C234.177 350.632 233.794 350.791 233.395 350.791Z" fill="#E4E3E3"/>
<path d="M248.386 341.469C247.987 341.469 247.604 341.31 247.322 341.028C247.04 340.746 246.881 340.363 246.881 339.964V328.725C246.881 328.326 247.04 327.943 247.322 327.661C247.604 327.379 247.987 327.22 248.386 327.22C248.786 327.22 249.169 327.379 249.451 327.661C249.733 327.943 249.892 328.326 249.892 328.725V339.964C249.892 340.363 249.733 340.746 249.451 341.028C249.169 341.31 248.786 341.469 248.386 341.469Z" fill="#E4E3E3"/>
<path d="M263.368 341.469C262.969 341.469 262.586 341.31 262.304 341.028C262.021 340.746 261.863 340.363 261.863 339.964V328.725C261.863 328.326 262.021 327.943 262.304 327.661C262.586 327.379 262.969 327.22 263.368 327.22C263.767 327.22 264.15 327.379 264.432 327.661C264.715 327.943 264.873 328.326 264.873 328.725V339.964C264.873 340.363 264.715 340.746 264.432 341.028C264.15 341.31 263.767 341.469 263.368 341.469Z" fill="#E4E3E3"/>
<path d="M255.872 339.592C255.473 339.592 255.09 339.434 254.808 339.152C254.526 338.869 254.367 338.487 254.367 338.087V330.642C254.367 330.243 254.526 329.86 254.808 329.578C255.09 329.295 255.473 329.137 255.872 329.137C256.272 329.137 256.654 329.295 256.937 329.578C257.219 329.86 257.377 330.243 257.377 330.642V338.127C257.367 338.52 257.204 338.892 256.923 339.166C256.642 339.44 256.265 339.593 255.872 339.592Z" fill="#E4E3E3"/>
<path d="M128.496 341.469C128.097 341.469 127.714 341.31 127.432 341.028C127.15 340.746 126.991 340.363 126.991 339.964V328.725C126.991 328.326 127.15 327.943 127.432 327.661C127.714 327.379 128.097 327.22 128.496 327.22C128.896 327.22 129.278 327.379 129.561 327.661C129.843 327.943 130.002 328.326 130.002 328.725V339.964C130.002 340.363 129.843 340.746 129.561 341.028C129.278 341.31 128.896 341.469 128.496 341.469Z" fill="#DC493A" fill-opacity="0.7"/>
<path d="M119.32 338.711C122.103 327.302 115.111 315.798 103.702 313.015C92.2936 310.231 80.7889 317.224 78.0057 328.632C75.2225 340.04 82.2147 351.545 93.6232 354.328C105.032 357.112 116.536 350.119 119.32 338.711Z" fill="#DC493A" fill-opacity="0.7"/>
<path d="M93.0455 334.345V328.154C93.0429 327.785 93.138 327.422 93.321 327.102C93.5041 326.782 93.7686 326.517 94.0877 326.332C94.4068 326.148 94.769 326.051 95.1376 326.052C95.5062 326.053 95.868 326.151 96.1862 326.337L101.555 329.428L106.913 332.529C107.232 332.713 107.496 332.977 107.68 333.296C107.865 333.615 107.961 333.977 107.961 334.345C107.961 334.713 107.865 335.075 107.68 335.393C107.496 335.712 107.232 335.977 106.913 336.161L101.555 339.262L96.1862 342.352C95.868 342.538 95.5062 342.637 95.1376 342.638C94.769 342.638 94.4068 342.542 94.0877 342.357C93.7686 342.173 93.5041 341.907 93.321 341.587C93.138 341.267 93.0429 340.904 93.0455 340.536V334.345Z" fill="white"/>
<path d="M348.489 217.104H164.189C147.613 217.104 134.176 230.541 134.176 247.116V250.307C134.176 266.883 147.613 280.32 164.189 280.32H348.489C365.065 280.32 378.502 266.883 378.502 250.307V247.116C378.502 230.541 365.065 217.104 348.489 217.104Z" fill="#FAFAFA"/>
<path d="M348.479 280.822H164.189C156.098 280.814 148.341 277.596 142.621 271.875C136.9 266.155 133.682 258.398 133.674 250.307V247.116C133.682 239.026 136.9 231.269 142.621 225.548C148.341 219.827 156.098 216.61 164.189 216.602H348.479C356.57 216.61 364.328 219.827 370.05 225.548C375.773 231.268 378.993 239.025 379.003 247.116V250.307C378.993 258.399 375.773 266.155 370.05 271.876C364.328 277.596 356.57 280.814 348.479 280.822ZM164.189 217.605C156.365 217.616 148.865 220.729 143.333 226.261C137.801 231.793 134.688 239.293 134.678 247.116V250.307C134.686 258.132 137.797 265.633 143.33 271.166C148.863 276.698 156.364 279.81 164.189 279.818H348.479C356.304 279.81 363.807 276.699 369.341 271.166C374.875 265.634 377.989 258.132 378 250.307V247.116C377.989 239.291 374.875 231.79 369.341 226.257C363.807 220.725 356.304 217.613 348.479 217.605H164.189Z" fill="#ADB3B6"/>
<path d="M173.195 268.028C183.915 263.233 188.717 250.656 183.922 239.937C179.127 229.217 166.55 224.415 155.831 229.21C145.111 234.005 140.309 246.582 145.104 257.301C149.899 268.021 162.476 272.823 173.195 268.028Z" fill="#455A64"/>
<path d="M158.901 249.233V243.042C158.898 242.673 158.993 242.31 159.176 241.991C159.359 241.671 159.624 241.405 159.943 241.22C160.262 241.036 160.624 240.939 160.993 240.94C161.361 240.941 161.723 241.039 162.041 241.226L167.41 244.316L172.768 247.417C173.087 247.601 173.352 247.865 173.536 248.184C173.72 248.503 173.817 248.865 173.817 249.233C173.817 249.601 173.72 249.963 173.536 250.281C173.352 250.6 173.087 250.865 172.768 251.049L167.41 254.14L162.041 257.24C161.72 257.428 161.355 257.527 160.983 257.526C160.611 257.525 160.245 257.425 159.925 257.236C159.605 257.046 159.341 256.775 159.161 256.449C158.981 256.124 158.891 255.756 158.901 255.384V249.233Z" fill="white"/>
<path d="M209.102 262.77C208.703 262.77 208.32 262.611 208.038 262.329C207.756 262.047 207.597 261.664 207.597 261.265V237.182C207.597 236.783 207.756 236.4 208.038 236.118C208.32 235.836 208.703 235.677 209.102 235.677C209.502 235.677 209.884 235.836 210.167 236.118C210.449 236.4 210.607 236.783 210.607 237.182V261.265C210.607 261.664 210.449 262.047 210.167 262.329C209.884 262.611 209.502 262.77 209.102 262.77Z" fill="#455A64"/>
<path d="M201.195 259.007C200.796 259.007 200.413 258.848 200.131 258.566C199.849 258.283 199.69 257.901 199.69 257.501V240.965C199.69 240.566 199.849 240.183 200.131 239.901C200.413 239.618 200.796 239.46 201.195 239.46C201.595 239.46 201.977 239.618 202.26 239.901C202.542 240.183 202.7 240.566 202.7 240.965V257.501C202.7 257.901 202.542 258.283 202.26 258.566C201.977 258.848 201.595 259.007 201.195 259.007Z" fill="#455A64"/>
<path d="M303.947 262.77C303.547 262.77 303.165 262.611 302.882 262.329C302.6 262.047 302.441 261.664 302.441 261.265V237.182C302.441 236.783 302.6 236.4 302.882 236.118C303.165 235.836 303.547 235.677 303.947 235.677C304.346 235.677 304.729 235.836 305.011 236.118C305.293 236.4 305.452 236.783 305.452 237.182V261.265C305.449 261.663 305.29 262.044 305.008 262.326C304.726 262.608 304.345 262.767 303.947 262.77Z" fill="#455A64"/>
<path d="M296.07 259.007C295.671 259.007 295.288 258.848 295.006 258.566C294.723 258.283 294.565 257.901 294.565 257.501V240.965C294.565 240.566 294.723 240.183 295.006 239.901C295.288 239.618 295.671 239.46 296.07 239.46C296.469 239.46 296.852 239.618 297.134 239.901C297.416 240.183 297.575 240.566 297.575 240.965V257.501C297.575 257.901 297.416 258.283 297.134 258.566C296.852 258.848 296.469 259.007 296.07 259.007Z" fill="#455A64"/>
<path d="M311.844 259.007C311.445 259.007 311.062 258.848 310.779 258.566C310.497 258.283 310.339 257.901 310.339 257.501V240.965C310.339 240.566 310.497 240.183 310.779 239.901C311.062 239.618 311.445 239.46 311.844 239.46C312.243 239.46 312.626 239.618 312.908 239.901C313.19 240.183 313.349 240.566 313.349 240.965V257.501C313.349 257.901 313.19 258.283 312.908 258.566C312.626 258.848 312.243 259.007 311.844 259.007Z" fill="#455A64"/>
<path d="M319.751 255.625C319.352 255.625 318.969 255.467 318.686 255.184C318.404 254.902 318.246 254.519 318.246 254.12V244.347C318.246 243.948 318.404 243.565 318.686 243.282C318.969 243 319.352 242.842 319.751 242.842C320.15 242.842 320.533 243 320.815 243.282C321.097 243.565 321.256 243.948 321.256 244.347V254.12C321.256 254.519 321.097 254.902 320.815 255.184C320.533 255.467 320.15 255.625 319.751 255.625Z" fill="#455A64"/>
<path d="M335.334 262.77C334.935 262.77 334.552 262.611 334.269 262.329C333.987 262.047 333.829 261.664 333.829 261.265V237.182C333.829 236.783 333.987 236.4 334.269 236.118C334.552 235.836 334.935 235.677 335.334 235.677C335.733 235.677 336.116 235.836 336.398 236.118C336.68 236.4 336.839 236.783 336.839 237.182V261.265C336.839 261.664 336.68 262.047 336.398 262.329C336.116 262.611 335.733 262.77 335.334 262.77Z" fill="#455A64"/>
<path d="M327.437 259.007C327.038 259.007 326.655 258.848 326.373 258.566C326.09 258.283 325.932 257.901 325.932 257.501V240.965C325.932 240.566 326.09 240.183 326.373 239.901C326.655 239.618 327.038 239.46 327.437 239.46C327.836 239.46 328.219 239.618 328.501 239.901C328.784 240.183 328.942 240.566 328.942 240.965V257.501C328.94 257.9 328.78 258.281 328.498 258.563C328.217 258.844 327.835 259.004 327.437 259.007Z" fill="#455A64"/>
<path d="M343.231 259.007C342.832 259.007 342.449 258.848 342.167 258.566C341.884 258.283 341.726 257.901 341.726 257.501V240.965C341.726 240.566 341.884 240.183 342.167 239.901C342.449 239.618 342.832 239.46 343.231 239.46C343.63 239.46 344.013 239.618 344.295 239.901C344.578 240.183 344.736 240.566 344.736 240.965V257.501C344.736 257.901 344.578 258.283 344.295 258.566C344.013 258.848 343.63 259.007 343.231 259.007Z" fill="#455A64"/>
<path d="M351.138 255.625C350.739 255.625 350.356 255.467 350.074 255.184C349.792 254.902 349.633 254.519 349.633 254.12V244.347C349.633 243.948 349.792 243.565 350.074 243.282C350.356 243 350.739 242.842 351.138 242.842C351.537 242.842 351.92 243 352.203 243.282C352.485 243.565 352.643 243.948 352.643 244.347V254.12C352.643 254.519 352.485 254.902 352.203 255.184C351.92 255.467 351.537 255.625 351.138 255.625Z" fill="#455A64"/>
<path d="M358.282 254.26C357.883 254.26 357.5 254.101 357.218 253.819C356.936 253.537 356.777 253.154 356.777 252.755V247.356C356.777 246.957 356.936 246.574 357.218 246.292C357.5 246.01 357.883 245.851 358.282 245.851C358.681 245.851 359.064 246.01 359.347 246.292C359.629 246.574 359.787 246.957 359.787 247.356V252.775C359.782 253.171 359.621 253.548 359.34 253.826C359.058 254.104 358.678 254.26 358.282 254.26Z" fill="#455A64"/>
<path d="M240.71 262.599C240.311 262.599 239.928 262.441 239.646 262.158C239.364 261.876 239.205 261.493 239.205 261.094V237.323C239.205 236.924 239.364 236.541 239.646 236.258C239.928 235.976 240.311 235.818 240.71 235.818C241.109 235.818 241.492 235.976 241.775 236.258C242.057 236.541 242.215 236.924 242.215 237.323V261.054C242.221 261.255 242.186 261.455 242.113 261.642C242.039 261.83 241.929 262 241.789 262.144C241.649 262.288 241.481 262.403 241.296 262.481C241.11 262.559 240.911 262.599 240.71 262.599Z" fill="#455A64"/>
<path d="M217.01 266.332C216.61 266.332 216.228 266.173 215.945 265.891C215.663 265.608 215.504 265.226 215.504 264.826V233.63C215.504 233.231 215.663 232.848 215.945 232.565C216.228 232.283 216.61 232.125 217.01 232.125C217.409 232.125 217.792 232.283 218.074 232.565C218.356 232.848 218.515 233.231 218.515 233.63V264.826C218.515 265.024 218.476 265.22 218.4 265.402C218.324 265.585 218.214 265.751 218.074 265.891C217.934 266.031 217.768 266.141 217.586 266.217C217.403 266.293 217.207 266.332 217.01 266.332Z" fill="#455A64"/>
<path d="M224.906 272.643C224.507 272.643 224.124 272.485 223.842 272.203C223.56 271.92 223.401 271.537 223.401 271.138V227.288C223.401 226.889 223.56 226.506 223.842 226.224C224.124 225.942 224.507 225.783 224.906 225.783C225.305 225.783 225.688 225.942 225.971 226.224C226.253 226.506 226.411 226.889 226.411 227.288V271.138C226.411 271.537 226.253 271.92 225.971 272.203C225.688 272.485 225.305 272.643 224.906 272.643Z" fill="#455A64"/>
<path d="M232.854 266.332C232.454 266.332 232.071 266.173 231.789 265.891C231.507 265.608 231.348 265.226 231.348 264.826V233.63C231.348 233.231 231.507 232.848 231.789 232.565C232.071 232.283 232.454 232.125 232.854 232.125C233.253 232.125 233.636 232.283 233.918 232.565C234.2 232.848 234.359 233.231 234.359 233.63V264.826C234.359 265.024 234.32 265.22 234.244 265.402C234.168 265.585 234.058 265.751 233.918 265.891C233.778 266.031 233.612 266.141 233.43 266.217C233.247 266.293 233.051 266.332 232.854 266.332Z" fill="#455A64"/>
<path d="M256.524 262.77C256.125 262.77 255.742 262.611 255.46 262.329C255.178 262.047 255.019 261.664 255.019 261.265V237.182C255.019 236.783 255.178 236.4 255.46 236.118C255.742 235.836 256.125 235.677 256.524 235.677C256.924 235.677 257.306 235.836 257.589 236.118C257.871 236.4 258.03 236.783 258.03 237.182V261.265C258.03 261.664 257.871 262.047 257.589 262.329C257.306 262.611 256.924 262.77 256.524 262.77Z" fill="#455A64"/>
<path d="M248.617 259.007C248.218 259.007 247.835 258.848 247.553 258.566C247.271 258.283 247.112 257.901 247.112 257.501V240.965C247.112 240.566 247.271 240.183 247.553 239.901C247.835 239.618 248.218 239.46 248.617 239.46C249.016 239.46 249.399 239.618 249.682 239.901C249.964 240.183 250.122 240.566 250.122 240.965V257.501C250.122 257.901 249.964 258.283 249.682 258.566C249.399 258.848 249.016 259.007 248.617 259.007Z" fill="#455A64"/>
<path d="M288.133 262.599C287.733 262.599 287.351 262.441 287.068 262.158C286.786 261.876 286.627 261.493 286.627 261.094V237.323C286.627 236.924 286.786 236.541 287.068 236.258C287.351 235.976 287.733 235.818 288.133 235.818C288.532 235.818 288.915 235.976 289.197 236.258C289.479 236.541 289.638 236.924 289.638 237.323V261.054C289.643 261.255 289.608 261.455 289.535 261.642C289.462 261.83 289.352 262 289.211 262.144C289.071 262.288 288.903 262.403 288.718 262.481C288.533 262.559 288.334 262.599 288.133 262.599Z" fill="#455A64"/>
<path d="M264.421 266.332C264.022 266.332 263.639 266.173 263.357 265.891C263.075 265.608 262.916 265.226 262.916 264.826V233.63C262.916 233.231 263.075 232.848 263.357 232.565C263.639 232.283 264.022 232.125 264.421 232.125C264.82 232.125 265.203 232.283 265.485 232.565C265.768 232.848 265.926 233.231 265.926 233.63V264.826C265.926 265.024 265.887 265.22 265.812 265.402C265.736 265.585 265.625 265.751 265.485 265.891C265.346 266.031 265.18 266.141 264.997 266.217C264.815 266.293 264.619 266.332 264.421 266.332Z" fill="#455A64"/>
<path d="M272.328 272.643C271.929 272.643 271.546 272.485 271.264 272.203C270.982 271.92 270.823 271.537 270.823 271.138V227.288C270.823 226.889 270.982 226.506 271.264 226.224C271.546 225.942 271.929 225.783 272.328 225.783C272.728 225.783 273.11 225.942 273.393 226.224C273.675 226.506 273.834 226.889 273.834 227.288V271.138C273.834 271.537 273.675 271.92 273.393 272.203C273.11 272.485 272.728 272.643 272.328 272.643Z" fill="#455A64"/>
<path d="M280.235 266.332C279.836 266.332 279.453 266.173 279.171 265.891C278.889 265.608 278.73 265.226 278.73 264.826V233.63C278.73 233.231 278.889 232.848 279.171 232.565C279.453 232.283 279.836 232.125 280.235 232.125C280.635 232.125 281.017 232.283 281.3 232.565C281.582 232.848 281.741 233.231 281.741 233.63V264.826C281.741 265.024 281.702 265.22 281.626 265.402C281.55 265.585 281.439 265.751 281.3 265.891C281.16 266.031 280.994 266.141 280.811 266.217C280.629 266.293 280.433 266.332 280.235 266.332Z" fill="#455A64"/>
<path d="M193.298 256.609C192.899 256.609 192.516 256.45 192.234 256.168C191.952 255.885 191.793 255.503 191.793 255.103V243.343C191.793 242.944 191.952 242.561 192.234 242.279C192.516 241.997 192.899 241.838 193.298 241.838C193.697 241.838 194.08 241.997 194.362 242.279C194.645 242.561 194.803 242.944 194.803 243.343V255.083C194.806 255.283 194.769 255.481 194.695 255.665C194.62 255.85 194.51 256.019 194.37 256.161C194.23 256.303 194.063 256.415 193.879 256.492C193.695 256.569 193.497 256.609 193.298 256.609Z" fill="#455A64"/>
</svg>
