<svg width="360" height="227" viewBox="0 0 360 227" fill="none" xmlns="http://www.w3.org/2000/svg">
<ellipse cx="178.945" cy="157.547" rx="223.945" ry="121.794" fill="#EBEBEB"/>
<ellipse cx="181.695" cy="195.264" rx="223.945" ry="121.794" fill="#DFDFDF"/>
<path d="M111.706 74.2563C111.346 74.2563 111.055 70.475 111.055 65.8083C111.055 61.1417 111.346 57.3604 111.706 57.3604C112.066 57.3604 112.361 61.1417 112.361 65.8083C112.361 70.475 112.066 74.2563 111.706 74.2563Z" fill="#E0E0E0"/>
<path d="M107.049 69.5946C106.689 69.5946 106.399 67.794 106.399 65.5932C106.399 63.3924 106.689 61.5918 107.049 61.5918C107.409 61.5918 107.699 63.3924 107.699 65.5932C107.699 67.794 107.409 69.5946 107.049 69.5946Z" fill="#E0E0E0"/>
<path d="M102.372 68.2941C102.017 68.2941 101.677 67.3838 101.622 66.2183C101.567 65.0529 101.812 64.1026 102.167 64.0826C102.523 64.0626 102.868 64.9929 102.923 66.1583C102.978 67.3237 102.733 68.2741 102.372 68.2941Z" fill="#E0E0E0"/>
<path d="M116.572 70.1594C116.212 70.1594 115.967 67.9987 116.017 65.3427C116.067 62.6868 116.402 60.5411 116.762 60.5511C117.123 60.5611 117.373 62.7118 117.318 65.3678C117.263 68.0237 116.933 70.1694 116.572 70.1594Z" fill="#E0E0E0"/>
<path d="M121.864 68.394C121.504 68.394 121.209 67.4536 121.209 66.2932C121.209 65.1328 121.504 64.1875 121.864 64.1875C122.224 64.1875 122.514 65.1278 122.514 66.2932C122.514 67.4586 122.224 68.394 121.864 68.394Z" fill="#E0E0E0"/>
<path d="M128.436 66.2934C128.436 66.2934 128.436 66.1984 128.436 66.0234C128.436 65.8483 128.406 65.5682 128.381 65.2281C128.381 65.053 128.381 64.8579 128.346 64.6429C128.311 64.4278 128.276 64.1977 128.241 63.9426C128.167 63.3613 128.05 62.7862 127.891 62.222C127.502 60.6574 126.876 59.1613 126.036 57.7855C124.82 55.7636 123.191 54.0215 121.255 52.6733C119.319 51.3252 117.12 50.4015 114.802 49.9627C114.107 49.8366 113.406 49.7564 112.701 49.7226C112.341 49.7226 111.981 49.6726 111.616 49.6826L110.515 49.7376C110.33 49.7376 110.145 49.7376 109.96 49.7726L109.405 49.8577C109.035 49.9227 108.66 49.9627 108.289 50.0427C107.537 50.2095 106.797 50.4268 106.074 50.693C105.33 50.9586 104.607 51.2762 103.908 51.6433C103.558 51.8334 103.223 52.0534 102.873 52.2635C102.523 52.4688 102.188 52.6995 101.872 52.9538C101.209 53.4428 100.58 53.9776 99.9915 54.5543C99.3885 55.1615 98.8286 55.8099 98.3159 56.495C97.2851 57.8816 96.4845 59.4252 95.9451 61.0666C94.8047 64.4664 94.8047 68.1455 95.9451 71.5453C96.485 73.1834 97.2856 74.7237 98.3159 76.1069C98.8143 76.7827 99.3574 77.4243 99.9415 78.0276C100.534 78.6033 101.164 79.1396 101.827 79.6331C102.146 79.8841 102.48 80.1146 102.827 80.3234C103.178 80.5285 103.513 80.7485 103.863 80.9386C104.563 81.3053 105.286 81.6244 106.029 81.8939C106.753 82.1579 107.493 82.3751 108.244 82.5442C108.615 82.6192 108.995 82.6642 109.365 82.7242L109.915 82.8093C110.1 82.8093 110.285 82.8093 110.47 82.8493L111.571 82.9043C111.936 82.9043 112.296 82.8743 112.656 82.8643C113.361 82.8316 114.063 82.7497 114.757 82.6192C117.076 82.1828 119.276 81.2601 121.212 79.9117C123.148 78.5633 124.777 76.82 125.991 74.7964C126.83 73.4218 127.456 71.9276 127.846 70.3649C128.006 69.7991 128.123 69.2224 128.196 68.6393C128.231 68.3892 128.281 68.1391 128.301 67.939C128.321 67.739 128.326 67.5339 128.336 67.3588C128.336 67.0137 128.376 66.7536 128.391 66.5635C128.406 66.3735 128.391 66.2934 128.391 66.2934C128.391 66.2934 128.391 66.3835 128.391 66.5635C128.391 66.7436 128.391 67.0187 128.391 67.3588C128.391 67.5339 128.391 67.734 128.391 67.949C128.391 68.1641 128.331 68.3942 128.296 68.6493C128.232 69.2369 128.124 69.8187 127.971 70.3899C127.595 71.9751 126.977 73.4933 126.141 74.8915C124.925 76.9421 123.287 78.7108 121.335 80.0801C119.384 81.4495 117.164 82.3883 114.822 82.8343C114.118 82.9664 113.406 83.05 112.691 83.0844C112.331 83.0844 111.966 83.1344 111.596 83.1294L110.48 83.0743C110.295 83.0743 110.105 83.0744 109.915 83.0393L109.355 82.9543C108.98 82.8943 108.6 82.8493 108.219 82.7742C107.457 82.6058 106.707 82.3869 105.974 82.119C105.22 81.848 104.484 81.5271 103.773 81.1587C103.418 80.9636 103.073 80.7385 102.722 80.5335C102.373 80.3235 102.039 80.0896 101.722 79.8332C101.05 79.3343 100.412 78.7913 99.8114 78.2076C99.216 77.5957 98.6628 76.944 98.1559 76.257C97.1072 74.8472 96.2916 73.2784 95.74 71.6103C94.5762 68.1595 94.5762 64.4223 95.74 60.9716C96.2878 59.3028 97.1019 57.7337 98.1508 56.3249C98.6578 55.6379 99.211 54.9862 99.8064 54.3743C100.407 53.7922 101.045 53.2508 101.717 52.7537C102.034 52.4973 102.368 52.2634 102.717 52.0534C103.073 51.8434 103.413 51.6183 103.768 51.4282C104.479 51.0662 105.214 50.7537 105.969 50.4929C106.702 50.225 107.452 50.0061 108.214 49.8377C108.595 49.7576 108.975 49.7176 109.35 49.6526L109.91 49.5676C110.1 49.5676 110.285 49.5676 110.475 49.5326L111.591 49.4775C111.956 49.4775 112.326 49.5125 112.686 49.5226C113.401 49.561 114.113 49.6463 114.817 49.7776C117.16 50.2256 119.381 51.1668 121.332 52.5388C123.284 53.9108 124.921 55.6822 126.136 57.7354C126.972 59.1338 127.589 60.6519 127.966 62.237C128.118 62.8066 128.227 63.3868 128.291 63.9726C128.326 64.2277 128.366 64.4728 128.386 64.6779C128.406 64.883 128.386 65.088 128.386 65.2631C128.386 65.6082 128.386 65.8733 128.386 66.0634C128.386 66.2534 128.436 66.2934 128.436 66.2934Z" fill="#E0E0E0"/>
<path d="M231.313 30.6557C230.362 30.6557 229.42 30.4683 228.541 30.1044C227.662 29.7404 226.864 29.2069 226.191 28.5344C225.519 27.8619 224.985 27.0634 224.621 26.1847C224.257 25.306 224.07 24.3642 224.07 23.4131V14.9101C224.069 13.9586 224.256 13.0163 224.62 12.137C224.984 11.2577 225.517 10.4587 226.19 9.78566C226.862 9.1126 227.661 8.57867 228.54 8.21438C229.419 7.8501 230.361 7.6626 231.313 7.6626C233.233 7.6626 235.076 8.42565 236.434 9.78389C237.792 11.1421 238.555 12.9843 238.555 14.9051V23.4081C238.556 24.3597 238.369 25.302 238.005 26.1813C237.642 27.0606 237.108 27.8596 236.436 28.5326C235.763 29.2057 234.964 29.7396 234.085 30.1039C233.206 30.4682 232.264 30.6557 231.313 30.6557Z" fill="#F5F5F5"/>
<path d="M231.313 35.0673C228.477 35.0646 225.759 33.9371 223.754 31.9322C221.749 29.9273 220.622 27.2089 220.619 24.3735H221.654C221.657 26.9343 222.675 29.3894 224.486 31.2001C226.297 33.0109 228.752 34.0293 231.313 34.0319C236.995 34.0319 240.966 30.0305 240.966 24.3735H242.006C242.006 30.6657 237.605 35.0623 231.313 35.0673Z" fill="#F5F5F5"/>
<path d="M231.828 34.5471H230.792V39.784H231.828V34.5471Z" fill="#F5F5F5"/>
<path d="M237.635 39.0337H224.991V40.0691H237.635V39.0337Z" fill="#F5F5F5"/>
<path d="M220.634 12.3994C219.981 12.309 219.349 12.1077 218.763 11.8042C217.223 11.149 216.703 10.8038 216.888 10.2636L216.958 10.0486L217.203 9.92353C217.743 9.67844 219.114 10.2436 219.379 10.3587C219.644 10.4737 221.004 11.0689 221.204 11.6291L221.279 11.8392L221.174 12.0893C221.127 12.19 221.049 12.2736 220.953 12.3291C220.856 12.3845 220.745 12.4091 220.634 12.3994Z" fill="#F5F5F5"/>
<path d="M224.77 6.97766C224.44 6.97766 223.94 6.60753 222.9 5.19703C221.664 3.51644 221.724 3.1113 221.749 2.97625L221.779 2.76618L222.144 2.47607L222.389 2.50108C222.525 2.50108 222.935 2.58611 224.165 4.2617C225.611 6.22239 225.446 6.59252 225.095 6.84761C225.004 6.92553 224.89 6.97123 224.77 6.97766Z" fill="#F5F5F5"/>
<path d="M231.153 5.01676L230.953 4.8467C230.852 4.75167 230.557 4.47157 230.577 2.49588C230.597 0.520184 230.903 0.245087 231.003 0.150053L231.173 0H231.433C231.748 0.0250088 232.183 0.060021 232.153 2.50088C232.123 4.94174 231.693 4.97675 231.378 5.00176L231.153 5.01676Z" fill="#F5F5F5"/>
<path d="M237.505 6.42224L237.29 6.25218C236.835 5.83203 237.245 5.25183 238.135 4.04641C239.025 2.84098 239.486 2.30079 240.021 2.6209L240.221 2.74095L240.291 3.01104C240.416 3.62626 239.501 4.85669 239.396 5.01174C239.291 5.1668 238.36 6.36722 237.74 6.42224H237.505Z" fill="#F5F5F5"/>
<path d="M242.191 12.3194C242.088 12.3288 241.985 12.3059 241.895 12.2539C241.805 12.202 241.734 12.1235 241.691 12.0293C241.411 11.5291 241.946 11.1239 242.191 10.9239C242.566 10.6422 242.959 10.3849 243.367 10.1536C245.287 9.06322 245.643 9.30831 245.838 9.65343C246.118 10.1536 245.583 10.5588 245.337 10.7588C244.964 11.0404 244.571 11.2961 244.162 11.5241C243.117 12.1243 242.536 12.3194 242.191 12.3194Z" fill="#F5F5F5"/>
<path d="M261.373 223.554C252.515 219.552 248.869 209.694 247.458 200.491C247.223 198.955 246.758 197.379 247.233 195.904C247.708 194.428 249.234 193.203 250.735 193.593C251.965 193.913 252.705 195.139 253.541 196.094C254.654 197.392 256.115 198.347 257.752 198.845C258.817 199.17 260.078 199.255 260.938 198.55C262.124 197.579 261.938 195.729 261.648 194.213C261.105 191.389 260.561 188.563 260.018 185.735C259.645 184.235 259.517 182.685 259.638 181.144C259.843 179.618 260.638 178.083 262.008 177.412C263.379 176.742 265.315 177.237 265.895 178.668C266.07 179.285 266.202 179.913 266.29 180.548C266.45 181.174 266.875 181.814 267.505 181.879C268.136 181.944 268.671 181.379 269.041 180.879C270.321 179.053 271.042 176.877 271.647 174.736C272.252 172.596 272.867 170.4 273.978 168.464C275.088 166.529 276.809 164.838 278.979 164.313C281.15 163.788 283.696 164.693 284.641 166.729C285.587 168.764 284.746 171.165 283.711 173.151C282.166 176.104 280.202 178.818 277.879 181.209C277.411 181.595 277.08 182.121 276.934 182.709C276.794 183.785 277.934 184.61 278.999 184.755C280.2 184.925 281.405 184.58 282.616 184.495C283.826 184.41 285.207 184.7 285.862 185.735C286.772 187.171 285.777 189.036 284.696 190.342C282.534 192.949 279.941 195.165 277.029 196.894C275.988 197.509 274.878 198.09 274.123 199.04C273.367 199.99 273.077 201.456 273.823 202.426C274.568 203.397 276.023 203.477 277.154 203.041C278.284 202.606 279.21 201.776 280.25 201.151C282.186 199.975 284.907 199.62 286.577 201.176C287.101 201.719 287.491 202.378 287.717 203.098C287.943 203.819 287.998 204.582 287.878 205.327C287.628 206.812 287.084 208.232 286.277 209.504C283.708 214.079 279.971 217.892 275.448 220.553C270.922 223.128 266.525 224.414 261.388 223.554" fill="#EBEBEB"/>
<path d="M262.154 225.219C261.813 221.533 262.184 222.253 262.684 217.391C263.279 212.129 264.178 206.905 265.375 201.746C265.68 200.375 265.985 199.015 266.285 197.679C266.585 196.344 266.89 195.024 267.26 193.748C267.983 191.302 268.84 188.898 269.826 186.546C270.757 184.29 271.717 182.189 272.627 180.228C273.538 178.268 274.438 176.457 275.318 174.841C276.698 172.286 278.279 169.844 280.045 167.539C280.665 166.724 281.17 166.108 281.515 165.693L281.916 165.223C281.958 165.168 282.007 165.117 282.061 165.073C282.022 165.132 281.98 165.189 281.936 165.243C281.845 165.363 281.72 165.528 281.56 165.743C281.23 166.168 280.74 166.799 280.13 167.624C278.405 169.949 276.857 172.4 275.498 174.956C274.628 176.572 273.748 178.383 272.842 180.343C271.937 182.304 270.987 184.41 270.066 186.661C269.092 189.007 268.245 191.405 267.53 193.843C267.16 195.114 266.865 196.424 266.56 197.759C266.255 199.095 265.96 200.45 265.65 201.826C264.46 206.975 263.56 212.187 262.954 217.436C262.454 222.278 262.049 221.543 262.364 225.214" fill="#E0E0E0"/>
<path d="M267.33 193.723C267.217 193.527 267.126 193.319 267.06 193.103C266.905 192.698 266.695 192.102 266.45 191.372C265.95 189.872 265.34 187.841 264.669 185.575C263.999 183.309 263.359 181.264 262.839 179.803C262.584 179.073 262.374 178.483 262.219 178.077C262.126 177.873 262.057 177.658 262.013 177.437C262.136 177.626 262.238 177.827 262.319 178.037C262.504 178.433 262.749 179.013 263.029 179.733C263.594 181.184 264.269 183.234 264.939 185.495C265.61 187.756 266.185 189.762 266.64 191.307C266.845 192.007 267.025 192.598 267.165 193.068C267.246 193.279 267.301 193.499 267.33 193.723Z" fill="#E0E0E0"/>
<path d="M286.167 186.45C285.922 186.555 285.667 186.635 285.407 186.691C284.906 186.826 284.201 187.021 283.326 187.291C281.575 187.816 279.179 188.626 276.579 189.637C273.978 190.647 271.662 191.667 270.006 192.453C269.181 192.838 268.506 193.168 268.056 193.393C267.826 193.527 267.583 193.638 267.33 193.723C267.541 193.56 267.767 193.418 268.006 193.298C268.451 193.038 269.101 192.678 269.921 192.267C271.557 191.437 273.868 190.382 276.474 189.366C278.699 188.494 280.968 187.736 283.271 187.096C284.151 186.851 284.876 186.686 285.382 186.595C285.638 186.523 285.901 186.475 286.167 186.45Z" fill="#E0E0E0"/>
<path d="M262.874 216.986C262.874 216.986 262.804 216.921 262.694 216.776L262.228 216.131C261.828 215.571 261.268 214.741 260.593 213.71C259.232 211.649 257.452 208.743 255.526 205.512C253.6 202.281 251.84 199.36 250.524 197.274L248.964 194.809L248.544 194.133C248.488 194.059 248.444 193.976 248.414 193.888C248.48 193.953 248.539 194.025 248.589 194.103C248.719 194.278 248.869 194.488 249.054 194.748C249.459 195.309 250.014 196.134 250.694 197.164C252.05 199.225 253.835 202.131 255.761 205.367C257.687 208.603 259.442 211.514 260.763 213.6L262.323 216.066L262.749 216.741C262.798 216.819 262.84 216.901 262.874 216.986Z" fill="#E0E0E0"/>
<path d="M287.237 203.812C287.166 203.875 287.085 203.928 286.997 203.967L286.292 204.357L283.681 205.772C281.48 206.973 278.454 208.658 275.118 210.524C271.782 212.39 268.731 214.055 266.505 215.206C265.39 215.781 264.504 216.236 263.849 216.541L263.119 216.886C263.038 216.933 262.95 216.967 262.859 216.986C262.93 216.924 263.009 216.872 263.094 216.831L263.799 216.441L266.41 215.026C268.616 213.83 271.637 212.145 274.978 210.274C278.319 208.403 281.36 206.743 283.586 205.592C284.702 205.017 285.587 204.562 286.242 204.262L286.972 203.917C287.056 203.871 287.145 203.836 287.237 203.812Z" fill="#E0E0E0"/>
<path d="M120.438 210.549C120.939 208.478 119.593 206.412 118.068 204.922C116.542 203.431 114.716 202.096 113.911 200.115C112.616 196.914 114.311 192.742 112.111 190.071C110.82 188.506 108.509 187.991 107.359 186.31C106.827 185.384 106.472 184.366 106.314 183.309C105.068 177.977 102.415 173.077 98.6308 169.119C98.4016 173.878 99.459 178.61 101.692 182.819C102.587 184.5 103.693 186.135 103.988 188.016C104.488 191.067 102.792 194.223 103.558 197.214C104.438 200.64 108.304 202.916 108.504 206.442C108.674 209.443 106.088 212.064 106.299 215.045C106.463 216.313 106.925 217.523 107.649 218.577C109.98 222.398 113.386 225.024 118.523 224.909L124.825 225.054L120.438 210.549Z" fill="#FF725E"/>
<g opacity="0.3">
<path d="M120.438 210.549C120.939 208.478 119.593 206.412 118.068 204.922C116.542 203.431 114.716 202.096 113.911 200.115C112.616 196.914 114.311 192.742 112.111 190.071C110.82 188.506 108.509 187.991 107.359 186.31C106.827 185.384 106.472 184.366 106.314 183.309C105.068 177.977 102.415 173.077 98.6308 169.119C98.4016 173.878 99.459 178.61 101.692 182.819C102.587 184.5 103.693 186.135 103.988 188.016C104.488 191.067 102.792 194.223 103.558 197.214C104.438 200.64 108.304 202.916 108.504 206.442C108.674 209.443 106.088 212.064 106.299 215.045C106.463 216.313 106.925 217.523 107.649 218.577C109.98 222.398 113.386 225.024 118.523 224.909L124.825 225.054L120.438 210.549Z" fill="black"/>
</g>
<path d="M126.09 225.229C126.09 225.229 126.246 225.229 126.531 225.229C126.965 225.223 127.398 225.181 127.826 225.104C128.509 224.984 129.178 224.799 129.827 224.554C130.718 224.226 131.548 223.751 132.283 223.149C132.713 222.794 133.046 222.336 133.253 221.818C133.428 221.224 133.515 220.607 133.513 219.988C133.513 219.299 133.553 218.611 133.633 217.927C133.749 217.182 134.009 216.466 134.398 215.821C135.149 214.476 136.339 213.245 136.694 211.55C137.049 209.854 136.774 208.048 136.459 206.138C136.144 204.227 135.829 202.136 136.559 200.081C137.289 198.025 138.605 196.249 139.245 194.103C139.885 191.958 139.56 189.577 139.685 187.146C139.723 185.896 140.002 184.665 140.506 183.52C141.006 182.364 141.726 181.309 142.251 180.164C143.312 177.868 143.497 175.222 143.782 172.576C143.922 171.25 144.062 169.905 144.207 168.549C144.291 167.164 144.521 165.791 144.892 164.453C145.313 163.109 145.814 161.791 146.393 160.507C146.68 159.872 146.912 159.215 147.088 158.541C147.186 157.844 147.248 157.143 147.273 156.44C147.332 155.007 147.268 153.571 147.083 152.149C146.903 150.713 146.633 149.273 146.468 147.802C146.468 147.717 146.468 147.627 146.438 147.547L146.723 147.707C145.448 148.367 144.342 149.312 143.492 150.468C142.653 151.618 141.98 152.879 141.491 154.214C140.491 156.87 140.11 159.676 139.59 162.397C139.07 165.118 138.405 167.834 136.989 170.155C136.284 171.305 135.454 172.336 134.739 173.411C133.99 174.433 133.478 175.609 133.238 176.852C132.873 179.353 134.343 181.674 134.053 184.19C133.905 185.396 133.503 186.557 132.873 187.596C132.288 188.626 131.612 189.567 130.982 190.502C130.345 191.397 129.791 192.348 129.327 193.343C128.901 194.31 128.651 195.345 128.586 196.399C128.436 198.475 128.741 200.491 128.586 202.436C128.41 204.28 127.875 206.07 127.011 207.708C126.241 209.269 125.395 210.669 124.685 212.02C124.336 212.67 124.02 213.338 123.74 214.02C123.488 214.647 123.305 215.3 123.194 215.966C123.003 217.137 122.983 218.33 123.134 219.507C123.289 221.152 123.887 222.723 124.865 224.054C125.229 224.496 125.639 224.897 126.09 225.249C126.09 225.249 125.965 225.174 125.73 224.999C125.58 224.9 125.441 224.784 125.315 224.654C125.134 224.484 124.967 224.3 124.815 224.104C123.794 222.779 123.161 221.196 122.989 219.532C122.815 218.342 122.815 217.132 122.989 215.941C123.098 215.257 123.279 214.586 123.53 213.94C123.811 213.258 124.126 212.59 124.475 211.94C125.175 210.579 126.015 209.174 126.766 207.623C127.598 206.01 128.108 204.25 128.266 202.441C128.411 200.536 128.096 198.525 128.266 196.404C128.326 195.314 128.582 194.243 129.021 193.243C129.489 192.223 130.049 191.247 130.692 190.327C131.322 189.387 131.993 188.451 132.558 187.441C133.162 186.443 133.547 185.328 133.688 184.17C133.978 181.809 132.498 179.478 132.858 176.817C133.097 175.519 133.623 174.29 134.398 173.221C135.119 172.121 135.949 171.095 136.634 169.97C138.005 167.714 138.675 165.048 139.175 162.342C139.675 159.636 140.055 156.8 141.091 154.089C141.592 152.715 142.286 151.418 143.151 150.238C144.038 149.031 145.192 148.047 146.523 147.362L146.778 147.232L146.808 147.522C146.808 147.597 146.808 147.687 146.838 147.772C147.003 149.228 147.273 150.663 147.453 152.114C147.641 153.558 147.704 155.015 147.643 156.47C147.619 157.195 147.556 157.918 147.453 158.636C147.271 159.335 147.032 160.017 146.738 160.677C146.16 161.946 145.659 163.249 145.237 164.578C144.873 165.895 144.647 167.246 144.562 168.609C144.419 169.963 144.275 171.297 144.132 172.611C143.842 175.242 143.662 177.933 142.556 180.309C142.011 181.484 141.311 182.539 140.806 183.66C140.315 184.764 140.043 185.953 140.005 187.161C139.875 189.542 140.21 191.948 139.535 194.193C138.86 196.439 137.489 198.195 136.824 200.196C136.159 202.196 136.409 204.222 136.709 206.108C137.009 207.993 137.334 209.884 136.914 211.61C136.494 213.335 135.299 214.611 134.563 215.931C134.19 216.551 133.94 217.237 133.828 217.952C133.744 218.627 133.699 219.307 133.693 219.988C133.689 220.625 133.593 221.258 133.408 221.868C133.183 222.409 132.83 222.886 132.378 223.259C131.626 223.859 130.781 224.332 129.877 224.659C129.212 224.902 128.525 225.078 127.826 225.184C127.255 225.301 126.667 225.317 126.09 225.229Z" fill="#263238"/>
<path d="M145.557 150.968C145.567 151.034 145.567 151.102 145.557 151.168C145.527 151.318 145.497 151.508 145.457 151.743C145.362 152.243 145.247 152.989 145.032 153.949C144.817 154.909 144.262 155.985 143.807 157.28C143.352 158.576 142.841 160.071 142.396 161.752C141.951 163.432 141.551 165.288 141.131 167.294C140.711 169.299 140.255 171.485 139.155 173.546C138.655 174.581 138.08 175.617 137.655 176.722C137.223 177.859 136.935 179.045 136.799 180.253C136.499 182.826 136.062 185.38 135.489 187.906L131.988 202.471L128.986 214.33C128.121 217.676 127.421 220.397 126.931 222.333L126.326 224.484C126.261 224.709 126.21 224.894 126.165 225.044C126.12 225.194 126.105 225.234 126.095 225.229C126.099 225.163 126.109 225.098 126.125 225.034C126.159 224.884 126.199 224.694 126.246 224.464C126.371 223.934 126.541 223.203 126.746 222.278L128.681 214.275C129.512 210.884 130.502 206.863 131.597 202.396C132.693 197.93 133.838 192.998 135.074 187.836C135.645 185.32 136.082 182.776 136.384 180.213C136.528 178.976 136.825 177.761 137.269 176.597C137.725 175.462 138.3 174.421 138.81 173.396C139.9 171.395 140.345 169.234 140.811 167.239C141.276 165.243 141.661 163.372 142.131 161.692C142.601 160.011 143.101 158.511 143.602 157.22C144.102 155.93 144.647 154.854 144.887 153.924C145.127 152.994 145.262 152.238 145.387 151.743L145.522 151.173C145.528 151.104 145.539 151.035 145.557 150.968Z" fill="#263238"/>
<path d="M127.206 225.244C131.302 222.778 132.438 215.351 130.707 210.899C128.976 206.448 125.945 202.396 125.455 197.624C125.075 193.968 126.256 190.202 125.38 186.621C124.205 181.804 119.468 178.093 119.498 173.116C119.498 170.33 121.079 167.699 120.939 164.923C120.764 161.512 118.133 158.821 116.492 155.825C113.991 151.238 113.791 145.821 112.911 140.649C112.031 135.478 110.025 130.021 105.443 127.52C104.793 131.901 103.658 134.907 104.053 140.839C104.193 142.965 106.694 147.032 107.054 151.698C107.274 154.484 107.429 157.28 107.614 160.071C107.794 162.787 107.984 165.573 108.974 168.074C109.735 170.02 110.94 171.785 111.505 173.791C112.571 177.567 111.225 181.674 112.091 185.505C112.821 188.751 115.092 191.532 115.562 194.823C116.232 199.445 113.266 204.272 114.826 208.678C115.597 210.864 117.407 212.61 117.933 214.87C118.338 216.621 117.933 218.482 118.288 220.242C118.883 223.083 124.29 225.244 127.206 225.064" fill="#FF725E"/>
<path d="M106.599 131.841C106.626 131.919 106.646 132 106.659 132.081C106.694 132.261 106.739 132.497 106.794 132.792C106.919 133.417 107.059 134.352 107.294 135.533C107.529 136.713 108.194 138.033 108.724 139.694C109.35 141.542 109.883 143.42 110.32 145.321C110.82 147.432 111.245 149.768 111.685 152.273C112.126 154.779 112.591 157.465 113.846 160.036C114.431 161.337 115.097 162.652 115.602 164.083C116.097 165.539 116.408 167.051 116.527 168.584C116.79 171.793 117.222 174.985 117.823 178.148C119.108 184.625 120.323 190.797 121.444 196.414C122.564 202.031 123.63 207.063 124.505 211.309C125.38 215.556 126.05 218.962 126.536 221.363C126.761 222.533 126.941 223.448 127.066 224.099C127.121 224.394 127.161 224.629 127.196 224.814C127.213 224.895 127.223 224.977 127.226 225.059C127.193 224.984 127.169 224.905 127.156 224.824C127.111 224.644 127.056 224.409 126.986 224.114C126.841 223.468 126.641 222.558 126.381 221.393L124.225 211.389C123.33 207.143 122.264 202.106 121.084 196.509L117.427 178.238C116.837 175.071 116.417 171.875 116.167 168.664C116.059 167.154 115.759 165.663 115.277 164.228C114.777 162.827 114.126 161.517 113.546 160.226C112.281 157.62 111.83 154.864 111.39 152.374C110.95 149.883 110.56 147.532 110.08 145.426C109.6 143.32 109.08 141.425 108.539 139.804C107.999 138.184 107.404 136.803 107.164 135.603C106.924 134.402 106.834 133.477 106.734 132.847L106.639 132.126C106.615 132.033 106.601 131.938 106.599 131.841Z" fill="#263238"/>
<path d="M260.953 197.714C261.575 198.011 262.132 198.429 262.59 198.945C263.048 199.46 263.398 200.062 263.619 200.715C264.047 202.033 264.168 203.43 263.974 204.802C263.669 207.453 262.163 210.129 260.543 212.249C258.307 210.304 257.792 206.903 257.642 205.157C257.402 202.406 258.642 197.284 260.953 197.694" fill="#FF725E"/>
<path d="M263.139 216.651C262.985 215.892 263.036 215.107 263.284 214.374C263.533 213.642 263.971 212.988 264.554 212.479C265.145 211.982 265.83 211.607 266.568 211.377C267.305 211.147 268.081 211.066 268.851 211.139C269.208 211.135 269.561 211.208 269.887 211.354C270.212 211.5 270.502 211.715 270.736 211.984C270.909 212.27 271.003 212.597 271.008 212.93C271.014 213.264 270.93 213.594 270.766 213.885C270.426 214.462 269.939 214.94 269.356 215.27C267.42 216.486 265.324 217.306 263.139 216.651Z" fill="#FF725E"/>
<path d="M260.273 224.784C260.28 224.6 260.307 224.417 260.353 224.239C260.423 223.853 260.513 223.358 260.623 222.763C260.867 221.124 261.374 219.535 262.123 218.056C262.912 216.584 264.077 215.347 265.5 214.47C265.933 214.214 266.394 214.009 266.875 213.86C267.007 213.819 267.14 213.786 267.275 213.76C267.322 213.752 267.369 213.752 267.415 213.76C266.773 213.979 266.155 214.262 265.57 214.605C264.195 215.499 263.068 216.726 262.293 218.171C261.547 219.633 261.022 221.197 260.738 222.813C260.603 223.428 260.493 223.929 260.408 224.274C260.38 224.448 260.335 224.619 260.273 224.784Z" fill="#263238"/>
<path d="M260.373 201.701C260.38 201.779 260.38 201.858 260.373 201.936C260.373 202.111 260.398 202.341 260.413 202.621C260.448 203.216 260.483 204.077 260.518 205.122C260.583 207.248 260.638 210.184 260.623 213.43C260.608 216.676 260.533 219.612 260.443 221.738C260.403 222.798 260.358 223.659 260.323 224.239C260.323 224.519 260.288 224.739 260.273 224.924C260.272 225.003 260.264 225.082 260.248 225.159C260.237 225.08 260.237 224.999 260.248 224.919C260.248 224.744 260.248 224.514 260.248 224.234C260.248 223.619 260.283 222.763 260.308 221.733C260.358 219.607 260.418 216.671 260.433 213.43C260.448 210.189 260.433 207.253 260.378 205.127C260.378 204.082 260.348 203.226 260.338 202.626V201.941C260.341 201.86 260.353 201.78 260.373 201.701Z" fill="#263238"/>
<path d="M259.272 218.262C259 216.657 258.35 215.139 257.376 213.835C256.402 212.53 255.132 211.476 253.67 210.759C252.925 210.399 251.95 210.169 251.334 210.724C250.719 211.279 250.859 212.275 251.159 213.05C251.816 214.651 252.931 216.022 254.365 216.99C255.799 217.958 257.487 218.481 259.217 218.492" fill="#FF725E"/>
<path d="M254.031 213.265C254.196 213.317 254.355 213.385 254.506 213.47C254.689 213.556 254.867 213.651 255.041 213.755C255.241 213.88 255.486 214.005 255.726 214.185C255.996 214.367 256.256 214.562 256.506 214.77C256.796 215.008 257.073 215.26 257.337 215.525C257.936 216.14 258.464 216.819 258.912 217.551C259.348 218.292 259.697 219.081 259.953 219.902C260.059 220.26 260.146 220.624 260.213 220.992C260.277 221.313 260.322 221.637 260.348 221.963C260.373 222.229 260.385 222.496 260.383 222.763C260.399 222.966 260.399 223.17 260.383 223.373C260.381 223.542 260.361 223.709 260.323 223.873C260.283 223.873 260.358 223.138 260.228 221.963C260.188 221.673 260.153 221.353 260.073 221.012C259.993 220.672 259.903 220.317 259.798 219.947C259.534 219.144 259.187 218.371 258.762 217.641C258.322 216.921 257.805 216.25 257.222 215.64C256.967 215.374 256.698 215.122 256.416 214.885C256.161 214.65 255.916 214.465 255.661 214.285C254.686 213.61 254.016 213.3 254.031 213.265Z" fill="#263238"/>
<path d="M210.901 225.194L139.185 224.864C135.043 224.844 131.078 223.18 128.162 220.238C125.246 217.296 123.618 213.316 123.635 209.174L124.395 29.3855C124.404 27.3333 124.816 25.3029 125.61 23.4104C126.404 21.5178 127.562 19.8002 129.02 18.3556C130.477 16.911 132.205 15.7678 134.105 14.9913C136.005 14.2147 138.039 13.8201 140.091 13.83L211.806 14.1601C213.858 14.1687 215.888 14.5813 217.78 15.3745C219.672 16.1677 221.389 17.3259 222.834 18.783C224.279 20.24 225.422 21.9674 226.199 23.8664C226.975 25.7655 227.371 27.7989 227.361 29.8506L226.601 209.639C226.593 211.691 226.18 213.722 225.386 215.615C224.592 217.508 223.433 219.226 221.975 220.671C220.517 222.115 218.788 223.258 216.888 224.034C214.988 224.811 212.953 225.205 210.901 225.194Z" fill="#455A64"/>
<path d="M211.701 20.3673L197.796 20.3022C196.883 20.3193 196.013 20.6972 195.378 21.3533C194.742 22.0093 194.393 22.8902 194.405 23.8035V26.3044C194.418 27.218 194.068 28.0997 193.433 28.756C192.797 29.4123 191.927 29.7898 191.013 29.8056L163.914 29.6805C163.46 29.6689 163.013 29.5678 162.599 29.3832C162.184 29.1986 161.81 28.934 161.498 28.6046C161.186 28.2752 160.941 27.8875 160.779 27.4636C160.617 27.0397 160.54 26.588 160.553 26.1343V23.6334C160.574 22.7183 160.233 21.8318 159.603 21.1674C158.973 20.503 158.107 20.1147 157.192 20.0872H152.3L140.131 20.0321C138.693 20.0242 137.267 20.2998 135.936 20.8431C134.604 21.3865 133.393 22.1869 132.371 23.1986C131.349 24.2103 130.536 25.4135 129.98 26.7394C129.423 28.0653 129.133 29.488 129.127 30.926L128.396 206.418C128.389 207.855 128.664 209.28 129.207 210.611C129.75 211.943 130.55 213.154 131.561 214.176C132.572 215.197 133.775 216.01 135.1 216.567C136.426 217.124 137.848 217.414 139.285 217.422L210.86 217.752C212.298 217.76 213.724 217.484 215.055 216.941C216.387 216.397 217.598 215.597 218.62 214.585C219.642 213.573 220.454 212.37 221.011 211.044C221.568 209.718 221.858 208.296 221.864 206.858L222.605 31.3661C222.612 29.9275 222.336 28.5015 221.792 27.1697C221.248 25.8379 220.447 24.6264 219.434 23.6048C218.421 22.5831 217.217 21.7712 215.89 21.2157C214.563 20.6602 213.139 20.3718 211.701 20.3673Z" fill="#FAFAFA"/>
<path d="M176.143 153.584C176.213 153.584 176.273 157.996 176.273 163.432C176.273 168.869 176.213 173.286 176.143 173.286C176.073 173.286 176.013 168.874 176.013 163.432C176.013 157.991 176.073 153.584 176.143 153.584Z" fill="#FF725E"/>
<path d="M173.577 155.75C173.647 155.75 173.707 159.116 173.707 163.252C173.707 167.389 173.647 170.755 173.577 170.755C173.507 170.755 173.447 167.389 173.447 163.252C173.447 159.116 173.502 155.75 173.577 155.75Z" fill="#FF725E"/>
<path d="M170.686 157.9C170.756 157.9 170.816 160.336 170.816 163.342C170.816 166.348 170.756 168.789 170.686 168.789C170.616 168.789 170.556 166.353 170.556 163.342C170.556 160.331 170.616 157.9 170.686 157.9Z" fill="#FF725E"/>
<path d="M168.165 159.751C168.345 161.771 168.345 163.803 168.165 165.823C167.992 163.803 167.992 161.772 168.165 159.751Z" fill="#FF725E"/>
<path d="M165.944 161.232C166.118 162.337 166.118 163.463 165.944 164.568C165.771 163.463 165.771 162.337 165.944 161.232Z" fill="#FF725E"/>
<path d="M163.429 159.456C163.602 161.476 163.602 163.508 163.429 165.528C163.249 163.508 163.249 161.476 163.429 159.456Z" fill="#FF725E"/>
<path d="M161.058 157.03C161.128 157.03 161.188 159.581 161.188 162.732C161.188 165.883 161.128 168.439 161.058 168.439C160.988 168.439 160.923 165.883 160.923 162.732C160.923 159.581 160.983 157.03 161.058 157.03Z" fill="#FF725E"/>
<path d="M191.118 157.9C191.188 157.9 191.248 160.336 191.248 163.342C191.248 166.348 191.188 168.789 191.118 168.789C191.048 168.789 190.988 166.353 190.988 163.342C190.988 160.331 191.048 157.9 191.118 157.9Z" fill="#FF725E"/>
<path d="M188.598 159.751C188.771 161.772 188.771 163.803 188.598 165.823C188.424 163.803 188.424 161.772 188.598 159.751Z" fill="#FF725E"/>
<path d="M186.377 161.232C186.55 162.337 186.55 163.463 186.377 164.568C186.203 163.463 186.203 162.337 186.377 161.232Z" fill="#FF725E"/>
<path d="M183.846 158.566C183.981 159.87 184.026 161.182 183.981 162.492C184.026 163.802 183.981 165.114 183.846 166.418C183.717 165.114 183.674 163.802 183.716 162.492C183.674 161.182 183.717 159.87 183.846 158.566Z" fill="#FF725E"/>
<path d="M181.485 157.03C181.56 157.03 181.62 159.581 181.62 162.732C181.62 165.883 181.56 168.439 181.485 168.439C181.41 168.439 181.355 165.883 181.355 162.732C181.355 159.581 181.415 157.03 181.485 157.03Z" fill="#FF725E"/>
<path d="M178.599 155.825C178.669 155.825 178.729 159.076 178.729 163.083C178.729 167.089 178.669 170.345 178.599 170.345C178.529 170.345 178.469 167.094 178.469 163.083C178.469 159.071 178.524 155.825 178.599 155.825Z" fill="#FF725E"/>
<path d="M193.81 165.533C193.636 163.513 193.636 161.481 193.81 159.461C193.983 161.481 193.983 163.513 193.81 165.533Z" fill="#FF725E"/>
<path d="M196.035 164.033C195.862 162.927 195.862 161.802 196.035 160.697C196.209 161.802 196.209 162.927 196.035 164.033Z" fill="#FF725E"/>
<path d="M158.737 159.456C158.911 161.476 158.911 163.508 158.737 165.528C158.564 163.508 158.564 161.476 158.737 159.456Z" fill="#FF725E"/>
<path d="M156.511 160.937C156.685 162.04 156.685 163.164 156.511 164.268C156.338 163.164 156.338 162.04 156.511 160.937Z" fill="#FF725E"/>
<path d="M154.296 159.456C154.469 161.476 154.469 163.508 154.296 165.528C154.122 163.508 154.122 161.476 154.296 159.456Z" fill="#FF725E"/>
<path d="M151.925 157.03C151.995 157.03 152.055 159.581 152.055 162.732C152.055 165.883 151.995 168.439 151.925 168.439C151.855 168.439 151.795 165.883 151.795 162.732C151.795 159.581 151.835 157.03 151.925 157.03Z" fill="#FF725E"/>
<path d="M149.604 159.456C149.777 161.476 149.777 163.508 149.604 165.528C149.431 163.508 149.431 161.476 149.604 159.456Z" fill="#FF725E"/>
<path d="M147.383 160.937C147.556 162.04 147.556 163.164 147.383 164.268C147.21 163.164 147.21 162.04 147.383 160.937Z" fill="#FF725E"/>
<path d="M203.078 159.456C203.251 161.476 203.251 163.508 203.078 165.528C202.904 163.508 202.904 161.476 203.078 159.456Z" fill="#FF725E"/>
<path d="M200.707 157.03C200.782 157.03 200.837 159.581 200.837 162.732C200.837 165.883 200.782 168.439 200.707 168.439C200.632 168.439 200.577 165.883 200.577 162.732C200.577 159.581 200.637 157.03 200.707 157.03Z" fill="#FF725E"/>
<path d="M198.391 159.456C198.565 161.476 198.565 163.508 198.391 165.528C198.211 163.508 198.211 161.476 198.391 159.456Z" fill="#FF725E"/>
<path d="M196.165 160.937C196.339 162.04 196.339 163.164 196.165 164.268C195.992 163.164 195.992 162.04 196.165 160.937Z" fill="#FF725E"/>
<path d="M205.974 160.937C206.147 162.04 206.147 163.164 205.974 164.268C205.8 163.164 205.8 162.04 205.974 160.937Z" fill="#FF725E"/>
<g opacity="0.3">
<path d="M214.772 91.127C214.772 91.127 214.772 90.917 214.742 90.5068C214.712 90.0967 214.742 89.5065 214.662 88.6912C214.505 86.3687 214.138 84.0652 213.566 81.8088C213.152 80.1783 212.629 78.5775 212.001 77.0171C211.264 75.16 210.379 73.3652 209.355 71.6502C206.841 67.4633 203.555 63.792 199.672 60.8314C194.953 57.2445 189.462 54.809 183.636 53.7189C180.402 53.1153 177.103 52.9354 173.822 53.1837C172.109 53.3059 170.407 53.5432 168.726 53.8939C166.998 54.2673 165.297 54.7535 163.634 55.3495C156.558 57.9284 150.405 62.5438 145.948 68.6141C144.784 70.1974 143.747 71.8698 142.847 73.6159C142.376 74.4862 141.976 75.3965 141.566 76.3068C141.156 77.2171 140.821 78.1575 140.521 79.1178C139.236 82.9899 138.577 87.0423 138.57 91.122C138.583 93.1741 138.75 95.2222 139.07 97.2492C139.388 99.2482 139.872 101.217 140.516 103.136C140.821 104.097 141.196 105.022 141.566 105.947C141.936 106.873 142.371 107.768 142.842 108.638C147.237 117.119 154.658 123.638 163.634 126.905C165.297 127.501 166.998 127.987 168.726 128.36C173.64 129.379 178.704 129.439 183.641 128.535C189.466 127.446 194.955 125.011 199.672 121.423C203.557 118.46 206.843 114.785 209.355 110.594C210.385 108.88 211.273 107.085 212.011 105.227C212.641 103.669 213.166 102.069 213.581 100.44C214.15 98.1833 214.515 95.88 214.672 93.5579C214.742 92.7626 214.727 92.1524 214.752 91.7422C214.777 91.3321 214.782 91.127 214.782 91.127C214.782 91.127 214.782 91.3321 214.782 91.7422C214.782 92.1524 214.782 92.7426 214.727 93.5629C214.594 95.8912 214.244 98.202 213.681 100.465C212.782 104.051 211.369 107.488 209.485 110.669C206.975 114.883 203.686 118.58 199.792 121.563C197.53 123.297 195.078 124.768 192.484 125.949C189.678 127.241 186.723 128.178 183.686 128.74C180.433 129.353 177.114 129.54 173.812 129.295C172.088 129.173 170.374 128.936 168.681 128.585C166.944 128.212 165.233 127.726 163.559 127.13C156.432 124.537 150.232 119.892 145.743 113.78C144.573 112.188 143.529 110.508 142.621 108.753C142.121 107.873 141.746 106.958 141.331 106.042C140.916 105.127 140.581 104.177 140.276 103.211C139.628 101.279 139.14 99.2963 138.815 97.2842C138.495 95.2438 138.328 93.1823 138.315 91.117C138.323 87.0088 138.985 82.928 140.276 79.0278C140.581 78.0624 140.966 77.1321 141.336 76.1968C141.706 75.2615 142.151 74.3711 142.621 73.4908C143.53 71.7439 144.575 70.0714 145.748 68.4891C150.236 62.3788 156.434 57.7352 163.559 55.1444C165.233 54.5483 166.944 54.0621 168.681 53.6889C170.373 53.3381 172.088 53.1008 173.812 52.9786C177.105 52.7223 180.418 52.8955 183.666 53.4938C189.521 54.593 195.037 57.0496 199.772 60.6663C203.666 63.6499 206.957 67.3468 209.47 71.5602C210.497 73.2841 211.382 75.0891 212.116 76.9571C212.739 78.5246 213.257 80.1321 213.666 81.7687C214.229 84.032 214.579 86.3428 214.712 88.6712C214.777 89.4715 214.752 90.0817 214.767 90.4918C214.782 90.902 214.772 91.127 214.772 91.127Z" fill="#FF725E"/>
</g>
<path d="M209.935 90.3016C209.935 90.3016 209.935 90.1216 209.935 89.7665C209.935 89.4113 209.935 88.8862 209.86 88.2009C209.542 83.5067 208.223 78.9351 205.99 74.7938C203.757 70.6524 200.663 67.0376 196.916 64.1925C192.846 61.1004 188.11 59.0022 183.086 58.0653C180.297 57.5459 177.452 57.3895 174.623 57.6002C173.144 57.7079 171.673 57.9134 170.221 58.2154C168.733 58.5383 167.268 58.9577 165.835 59.4708C158.097 62.2912 151.698 67.9116 147.903 75.2214C147.107 76.7443 146.438 78.3302 145.903 79.963C143.669 86.6881 143.669 93.9552 145.903 100.68C146.434 102.316 147.103 103.904 147.903 105.427C148.68 106.931 149.575 108.371 150.579 109.733C154.423 114.972 159.731 118.955 165.835 121.182C167.268 121.693 168.734 122.111 170.221 122.433C171.673 122.737 173.143 122.943 174.623 123.048C177.452 123.264 180.297 123.108 183.086 122.583C188.11 121.646 192.846 119.548 196.916 116.456C200.67 113.607 203.768 109.984 206.001 105.833C208.233 101.682 209.548 97.1004 209.855 92.3974C209.92 91.7121 209.905 91.187 209.93 90.8318C209.955 90.4767 209.93 90.3016 209.93 90.3016C209.93 90.3016 209.93 91.0269 209.885 92.4024C209.592 97.6158 208.048 102.682 205.384 107.173C203.217 110.809 200.379 114 197.021 116.576C192.934 119.7 188.171 121.822 183.116 122.773C178.831 123.57 174.433 123.524 170.166 122.638C168.667 122.315 167.19 121.896 165.745 121.383C159.594 119.151 154.242 115.148 150.364 109.879C149.35 108.506 148.446 107.054 147.663 105.537C146.862 104.003 146.193 102.403 145.663 100.755C143.408 93.9788 143.408 86.6546 145.663 79.878C146.193 78.2304 146.862 76.6308 147.663 75.0963C148.448 73.5829 149.349 72.133 150.359 70.7598C154.237 65.4895 159.589 61.4863 165.74 59.2557C167.184 58.7402 168.661 58.3208 170.161 58.0003C171.621 57.6934 173.1 57.4879 174.588 57.3851C177.432 57.1826 180.29 57.3507 183.091 57.8853C188.144 58.8359 192.904 60.9565 196.991 64.0774C200.345 66.636 203.183 69.8083 205.354 73.4257C208.018 77.9162 209.562 82.9825 209.855 88.1959C209.955 89.5764 209.935 90.3016 209.935 90.3016Z" fill="#FF725E"/>
<path d="M176.604 118.242C191.578 118.242 203.718 106.102 203.718 91.127C203.718 76.152 191.578 64.0125 176.604 64.0125C161.629 64.0125 149.489 76.152 149.489 91.127C149.489 106.102 161.629 118.242 176.604 118.242Z" fill="#FF725E"/>
<path d="M176.824 82.8943H176.298C174.464 82.8943 172.977 84.3812 172.977 86.2155V90.9521C172.977 92.7863 174.464 94.2733 176.298 94.2733H176.824C178.658 94.2733 180.145 92.7863 180.145 90.9521V86.2155C180.145 84.3812 178.658 82.8943 176.824 82.8943Z" fill="#FAFAFA"/>
<path d="M176.558 96.4438C175.158 96.4412 173.817 95.8838 172.827 94.8939C171.837 93.9039 171.279 92.562 171.277 91.162C171.277 91.0956 171.303 91.032 171.35 90.9851C171.397 90.9382 171.46 90.9119 171.527 90.9119C171.593 90.9119 171.657 90.9382 171.704 90.9851C171.75 91.032 171.777 91.0956 171.777 91.162C171.778 92.4297 172.282 93.6452 173.179 94.5417C174.075 95.4381 175.291 95.9423 176.558 95.9436C177.194 95.9728 177.829 95.8691 178.423 95.6391C179.017 95.4092 179.556 95.0581 180.006 94.6082C180.456 94.1583 180.808 93.6195 181.039 93.0261C181.269 92.4328 181.374 91.7979 181.345 91.162C181.345 91.0956 181.372 91.032 181.418 90.9851C181.465 90.9382 181.529 90.9119 181.595 90.9119C181.662 90.9119 181.725 90.9382 181.772 90.9851C181.819 91.032 181.845 91.0956 181.845 91.162C181.845 94.268 179.67 96.4388 176.558 96.4438Z" fill="#FAFAFA"/>
<path d="M176.808 96.189H176.308V98.7799H176.808V96.189Z" fill="white"/>
<path d="M179.689 98.9199H173.432C173.366 98.9199 173.302 98.8935 173.255 98.8466C173.208 98.7997 173.182 98.7361 173.182 98.6698C173.182 98.6034 173.208 98.5398 173.255 98.4929C173.302 98.446 173.366 98.4197 173.432 98.4197H179.689C179.756 98.4197 179.819 98.446 179.866 98.4929C179.913 98.5398 179.94 98.6034 179.94 98.6698C179.938 98.7357 179.911 98.7986 179.865 98.8452C179.818 98.8918 179.755 98.9186 179.689 98.9199Z" fill="white"/>
<path d="M171.342 84.965C171.312 85.03 170.931 84.895 170.481 84.7049C170.031 84.5148 169.671 84.3298 169.691 84.2597C169.711 84.1897 170.121 84.2597 170.581 84.4648C171.041 84.6699 171.342 84.9 171.342 84.965Z" fill="white"/>
<path d="M173.342 82.284C173.287 82.329 172.962 81.9839 172.617 81.5187C172.272 81.0536 172.042 80.6384 172.117 80.5984C172.192 80.5584 172.497 80.8985 172.842 81.3637C173.187 81.8288 173.392 82.244 173.342 82.284Z" fill="white"/>
<path d="M176.578 81.3237C176.503 81.3237 176.453 80.8885 176.458 80.3233C176.463 79.7582 176.528 79.323 176.598 79.323C176.772 79.9668 176.772 80.6449 176.598 81.2887L176.578 81.3237Z" fill="white"/>
<path d="M180.74 80.6185C180.8 80.6586 180.645 81.0287 180.355 81.4188C180.065 81.809 179.745 82.0591 179.695 82.009C179.644 81.959 179.86 81.6389 180.145 81.2588C180.43 80.8786 180.675 80.5835 180.74 80.6185Z" fill="white"/>
<path d="M183.536 84.0046C183.571 84.0697 183.236 84.3248 182.791 84.5798C182.345 84.8349 181.955 84.985 181.92 84.925C181.885 84.8649 182.215 84.6049 182.661 84.3498C183.106 84.0947 183.501 83.9446 183.536 84.0046Z" fill="white"/>
<path d="M155.736 144.461L154.936 143.305H154.051V144.461H153.085V140.304H154.886C155.996 140.304 156.691 140.885 156.691 141.805C156.705 142.087 156.63 142.366 156.477 142.603C156.323 142.84 156.099 143.023 155.836 143.125L156.766 144.461H155.736ZM154.836 141.09H154.056V142.525H154.836C155.426 142.525 155.721 142.25 155.721 141.8C155.721 141.35 155.421 141.09 154.836 141.09Z" fill="#263238"/>
<path d="M160.498 143.125H158.082C158.131 143.326 158.25 143.501 158.418 143.62C158.587 143.739 158.792 143.792 158.997 143.771C159.145 143.776 159.292 143.751 159.429 143.697C159.567 143.644 159.692 143.563 159.798 143.461L160.298 143.996C160.127 144.169 159.92 144.304 159.692 144.39C159.464 144.476 159.22 144.512 158.977 144.496C158.747 144.519 158.515 144.494 158.295 144.421C158.076 144.349 157.874 144.232 157.702 144.077C157.531 143.922 157.393 143.733 157.299 143.521C157.206 143.31 157.157 143.082 157.157 142.85C157.154 142.629 157.196 142.409 157.281 142.204C157.366 142 157.492 141.815 157.652 141.66C157.811 141.506 158 141.386 158.207 141.308C158.415 141.23 158.636 141.195 158.857 141.205C159.078 141.193 159.299 141.227 159.506 141.306C159.713 141.385 159.901 141.506 160.058 141.662C160.215 141.818 160.338 142.005 160.418 142.212C160.498 142.418 160.534 142.639 160.523 142.86C160.518 142.95 160.503 143.05 160.498 143.125ZM158.072 142.585H159.643C159.613 142.399 159.517 142.229 159.373 142.106C159.229 141.983 159.046 141.916 158.857 141.916C158.668 141.916 158.485 141.983 158.341 142.106C158.197 142.229 158.102 142.399 158.072 142.585Z" fill="#263238"/>
<path d="M163.874 142.64V144.461H163.004V144.066C162.897 144.22 162.75 144.343 162.58 144.421C162.409 144.5 162.22 144.531 162.033 144.511C161.283 144.511 160.838 144.096 160.838 143.54C160.838 142.985 161.238 142.585 162.208 142.585H162.944C162.944 142.19 162.709 141.955 162.208 141.955C161.877 141.954 161.555 142.059 161.288 142.255L160.958 141.605C161.369 141.345 161.847 141.212 162.333 141.22C163.309 141.22 163.874 141.675 163.874 142.64ZM162.944 143.455V143.125H162.308C161.878 143.125 161.738 143.285 161.738 143.5C161.738 143.715 161.938 143.886 162.238 143.886C162.387 143.902 162.537 143.869 162.664 143.791C162.792 143.713 162.89 143.595 162.944 143.455Z" fill="#263238"/>
<path d="M168 140.059V144.461H167.115V144.096C166.991 144.237 166.837 144.348 166.663 144.42C166.49 144.492 166.302 144.523 166.115 144.511C165.678 144.511 165.26 144.338 164.951 144.029C164.642 143.72 164.469 143.302 164.469 142.865C164.469 142.429 164.642 142.01 164.951 141.702C165.26 141.393 165.678 141.22 166.115 141.22C166.292 141.211 166.469 141.242 166.634 141.308C166.799 141.374 166.948 141.476 167.07 141.605V140.059H168ZM167.09 142.865C167.077 142.706 167.018 142.554 166.92 142.428C166.822 142.301 166.69 142.206 166.539 142.155C166.388 142.103 166.225 142.096 166.07 142.135C165.915 142.175 165.775 142.259 165.667 142.377C165.559 142.494 165.488 142.641 165.463 142.799C165.437 142.957 165.458 143.118 165.523 143.264C165.588 143.41 165.694 143.534 165.829 143.62C165.963 143.707 166.12 143.752 166.28 143.751C166.393 143.751 166.505 143.728 166.608 143.683C166.712 143.637 166.805 143.571 166.881 143.487C166.957 143.404 167.015 143.306 167.051 143.198C167.087 143.091 167.1 142.978 167.09 142.865Z" fill="#263238"/>
<path d="M172.027 141.27L170.581 144.661C170.51 144.954 170.34 145.214 170.099 145.396C169.859 145.579 169.562 145.672 169.261 145.661C168.94 145.67 168.625 145.567 168.37 145.371L168.706 144.711C168.852 144.838 169.037 144.911 169.231 144.916C169.486 144.916 169.626 144.801 169.731 144.516V144.486L168.345 141.27H169.341L170.236 143.436L171.141 141.27H172.027Z" fill="#263238"/>
<path d="M176.148 144.311C175.922 144.451 175.659 144.521 175.393 144.511C175.235 144.533 175.075 144.519 174.924 144.47C174.772 144.421 174.634 144.338 174.519 144.228C174.405 144.117 174.317 143.982 174.262 143.833C174.207 143.684 174.187 143.524 174.203 143.366V142.055H173.702V141.34H174.203V140.56H175.128V141.34H175.923V142.055H175.128V143.351C175.12 143.406 175.125 143.462 175.142 143.515C175.159 143.567 175.187 143.616 175.225 143.657C175.263 143.697 175.309 143.729 175.361 143.75C175.412 143.77 175.468 143.779 175.523 143.776C175.658 143.776 175.789 143.734 175.898 143.656L176.148 144.311Z" fill="#263238"/>
<path d="M176.343 142.865C176.32 142.513 176.403 142.162 176.583 141.857C176.762 141.553 177.028 141.309 177.348 141.158C177.667 141.007 178.024 140.956 178.373 141.011C178.722 141.066 179.046 141.224 179.304 141.466C179.562 141.707 179.741 142.021 179.818 142.365C179.895 142.71 179.867 143.07 179.737 143.398C179.607 143.726 179.381 144.008 179.089 144.207C178.797 144.405 178.452 144.511 178.099 144.511C177.874 144.526 177.648 144.494 177.435 144.419C177.223 144.343 177.028 144.224 176.863 144.069C176.699 143.915 176.568 143.729 176.478 143.521C176.389 143.314 176.343 143.091 176.343 142.865ZM178.914 142.865C178.901 142.706 178.843 142.554 178.745 142.428C178.647 142.302 178.515 142.207 178.364 142.155C178.213 142.103 178.05 142.096 177.896 142.135C177.741 142.174 177.601 142.257 177.493 142.375C177.385 142.492 177.313 142.638 177.287 142.796C177.261 142.953 177.281 143.115 177.346 143.261C177.41 143.407 177.515 143.531 177.649 143.618C177.783 143.705 177.939 143.751 178.099 143.75C178.211 143.75 178.323 143.727 178.426 143.681C178.529 143.635 178.621 143.569 178.697 143.485C178.772 143.402 178.83 143.304 178.866 143.197C178.901 143.09 178.914 142.977 178.904 142.865H178.914Z" fill="#263238"/>
<path d="M182.14 140.059H183.066V144.461H182.14V140.059Z" fill="#263238"/>
<path d="M183.816 140.304C183.82 140.233 183.838 140.164 183.869 140.1C183.9 140.036 183.944 139.979 183.997 139.932C184.051 139.886 184.114 139.85 184.181 139.828C184.249 139.806 184.32 139.798 184.391 139.804C184.463 139.793 184.536 139.798 184.606 139.818C184.675 139.839 184.74 139.874 184.794 139.921C184.849 139.969 184.893 140.028 184.923 140.094C184.952 140.16 184.967 140.232 184.966 140.304C184.966 140.457 184.906 140.603 184.798 140.711C184.69 140.819 184.544 140.88 184.391 140.88C184.239 140.88 184.092 140.819 183.984 140.711C183.877 140.603 183.816 140.457 183.816 140.304ZM183.931 141.27H184.846V144.461H183.921L183.931 141.27Z" fill="#263238"/>
<path d="M185.407 144.166L185.717 143.5C186.052 143.701 186.436 143.809 186.827 143.81C187.257 143.81 187.417 143.695 187.417 143.52C187.417 142.995 185.487 143.52 185.487 142.255C185.487 141.65 186.032 141.22 186.962 141.22C187.389 141.211 187.812 141.307 188.193 141.5L187.883 142.16C187.603 141.999 187.285 141.916 186.962 141.92C186.547 141.92 186.372 142.055 186.372 142.22C186.372 142.765 188.298 142.22 188.298 143.495C188.298 144.091 187.748 144.496 186.797 144.496C186.313 144.509 185.833 144.395 185.407 144.166Z" fill="#263238"/>
<path d="M190.934 144.311C190.707 144.451 190.444 144.521 190.178 144.511C190.02 144.533 189.86 144.519 189.708 144.47C189.557 144.421 189.418 144.338 189.303 144.228C189.188 144.117 189.1 143.983 189.044 143.833C188.989 143.684 188.968 143.524 188.983 143.366V142.055H188.483V141.34H188.983V140.56H189.908V141.34H190.703V142.055H189.908V143.351C189.901 143.406 189.905 143.462 189.922 143.516C189.939 143.569 189.968 143.618 190.007 143.659C190.045 143.7 190.092 143.731 190.144 143.751C190.196 143.772 190.252 143.78 190.308 143.776C190.443 143.775 190.574 143.733 190.683 143.656L190.934 144.311Z" fill="#263238"/>
<path d="M194.465 143.125H192.049C192.098 143.326 192.217 143.501 192.385 143.62C192.554 143.739 192.759 143.792 192.964 143.771C193.112 143.776 193.259 143.751 193.396 143.697C193.534 143.644 193.659 143.563 193.765 143.461L194.265 143.996C194.095 144.17 193.889 144.304 193.662 144.391C193.435 144.477 193.192 144.513 192.949 144.496C191.844 144.496 191.124 143.801 191.124 142.85C191.121 142.628 191.163 142.408 191.249 142.203C191.334 141.998 191.461 141.813 191.62 141.659C191.78 141.504 191.97 141.385 192.178 141.306C192.386 141.228 192.607 141.194 192.829 141.205C193.05 141.193 193.272 141.227 193.478 141.306C193.685 141.385 193.873 141.506 194.03 141.662C194.187 141.818 194.31 142.005 194.39 142.212C194.47 142.418 194.506 142.639 194.495 142.86C194.485 142.95 194.47 143.05 194.465 143.125ZM192.034 142.585H193.61C193.576 142.4 193.479 142.233 193.335 142.113C193.191 141.992 193.01 141.926 192.822 141.926C192.634 141.926 192.452 141.992 192.308 142.113C192.164 142.233 192.067 142.4 192.034 142.585Z" fill="#263238"/>
<path d="M198.351 142.635V144.461H197.426V142.775C197.426 142.275 197.186 142.025 196.78 142.025C196.375 142.025 196.01 142.295 196.01 142.885V144.461H195.1V141.27H195.985V141.645C196.121 141.504 196.286 141.393 196.468 141.32C196.649 141.247 196.845 141.212 197.041 141.22C197.224 141.21 197.408 141.241 197.579 141.31C197.749 141.38 197.902 141.486 198.027 141.621C198.152 141.756 198.246 141.917 198.302 142.092C198.358 142.267 198.375 142.453 198.351 142.635Z" fill="#263238"/>
<path d="M168.076 193.493C168.073 193.265 168.116 193.039 168.204 192.829C168.292 192.618 168.422 192.428 168.586 192.269C168.75 192.111 168.944 191.988 169.158 191.908C169.371 191.827 169.598 191.792 169.826 191.802C170.059 191.792 170.291 191.831 170.508 191.917C170.725 192.003 170.92 192.135 171.082 192.303L170.772 192.603C170.654 192.475 170.511 192.374 170.351 192.305C170.192 192.237 170.02 192.204 169.846 192.208C169.509 192.208 169.186 192.341 168.948 192.58C168.71 192.818 168.576 193.141 168.576 193.478C168.576 193.815 168.71 194.138 168.948 194.376C169.186 194.615 169.509 194.749 169.846 194.749C170.02 194.751 170.192 194.717 170.352 194.648C170.511 194.579 170.654 194.477 170.772 194.348L171.082 194.648C170.919 194.817 170.723 194.949 170.506 195.035C170.288 195.121 170.055 195.16 169.821 195.149C169.597 195.159 169.373 195.123 169.162 195.045C168.952 194.967 168.759 194.846 168.597 194.692C168.434 194.537 168.303 194.352 168.214 194.146C168.124 193.94 168.077 193.718 168.076 193.493Z" fill="#263238"/>
<path d="M173.637 193.633V195.134H173.207V194.803C173.112 194.928 172.986 195.026 172.843 195.089C172.7 195.152 172.543 195.177 172.387 195.164C171.822 195.164 171.461 194.858 171.461 194.428C171.461 193.998 171.722 193.693 172.462 193.693H173.177V193.603C173.177 193.223 172.957 193.003 172.507 193.003C172.22 193.001 171.942 193.096 171.717 193.273L171.526 192.933C171.826 192.713 172.191 192.601 172.562 192.613C173.247 192.623 173.637 192.953 173.637 193.633ZM173.182 194.378V194.043H172.487C172.037 194.043 171.912 194.218 171.912 194.433C171.912 194.648 172.117 194.838 172.462 194.838C172.615 194.849 172.768 194.81 172.898 194.727C173.027 194.644 173.127 194.522 173.182 194.378Z" fill="#263238"/>
<path d="M176.843 193.703V195.144H176.388V193.758C176.388 193.258 176.143 193.028 175.718 193.028C175.608 193.019 175.498 193.034 175.395 193.074C175.292 193.113 175.199 193.174 175.123 193.254C175.046 193.333 174.989 193.429 174.954 193.533C174.92 193.638 174.909 193.749 174.923 193.858V195.144H174.473V192.643H174.903V193.043C175.011 192.909 175.149 192.802 175.307 192.733C175.464 192.663 175.636 192.632 175.808 192.643C175.949 192.632 176.091 192.652 176.223 192.702C176.355 192.751 176.475 192.83 176.574 192.931C176.673 193.032 176.748 193.154 176.795 193.287C176.841 193.42 176.858 193.563 176.843 193.703Z" fill="#263238"/>
<path d="M177.469 193.893C177.466 193.721 177.498 193.55 177.565 193.391C177.631 193.231 177.729 193.088 177.854 192.968C177.978 192.849 178.126 192.757 178.288 192.697C178.45 192.638 178.622 192.612 178.794 192.623C178.993 192.613 179.191 192.657 179.367 192.75C179.544 192.844 179.691 192.983 179.795 193.153L179.449 193.373C179.377 193.261 179.277 193.169 179.159 193.107C179.04 193.045 178.908 193.014 178.774 193.018C178.541 193.018 178.317 193.111 178.152 193.276C177.987 193.441 177.894 193.665 177.894 193.898C177.894 194.132 177.987 194.356 178.152 194.521C178.317 194.686 178.541 194.779 178.774 194.779C178.908 194.782 179.041 194.75 179.159 194.687C179.277 194.624 179.377 194.531 179.449 194.418L179.795 194.634C179.692 194.805 179.545 194.946 179.369 195.041C179.193 195.136 178.994 195.182 178.794 195.174C178.621 195.183 178.449 195.157 178.286 195.097C178.124 195.037 177.976 194.943 177.852 194.823C177.727 194.703 177.629 194.558 177.563 194.398C177.497 194.238 177.465 194.066 177.469 193.893Z" fill="#263238"/>
<path d="M182.605 194.043H180.58C180.607 194.259 180.717 194.455 180.885 194.592C181.054 194.729 181.269 194.796 181.485 194.779C181.62 194.783 181.754 194.758 181.879 194.705C182.003 194.653 182.115 194.573 182.205 194.473L182.455 194.769C182.27 194.955 182.035 195.084 181.778 195.14C181.521 195.196 181.253 195.176 181.007 195.084C180.761 194.991 180.547 194.83 180.39 194.619C180.234 194.408 180.141 194.156 180.125 193.893C180.118 193.726 180.147 193.559 180.207 193.403C180.268 193.247 180.36 193.105 180.478 192.986C180.595 192.867 180.736 192.774 180.891 192.711C181.046 192.649 181.213 192.619 181.38 192.623C181.548 192.618 181.715 192.649 181.87 192.712C182.025 192.776 182.166 192.871 182.282 192.992C182.398 193.113 182.488 193.257 182.545 193.415C182.603 193.573 182.627 193.741 182.615 193.908C182.615 193.953 182.611 193.998 182.605 194.043ZM180.58 193.718H182.18C182.158 193.521 182.065 193.34 181.917 193.207C181.769 193.075 181.578 193.002 181.38 193.002C181.182 193.002 180.991 193.075 180.843 193.207C180.696 193.34 180.602 193.521 180.58 193.718Z" fill="#263238"/>
<path d="M183.246 191.643H183.696V195.144H183.246V191.643Z" fill="#263238"/>
<path d="M198.806 201.961C198.806 201.961 198.931 201.961 199.171 201.926L199.617 201.896L200.232 201.796C201.978 201.45 203.548 200.502 204.667 199.117C205.786 197.732 206.383 195.998 206.354 194.218C206.369 193.564 206.348 192.909 206.289 192.258C206.201 191.57 206.022 190.898 205.759 190.257C205.465 189.584 205.083 188.953 204.623 188.381C204.123 187.794 203.542 187.28 202.898 186.856C201.487 185.967 199.83 185.548 198.166 185.66H192.719H180.715H153.205C151.995 185.672 150.804 185.974 149.734 186.54C148.686 187.084 147.782 187.869 147.098 188.831C146.415 189.775 145.969 190.87 145.798 192.022C145.749 192.305 145.722 192.591 145.718 192.878C145.718 193.163 145.718 193.458 145.718 193.748C145.7 194.318 145.73 194.889 145.808 195.454C145.967 196.568 146.377 197.632 147.008 198.565C147.635 199.473 148.45 200.236 149.399 200.801C150.33 201.351 151.369 201.693 152.445 201.801L153.24 201.836H155.641L178.114 201.861L193.264 201.901H197.386L193.264 201.926L178.114 201.966L155.641 201.991H153.24L152.42 201.951C151.309 201.841 150.235 201.489 149.274 200.921C148.293 200.339 147.448 199.552 146.798 198.615C146.147 197.65 145.721 196.55 145.553 195.399C145.475 194.82 145.445 194.236 145.463 193.653C145.463 193.358 145.463 193.073 145.463 192.773C145.464 192.476 145.491 192.18 145.543 191.887C145.721 190.696 146.18 189.564 146.883 188.586C147.594 187.59 148.529 186.776 149.614 186.21C150.716 185.645 151.936 185.347 153.175 185.34H180.685H192.689H198.136C199.379 185.251 200.626 185.46 201.772 185.949C202.919 186.437 203.932 187.192 204.728 188.151C205.662 189.282 206.247 190.66 206.414 192.117C206.467 192.783 206.486 193.451 206.469 194.118C206.499 195.232 206.286 196.34 205.844 197.363C205.403 198.387 204.744 199.302 203.913 200.045C202.878 200.971 201.608 201.594 200.242 201.846L199.622 201.931C199.447 201.931 199.291 201.931 199.171 201.931L198.806 201.961Z" fill="#263238"/>
<path d="M214.772 39.7539C213.488 39.8952 212.196 39.9421 210.906 39.8939C209.613 39.9422 208.319 39.8953 207.034 39.7539C208.32 39.6154 209.613 39.5686 210.906 39.6138C212.196 39.5687 213.488 39.6155 214.772 39.7539Z" fill="#263238"/>
<path d="M214.772 37.7331C213.488 37.8745 212.196 37.9213 210.906 37.8732C209.613 37.9214 208.319 37.8746 207.034 37.7331C208.32 37.5947 209.613 37.5479 210.906 37.5931C212.196 37.548 213.488 37.5948 214.772 37.7331Z" fill="#263238"/>
<path d="M214.772 35.7126C213.488 35.854 212.196 35.9008 210.906 35.8527C209.613 35.9009 208.319 35.8541 207.034 35.7126C208.32 35.5742 209.613 35.5274 210.906 35.5726C212.196 35.5275 213.488 35.5743 214.772 35.7126Z" fill="#263238"/>
<path d="M137.665 41.0596C137.72 41.0527 137.775 41.0527 137.83 41.0596H138.295L140.001 41.0196L139.956 41.0696C139.956 40.6895 139.956 40.2793 139.956 39.8292C139.956 39.5991 139.956 39.384 139.956 39.1189C139.987 38.986 140.06 38.8663 140.163 38.7766C140.266 38.6869 140.395 38.6317 140.531 38.6188C140.806 38.6188 141.031 38.6188 141.346 38.6188C141.503 38.6438 141.646 38.7242 141.748 38.8453C141.851 38.9663 141.907 39.1202 141.906 39.279C141.906 39.8542 141.906 40.4594 141.906 41.0846L141.826 41.0046H143.982L143.897 41.0846C143.897 40.2193 143.897 39.324 143.897 38.4037C143.897 38.1736 143.897 37.9435 143.897 37.7184C143.886 37.6183 143.854 37.5217 143.802 37.4354C143.75 37.349 143.68 37.2749 143.597 37.2183L142.657 36.2929L141.746 35.3976L141.306 34.9625C141.156 34.8174 141.036 34.6624 140.861 34.6274C140.776 34.6041 140.687 34.6006 140.6 34.6171C140.513 34.6335 140.431 34.6696 140.361 34.7224C140.231 34.8324 140.091 34.9875 139.961 35.1175C139.696 35.3826 139.46 35.6177 139.19 35.8978C138.69 36.398 138.19 36.8631 137.825 37.2983C137.716 37.552 137.68 37.8306 137.72 38.1036C137.72 38.3687 137.72 38.6037 137.72 38.8638C137.72 39.329 137.72 39.7341 137.72 40.0843C137.72 40.4344 137.72 40.6545 137.72 40.8645C137.727 40.9594 137.727 41.0547 137.72 41.1496C137.713 41.0631 137.713 40.9761 137.72 40.8896C137.72 40.6795 137.72 40.4294 137.72 40.1193C137.72 39.8092 137.72 39.354 137.69 38.8889C137.69 38.6438 137.69 38.3887 137.69 38.1136C137.69 37.9735 137.69 37.8335 137.69 37.6884C137.691 37.5306 137.732 37.3755 137.81 37.2383C138.21 36.7381 138.685 36.3179 139.175 35.7978L139.831 34.9225C139.971 34.7874 140.081 34.6524 140.246 34.5123C140.334 34.4455 140.436 34.3996 140.544 34.378C140.652 34.3563 140.764 34.3595 140.871 34.3873C141.069 34.4617 141.242 34.5899 141.371 34.7574L141.816 35.1926L142.727 36.0829L143.667 37.0132C143.758 37.0901 143.841 37.1774 143.912 37.2733C143.981 37.3809 144.019 37.5055 144.022 37.6334C144.022 37.8635 144.022 38.0886 144.022 38.3237C144.022 39.239 144.022 40.1393 144.022 41.0046V41.0896H143.937H141.781H141.706V41.0096C141.706 40.3844 141.706 39.7792 141.706 39.204C141.707 39.0818 141.664 38.9636 141.583 38.8714C141.503 38.7793 141.392 38.7197 141.271 38.7038C141.021 38.7038 140.731 38.7038 140.486 38.7038C140.374 38.7155 140.269 38.7626 140.187 38.8382C140.104 38.9138 140.047 39.014 140.026 39.1239C140.026 39.339 140.026 39.5891 140.026 39.8092V41.0946H139.976H138.24H137.79L137.665 41.0596Z" fill="#263238"/>
<path d="M251.555 69.1242C251.485 71.47 253.145 71.6951 254.29 71.7901C255.436 71.8852 256.746 71.365 257.792 70.8698C259.912 69.8695 261.968 68.8291 262.823 66.4883" fill="#FFBE9D"/>
<path d="M225.535 47.2314C225.465 47.2314 225.405 50.7327 225.405 55.0092C225.405 59.2857 225.465 62.7819 225.535 62.7819C225.606 62.7819 225.666 59.2807 225.666 55.0092C225.666 50.7377 225.606 47.2314 225.535 47.2314Z" fill="#FF725E"/>
<path d="M223.51 48.9421C223.44 48.9421 223.38 51.5981 223.38 54.8792C223.38 58.1604 223.44 60.8113 223.51 60.8113C223.58 60.8113 223.64 58.1554 223.64 54.8792C223.64 51.6031 223.58 48.9421 223.51 48.9421Z" fill="#FF725E"/>
<path d="M221.229 50.6377C221.1 52.066 221.057 53.5007 221.099 54.9342C221.057 56.3694 221.1 57.8057 221.229 59.2357C221.361 57.8059 221.404 56.3694 221.359 54.9342C221.404 53.5007 221.361 52.0658 221.229 50.6377Z" fill="#FF725E"/>
<path d="M219.243 52.0981C219.112 52.8912 219.068 53.6964 219.113 54.499C219.068 55.3 219.112 56.1034 219.243 56.8948C219.371 56.1031 219.415 55.3 219.373 54.499C219.415 53.6964 219.372 52.8916 219.243 52.0981Z" fill="#FF725E"/>
<path d="M217.488 53.2688C217.314 54.1372 217.314 55.0313 217.488 55.8997C217.661 55.0313 217.661 54.1372 217.488 53.2688Z" fill="#FF725E"/>
<path d="M215.497 51.8633C215.369 52.6567 215.325 53.4615 215.367 54.2641C215.325 55.0651 215.368 55.8683 215.497 56.66C215.628 55.8686 215.672 55.0651 215.627 54.2641C215.672 53.4615 215.628 52.6564 215.497 51.8633Z" fill="#FF725E"/>
<path d="M213.626 49.9375C213.498 51.4343 213.454 52.9373 213.496 54.4391C213.454 55.9409 213.498 57.4438 213.626 58.9407C213.758 57.444 213.802 55.9409 213.756 54.4391C213.802 52.9373 213.758 51.4342 213.626 49.9375Z" fill="#FF725E"/>
<path d="M237.355 50.6377C237.226 52.066 237.182 53.5007 237.225 54.9342C237.182 56.3694 237.226 57.8057 237.355 59.2357C237.486 57.8059 237.53 56.3694 237.485 54.9342C237.53 53.5007 237.486 52.0658 237.355 50.6377Z" fill="#FF725E"/>
<path d="M235.369 52.0981C235.237 52.8912 235.194 53.6964 235.239 54.499C235.194 55.3 235.238 56.1034 235.369 56.8948C235.497 56.1031 235.541 55.3 235.499 54.499C235.541 53.6964 235.497 52.8916 235.369 52.0981Z" fill="#FF725E"/>
<path d="M233.613 53.2688C233.44 54.1372 233.44 55.0313 233.613 55.8997C233.743 55.4741 233.787 55.027 233.743 54.5843C233.787 54.1415 233.743 53.6944 233.613 53.2688Z" fill="#FF725E"/>
<path d="M231.627 51.1631C231.496 52.1912 231.452 53.2287 231.497 54.2642C231.452 55.298 231.496 56.3338 231.627 57.3603C231.756 56.3336 231.8 55.298 231.757 54.2642C231.799 53.2287 231.756 52.1915 231.627 51.1631Z" fill="#FF725E"/>
<path d="M229.757 49.9375C229.622 51.434 229.577 52.9372 229.622 54.4391C229.577 55.941 229.622 57.4442 229.757 58.9407C229.886 57.4438 229.929 55.9409 229.887 54.4391C229.929 52.9373 229.886 51.4343 229.757 49.9375Z" fill="#FF725E"/>
<path d="M227.476 48.9922C227.401 48.9922 227.346 51.5581 227.346 54.7192C227.346 57.8803 227.401 60.4512 227.476 60.4512C227.551 60.4512 227.606 57.8853 227.606 54.7192C227.606 51.5531 227.546 48.9922 227.476 48.9922Z" fill="#FF725E"/>
<path d="M239.48 56.66C239.612 55.8686 239.655 55.0651 239.61 54.2641C239.655 53.4615 239.612 52.6564 239.48 51.8633C239.352 52.6567 239.308 53.4615 239.35 54.2641C239.308 55.0651 239.352 55.8683 239.48 56.66Z" fill="#FF725E"/>
<path d="M241.236 55.4945C241.409 54.626 241.409 53.7319 241.236 52.8635C241.062 53.7319 241.062 54.626 241.236 55.4945Z" fill="#FF725E"/>
<path d="M211.781 51.8633C211.652 52.6567 211.609 53.4615 211.65 54.2641C211.608 55.0651 211.652 55.8683 211.781 56.66C211.912 55.8686 211.956 55.0651 211.911 54.2641C211.955 53.4615 211.912 52.6564 211.781 51.8633Z" fill="#FF725E"/>
<path d="M210.04 53.0337C209.866 53.9021 209.866 54.7962 210.04 55.6646C210.17 55.2391 210.214 54.7919 210.17 54.3492C210.214 53.9064 210.169 53.4593 210.04 53.0337Z" fill="#FF725E"/>
<path d="M227.681 205.082L224.035 215.656C224.035 215.656 212.061 215.506 211.2 217.396L231.447 225.194L237.79 208.948L227.681 205.082Z" fill="#FF725E"/>
<path d="M230.637 217.191C230.809 217.326 230.925 217.52 230.963 217.735C231.001 217.95 230.958 218.171 230.842 218.357C230.714 218.533 230.524 218.654 230.31 218.694C230.096 218.734 229.875 218.69 229.692 218.572C229.51 218.428 229.388 218.223 229.348 217.995C229.309 217.767 229.354 217.533 229.477 217.336C229.63 217.166 229.843 217.061 230.071 217.044C230.3 217.027 230.526 217.1 230.702 217.246" fill="#E0E0E0"/>
<g opacity="0.6">
<path d="M231.447 225.194L232.028 223.553L212.396 216.696C212.396 216.696 211.34 216.741 211.2 217.416L231.447 225.194Z" fill="white"/>
</g>
<path d="M223.745 215.426C223.71 215.526 224.19 215.761 224.555 216.266C224.92 216.771 225.015 217.291 225.12 217.266C225.225 217.241 225.3 216.631 224.85 216.031C224.4 215.431 223.76 215.331 223.745 215.426Z" fill="#263238"/>
<path d="M221.284 215.486C221.224 215.576 221.589 215.906 221.784 216.456C221.979 217.007 221.884 217.482 221.984 217.517C222.084 217.552 222.364 217.017 222.134 216.336C221.904 215.656 221.324 215.396 221.284 215.486Z" fill="#263238"/>
<path d="M219.098 217.551C219.178 217.606 219.508 217.166 219.463 216.551C219.418 215.936 219.038 215.516 218.963 215.586C218.888 215.656 219.068 216.051 219.093 216.586C219.118 217.121 219.003 217.516 219.098 217.551Z" fill="#263238"/>
<path d="M224.845 213.11C224.845 213.215 225.345 213.255 225.901 213.505C226.456 213.755 226.816 214.105 226.901 214.04C226.986 213.975 226.706 213.46 226.061 213.17C225.415 212.88 224.825 213.015 224.845 213.11Z" fill="#263238"/>
<path d="M304.723 201.271L304.953 201.571L309.315 207.293L314.742 211.014L307.474 225.019H299.471C299.471 225.019 300.052 223.093 303.898 222.098L304.153 214.41L297.241 206.818" fill="#FF725E"/>
<g opacity="0.6">
<path d="M314.762 211.014L307.494 225.014L299.491 225.024L300.392 223.819L306.899 223.454L313.606 210.219L314.762 211.014Z" fill="white"/>
</g>
<path d="M303.968 218.582C304.028 218.662 304.468 218.402 305.108 218.417C305.749 218.432 306.184 218.692 306.244 218.612C306.304 218.532 305.869 218.071 305.113 218.066C304.358 218.061 303.893 218.517 303.968 218.582Z" fill="#263238"/>
<path d="M304.098 216.676C304.178 216.731 304.533 216.261 305.173 216.136C305.814 216.011 306.319 216.301 306.369 216.216C306.419 216.131 306.304 216.046 306.079 215.926C305.778 215.772 305.434 215.725 305.102 215.791C304.771 215.857 304.472 216.033 304.253 216.291C304.093 216.491 304.058 216.651 304.098 216.676Z" fill="#263238"/>
<path d="M304.043 214.225C304.133 214.27 304.403 213.81 304.958 213.615C305.514 213.42 306.019 213.615 306.059 213.515C306.099 213.415 305.979 213.36 305.759 213.28C305.463 213.174 305.139 213.174 304.843 213.28C304.548 213.385 304.296 213.585 304.128 213.85C304.008 214.05 304.003 214.21 304.043 214.225Z" fill="#263238"/>
<path d="M301.902 212.33C301.997 212.365 302.217 211.909 302.717 211.584C303.218 211.259 303.718 211.214 303.718 211.114C303.718 211.014 303.123 210.889 302.522 211.294C301.922 211.699 301.812 212.32 301.902 212.33Z" fill="#263238"/>
<g opacity="0.6">
<path d="M308.38 210.774C308.38 210.962 308.435 211.146 308.54 211.302C308.644 211.458 308.793 211.58 308.966 211.652C309.14 211.724 309.331 211.743 309.515 211.706C309.7 211.669 309.869 211.579 310.002 211.446C310.135 211.313 310.225 211.144 310.262 210.959C310.299 210.775 310.28 210.584 310.208 210.41C310.136 210.237 310.014 210.088 309.858 209.984C309.702 209.879 309.518 209.824 309.33 209.824C309.078 209.824 308.836 209.924 308.658 210.102C308.48 210.28 308.38 210.522 308.38 210.774Z" fill="white"/>
</g>
<path d="M262.748 137.618C260.858 138.319 269.916 175.587 269.916 175.587L297.261 208.463L306.374 200.61L285.922 169.154L279.504 118.467L264.759 119.267L262.748 137.618Z" fill="#263238"/>
<path d="M250.189 118.467C249.929 119.187 234.734 171.535 234.734 171.535L226.286 207.233L237.289 210.819C237.289 210.819 251.725 177.412 253.46 171.805C255.196 166.198 259.297 158.031 259.297 158.031L267.3 136.873C267.3 136.873 280.095 129.806 279.154 117.866L250.189 118.467Z" fill="#263238"/>
<path d="M224.99 209.789L225.64 205.492L238.885 209.794L237.344 214.335L224.99 209.789Z" fill="#263238"/>
<path d="M279.049 118.467C279.049 118.467 279.024 118.607 278.989 118.887L278.834 120.117C278.653 121.68 278.36 123.228 277.959 124.749C277.662 125.831 277.244 126.876 276.713 127.865C276.079 129.024 275.299 130.099 274.393 131.061C272.174 133.353 269.562 135.226 266.68 136.593L266.635 136.618V136.663C266.135 138.564 265.479 140.529 264.764 142.56C264.049 144.591 263.264 146.686 262.453 148.847C260.823 153.164 259.022 157.725 257.157 162.442C254.556 168.944 252.155 175.191 249.819 180.813C247.483 186.435 245.357 191.472 243.557 195.704C241.756 199.935 240.291 203.356 239.32 205.737C238.82 206.928 238.465 207.858 238.225 208.488L237.955 209.213C237.895 209.373 237.87 209.459 237.87 209.459C237.87 209.459 237.91 209.379 237.98 209.218L238.27 208.508L239.41 205.777C240.411 203.406 241.911 199.99 243.727 195.774C245.542 191.557 247.728 186.52 250.044 180.898C252.36 175.277 254.796 169.034 257.392 162.532C259.257 157.815 261.053 153.254 262.679 148.927C263.494 146.771 264.264 144.666 264.974 142.63C265.685 140.594 266.34 138.629 266.835 136.713L266.78 136.783C269.678 135.396 272.301 133.497 274.523 131.176C275.433 130.198 276.216 129.109 276.853 127.935C277.378 126.932 277.789 125.873 278.079 124.779C278.47 123.25 278.744 121.693 278.899 120.122C278.954 119.587 278.994 119.177 279.024 118.887C279.054 118.597 279.049 118.467 279.049 118.467Z" fill="#455A64"/>
<path d="M256.611 139.129C256.722 139.224 256.849 139.297 256.987 139.344C257.347 139.496 257.731 139.586 258.122 139.609C259.432 139.662 260.713 139.213 261.703 138.354C262.66 137.489 263.407 136.419 263.889 135.223C264.079 134.773 264.209 134.397 264.294 134.137C264.351 134.006 264.383 133.865 264.389 133.722C264.349 133.722 264.139 134.272 263.719 135.143C263.202 136.281 262.458 137.303 261.533 138.144C260.588 138.96 259.381 139.411 258.132 139.414C257.615 139.385 257.104 139.289 256.611 139.129Z" fill="#455A64"/>
<path d="M279.339 171.035C280.315 170.469 281.337 169.987 282.395 169.595C283.481 169.288 284.59 169.074 285.711 168.955C285.384 168.877 285.045 168.859 284.711 168.899C283.076 168.985 281.494 169.503 280.124 170.4C279.827 170.564 279.562 170.779 279.339 171.035Z" fill="#455A64"/>
<path d="M225.786 205.547C225.786 205.612 228.677 206.648 232.288 207.858C235.899 209.068 238.845 209.994 238.87 209.924C238.895 209.854 235.984 208.818 232.368 207.613C228.752 206.408 225.786 205.467 225.786 205.547Z" fill="#455A64"/>
<path d="M309.17 203.672L306.734 199.385L296.01 208.468L299.306 212.064L309.17 203.672Z" fill="#263238"/>
<path d="M296.01 208.469C296.171 208.375 296.319 208.261 296.45 208.128L297.586 207.128C298.541 206.288 299.861 205.127 301.377 203.927C302.892 202.727 304.228 201.576 305.198 200.751C305.698 200.341 306.074 200.001 306.339 199.75C306.604 199.5 306.749 199.375 306.734 199.36C306.57 199.448 306.416 199.552 306.274 199.67C305.989 199.886 305.583 200.201 305.083 200.591C304.083 201.381 302.712 202.481 301.212 203.712C299.711 204.942 298.386 206.103 297.461 206.978C296.995 207.413 296.63 207.773 296.38 208.028C296.239 208.159 296.115 208.307 296.01 208.469Z" fill="#455A64"/>
<path d="M256.296 38.4885C255.836 36.7779 254.551 35.9376 252.88 35.3674C252.037 35.088 251.14 35.0167 250.263 35.1596C249.387 35.3024 248.558 35.6552 247.848 36.1877C246.908 36.903 246.173 37.9433 245.057 38.3285C243.217 38.9687 241.056 37.5932 239.295 38.4185C238.757 38.6567 238.319 39.0772 238.06 39.6062C237.802 40.1351 237.738 40.7384 237.88 41.3099C238.022 41.8813 238.361 42.3842 238.838 42.73C239.315 43.0758 239.898 43.2423 240.486 43.2002C239.285 43.6403 238.915 45.3509 239.615 46.4213C240.316 47.4917 241.756 47.8918 243.011 47.6567C244.26 47.3524 245.402 46.7124 246.313 45.8061C247.263 44.9558 248.113 43.9854 249.129 43.2102C250.116 42.378 251.364 41.9194 252.655 41.9147C254.38 42.0097 255.861 43.3102 256.631 44.8607C257.402 46.4113 257.582 48.1819 257.677 49.9075C257.772 51.6331 257.802 53.4088 258.317 55.0443C258.377 55.2394 258.467 55.4545 258.662 55.5145C258.942 55.5995 259.162 55.3044 259.317 55.0443C260.895 52.1194 261.881 48.9121 262.218 45.606C262.413 43.6903 262.363 41.8797 261.313 40.2691C260.263 38.6586 257.602 37.4681 256.311 38.4885" fill="#263238"/>
<path d="M259.627 46.4912L260.508 65.868C260.663 69.1642 260.208 74.0359 255.006 74.0359C250.479 73.6958 249.139 69.4643 249.004 66.3882C248.939 64.9277 248.879 63.7123 248.864 63.5622C248.864 63.5622 243.907 63.3221 243.332 58.4554C243.051 56.1046 242.866 51.2179 242.756 46.7913C242.698 44.5023 243.502 42.275 245.01 40.5516C246.517 38.8282 248.618 37.7346 250.894 37.4881L251.364 37.438C256.466 37.183 259.522 41.3794 259.627 46.4912Z" fill="#FFBE9D"/>
<path d="M248.829 63.4975C251.084 63.296 253.229 62.4251 254.986 60.9966C254.986 60.9966 253.86 64.6629 248.949 64.7429L248.829 63.4975Z" fill="#EB996E"/>
<path d="M244.502 49.8927C244.52 50.0741 244.608 50.2414 244.747 50.3591C244.886 50.4767 245.065 50.5355 245.247 50.5229C245.337 50.5204 245.425 50.5 245.506 50.463C245.587 50.4259 245.66 50.373 245.721 50.3073C245.782 50.2416 245.828 50.1644 245.859 50.0803C245.889 49.9962 245.902 49.9069 245.898 49.8177C245.88 49.6363 245.792 49.469 245.653 49.3513C245.514 49.2337 245.334 49.1749 245.152 49.1875C245.063 49.19 244.975 49.2104 244.894 49.2474C244.812 49.2845 244.739 49.3374 244.679 49.4031C244.618 49.4688 244.571 49.546 244.541 49.6301C244.511 49.7142 244.497 49.8035 244.502 49.8927Z" fill="#263238"/>
<path d="M244.037 49.0575C244.132 49.1425 244.617 48.6924 245.367 48.6173C246.118 48.5423 246.703 48.8574 246.778 48.7574C246.853 48.6573 246.708 48.5573 246.448 48.4073C246.1 48.2166 245.702 48.1379 245.307 48.1822C244.919 48.2252 244.554 48.3878 244.262 48.6473C244.052 48.8524 243.987 49.0225 244.037 49.0575Z" fill="#263238"/>
<path d="M251.875 49.3623C251.891 49.5446 251.979 49.7131 252.118 49.8319C252.257 49.9506 252.437 50.0101 252.62 49.9975C252.709 49.9943 252.797 49.9735 252.878 49.9362C252.959 49.899 253.032 49.846 253.092 49.7805C253.153 49.7149 253.2 49.638 253.23 49.5542C253.261 49.4704 253.274 49.3814 253.27 49.2923C253.253 49.1109 253.165 48.9436 253.026 48.826C252.886 48.7083 252.707 48.6495 252.525 48.6621C252.436 48.664 252.348 48.6837 252.267 48.7202C252.185 48.7567 252.112 48.8092 252.052 48.8745C251.991 48.9398 251.944 49.0167 251.914 49.1005C251.883 49.1843 251.87 49.2733 251.875 49.3623Z" fill="#263238"/>
<path d="M251.41 48.417C251.51 48.497 251.995 48.0519 252.74 47.9718C253.485 47.8918 254.08 48.2119 254.15 48.1119C254.221 48.0118 254.08 47.9118 253.825 47.7618C253.477 47.5728 253.079 47.4959 252.685 47.5417C252.294 47.5814 251.927 47.7443 251.635 48.0068C251.425 48.2069 251.365 48.377 251.41 48.417Z" fill="#263238"/>
<path d="M249.294 54.2593C248.886 54.1755 248.469 54.1453 248.053 54.1693C247.863 54.1693 247.678 54.1693 247.633 54.0242C247.594 53.8287 247.617 53.626 247.698 53.444C247.828 52.9438 247.963 52.4437 248.108 51.9435C248.673 49.7827 249.059 48.0221 248.974 47.9971C248.889 47.9721 248.358 49.7077 247.793 51.8634C247.658 52.3936 247.528 52.8988 247.408 53.364C247.317 53.6093 247.317 53.8789 247.408 54.1242C247.444 54.1888 247.493 54.2447 247.553 54.2879C247.612 54.3311 247.681 54.3606 247.753 54.3743C247.863 54.3865 247.974 54.3865 248.083 54.3743C248.49 54.3853 248.896 54.3467 249.294 54.2593Z" fill="#263238"/>
<path d="M250.904 45.4909C250.999 45.6859 251.739 45.4909 252.63 45.5259C253.52 45.5609 254.255 45.7009 254.35 45.5259C254.395 45.4308 254.25 45.2558 253.94 45.0857C253.534 44.8807 253.085 44.7761 252.63 44.7806C252.175 44.7714 251.726 44.8727 251.319 45.0757C251.009 45.2308 250.864 45.4058 250.904 45.4909Z" fill="#263238"/>
<path d="M244.082 46.8617C244.232 47.0168 244.727 46.7867 245.347 46.7117C245.968 46.6366 246.503 46.7117 246.608 46.5166C246.653 46.4216 246.548 46.2615 246.303 46.1265C245.976 45.9584 245.605 45.8989 245.242 45.9564C244.878 46.0012 244.537 46.1586 244.267 46.4066C244.067 46.6016 244.012 46.7867 244.082 46.8617Z" fill="#263238"/>
<path d="M259.612 50.1328C259.692 50.0878 262.853 48.7873 263.114 52.1335C263.374 55.4797 259.952 55.0345 259.942 54.9395C259.932 54.8444 259.612 50.1328 259.612 50.1328Z" fill="#FFBE9D"/>
<path d="M260.858 53.5937C260.858 53.5937 260.918 53.6287 261.023 53.6687C261.163 53.7246 261.319 53.7246 261.458 53.6687C261.665 53.5168 261.826 53.3123 261.927 53.0765C262.027 52.8407 262.062 52.5822 262.028 52.3282C262.016 52.036 261.937 51.7504 261.798 51.4929C261.76 51.3902 261.698 51.2984 261.616 51.226C261.534 51.1535 261.435 51.1026 261.328 51.0778C261.259 51.0638 261.188 51.0747 261.126 51.1086C261.065 51.1425 261.018 51.1972 260.993 51.2629C260.958 51.3579 260.993 51.4229 260.993 51.4329C260.993 51.4429 260.918 51.3779 260.933 51.2378C260.946 51.1551 260.986 51.0791 261.048 51.0228C261.09 50.9839 261.14 50.954 261.194 50.9351C261.248 50.9162 261.306 50.9086 261.363 50.9127C261.502 50.9287 261.635 50.9804 261.748 51.0628C261.861 51.1452 261.951 51.2555 262.008 51.3829C262.173 51.6628 262.268 51.9787 262.283 52.3032C262.323 52.5991 262.273 52.8999 262.14 53.1672C262.007 53.4345 261.798 53.6561 261.538 53.8037C261.45 53.8362 261.356 53.8485 261.262 53.8398C261.169 53.8312 261.079 53.8018 260.998 53.7537C260.873 53.6737 260.848 53.5987 260.858 53.5937Z" fill="#EB996E"/>
<path d="M241.596 45.8761C242.704 46.0389 243.836 45.936 244.896 45.576C245.957 45.216 246.918 44.6091 247.698 43.8053C248.773 42.6699 249.534 41.1294 250.974 40.5142C251.467 40.3252 251.992 40.2363 252.519 40.2527C253.047 40.269 253.565 40.3902 254.045 40.6092C254.998 41.0512 255.849 41.6845 256.546 42.4699C255.871 45.0458 256.796 47.7467 257.712 50.2476C257.782 50.5352 257.948 50.7907 258.182 50.9728C258.607 51.2329 259.182 50.9378 259.477 50.5377C259.919 49.8649 260.152 49.0767 260.147 48.2719C260.306 46.4489 260.1 44.6127 259.542 42.87C258.976 41.1231 257.91 39.5806 256.476 38.4334C254.626 37.0589 252.315 36.4564 250.029 36.7528C247.753 37.0644 245.633 38.0867 243.972 39.6739C243.169 40.3706 242.552 41.2557 242.176 42.2498" fill="#263238"/>
<path d="M249.054 56.3749C249.155 56.676 249.3 56.9607 249.484 57.2202C249.577 57.35 249.696 57.4587 249.834 57.5389C249.972 57.6191 250.125 57.669 250.284 57.6854C250.454 57.6862 250.621 57.644 250.769 57.5626C250.918 57.4813 251.044 57.3634 251.134 57.2202C251.315 56.9303 251.399 56.5905 251.374 56.2499C251.374 55.9447 251.219 55.5796 250.914 55.5446C250.786 55.5392 250.659 55.5667 250.544 55.6246L248.949 56.2699" fill="#EB996E"/>
<path d="M249.689 57.6853C249.978 57.7055 250.268 57.6698 250.544 57.5803C250.822 57.4722 251.049 57.2657 251.184 57.0001C251.259 56.8359 251.297 56.6577 251.297 56.4774C251.297 56.2971 251.259 56.1189 251.184 55.9547C251.149 55.8694 251.104 55.7888 251.049 55.7146C250.984 55.6496 250.994 55.6496 250.929 55.6596L250.669 55.7597L250.409 55.8697C250.069 56.0047 249.759 56.1298 249.499 56.2248C249.225 56.3589 248.931 56.4468 248.628 56.4849C248.868 56.2973 249.134 56.1472 249.419 56.0398C249.669 55.9197 249.969 55.7797 250.304 55.6296L250.564 55.5096C250.659 55.4746 250.729 55.4295 250.854 55.3895C250.932 55.365 251.016 55.365 251.094 55.3895C251.164 55.4197 251.225 55.4681 251.269 55.5296C251.342 55.6217 251.402 55.7225 251.449 55.8297C251.535 56.0329 251.575 56.2525 251.567 56.473C251.558 56.6934 251.501 56.9093 251.399 57.1051C251.316 57.2634 251.201 57.4031 251.061 57.5157C250.922 57.6283 250.761 57.7116 250.589 57.7604C250.366 57.8337 250.127 57.8441 249.899 57.7904C249.759 57.7554 249.684 57.7053 249.689 57.6853Z" fill="#263238"/>
<path d="M233.263 83.2443L242.511 103.011C242.943 103.935 243.602 104.734 244.426 105.335C245.249 105.936 246.212 106.318 247.223 106.447C248.52 106.613 249.837 106.355 250.974 105.71C252.112 105.065 253.011 104.069 253.535 102.871L260.438 87.0606L248.434 72.9307L247.263 89.9016L239.675 79.1529L233.263 83.2443Z" fill="#FF725E"/>
<path d="M249.964 96.5688C249.652 95.374 249.252 94.2038 248.769 93.0676C248.369 91.9069 247.89 90.7754 247.333 89.6814C247.646 90.8677 248.046 92.0296 248.529 93.1576C248.927 94.3269 249.406 95.4667 249.964 96.5688Z" fill="#263238"/>
<path d="M250.189 118.467L248.028 116.061C247.655 115.648 247.371 115.163 247.195 114.635C247.018 114.108 246.953 113.549 247.003 112.995L248.148 110.094L246.618 75.6568C246.463 72.8658 246.498 68.8444 249.119 67.714L260.448 64.3628C260.448 64.3628 268.17 66.0084 269.996 70.0448C271.431 73.2109 273.667 94.6184 273.667 94.6184L276.918 103.306C277.294 105.017 279.774 114.6 279.919 116.811L279.489 118.477L250.189 118.467Z" fill="#FF725E"/>
<path d="M248.148 110.094C248.148 110.094 248.148 110.034 248.148 109.914C248.148 109.794 248.148 109.604 248.148 109.413C248.148 108.913 248.148 108.268 248.148 107.453C248.148 105.747 248.113 103.376 248.093 100.595C247.933 98.6547 247.798 96.4939 247.668 94.2181C247.423 89.8316 247.233 85.8602 247.028 82.9842C246.928 81.5487 246.828 80.3883 246.753 79.588C246.708 79.2078 246.678 78.9027 246.653 78.6626C246.645 78.5544 246.626 78.4472 246.598 78.3425C246.585 78.4505 246.585 78.5597 246.598 78.6676C246.598 78.9077 246.628 79.2128 246.648 79.593C246.698 80.4283 246.763 81.5937 246.843 82.9992C246.988 85.9002 247.188 89.8616 247.408 94.2331C247.538 96.5089 247.683 98.6747 247.858 100.62C247.918 103.401 247.968 105.767 248.008 107.478C248.033 108.293 248.058 108.948 248.073 109.433C248.073 109.639 248.073 109.809 248.098 109.934C248.11 109.988 248.127 110.042 248.148 110.094Z" fill="#263238"/>
<path d="M268.62 125.289L258.387 121.738L267.255 97.8842L261.188 77.187C260.262 73.6157 261.878 68.5939 265.449 67.6836C265.604 67.6436 265.884 66.3632 266.04 66.4282C267.445 67.0034 270.951 69.3792 272.402 71.725C273.503 73.5322 274.3 75.5073 274.763 77.5721L278.444 93.3977C279.164 96.4921 278.914 99.7333 277.729 102.681L268.62 125.289Z" fill="#FF725E"/>
<path d="M278.304 101.011C278.279 101.044 278.261 101.081 278.249 101.121L278.104 101.461L277.569 102.781L275.568 107.758L268.686 125.234L268.841 125.164L258.462 121.603L258.392 121.853C258.507 121.76 258.597 121.64 258.652 121.503L258.757 121.228C258.827 121.048 258.897 120.863 258.972 120.678C259.112 120.307 259.252 119.932 259.397 119.557C259.688 118.802 259.978 118.032 260.273 117.256C262.929 110.184 265.425 103.552 267.545 97.9095V97.8795V97.8445C266.12 91.6674 264.929 86.5105 264.089 82.8793C263.669 81.0836 263.334 79.6681 263.089 78.6878C262.974 78.2126 262.884 77.8475 262.819 77.5874C262.789 77.4674 262.764 77.3773 262.749 77.3023L262.719 77.2073C262.713 77.2404 262.713 77.2742 262.719 77.3073C262.719 77.3823 262.754 77.4724 262.774 77.5924C262.834 77.8575 262.909 78.2276 263.009 78.7028C263.229 79.7031 263.539 81.1086 263.934 82.9093L267.3 97.9145V97.8495C265.175 103.487 262.669 110.114 259.998 117.186L259.127 119.482L258.697 120.608L258.487 121.158L258.382 121.428C258.375 121.438 258.371 121.45 258.371 121.463C258.371 121.475 258.375 121.488 258.382 121.498C258.386 121.514 258.386 121.531 258.382 121.548V121.583V121.608L258.357 121.728L258.312 121.858L268.801 125.399L268.911 125.439L268.951 125.329L275.743 107.823L277.664 102.821L278.164 101.491C278.214 101.346 278.254 101.231 278.289 101.146C278.324 101.061 278.304 101.011 278.304 101.011Z" fill="#263238"/>
<path d="M272.877 98.5796C272.682 98.3674 272.445 98.1972 272.182 98.0794C271.57 97.7579 270.906 97.5463 270.221 97.4542C269.536 97.3588 268.84 97.3859 268.165 97.5342C267.88 97.5708 267.607 97.6699 267.365 97.8243C268.297 97.665 269.245 97.6263 270.186 97.7093C271.116 97.8848 272.02 98.1772 272.877 98.5796Z" fill="#263238"/>
<g opacity="0.3">
<path d="M245.517 87.4609L244.677 105.512C245.562 106.183 246.788 106.448 248.178 106.513C248.153 105.947 247.223 89.9218 247.223 89.9218L245.517 87.4609Z" fill="black"/>
</g>
<path d="M246.628 72.9305C246.688 72.9796 246.753 73.0216 246.823 73.0556C247.015 73.169 247.214 73.2709 247.418 73.3607C248.17 73.6978 248.959 73.9446 249.769 74.0959C252.449 74.5572 255.201 74.3737 257.797 73.5607C260.406 72.765 262.784 71.3511 264.729 69.4393C265.316 68.8645 265.856 68.244 266.345 67.5836C266.52 67.3536 266.64 67.1585 266.725 67.0334C266.77 66.9694 266.809 66.9007 266.84 66.8284C266.648 67.0418 266.467 67.2656 266.3 67.4986C265.787 68.1307 265.232 68.7273 264.639 69.2842C262.685 71.1315 260.329 72.5011 257.757 73.2856C255.185 74.0997 252.461 74.3152 249.794 73.9159C248.991 73.7834 248.205 73.5654 247.448 73.2656C247.18 73.1403 246.907 73.0285 246.628 72.9305Z" fill="#FAFAFA"/>
<path d="M264.214 82.8541C264.379 82.8802 264.548 82.8802 264.714 82.8541C265.161 82.8165 265.605 82.753 266.044 82.664C267.497 82.3666 268.894 81.8452 270.186 81.1185C271.471 80.3826 272.64 79.4587 273.652 78.3775C273.959 78.0589 274.249 77.725 274.522 77.3772C274.63 77.2526 274.72 77.1147 274.792 76.967C274.757 76.937 274.317 77.4672 273.522 78.2675C272.486 79.2963 271.321 80.1858 270.056 80.9134C268.784 81.6263 267.421 82.1615 266.004 82.504C264.904 82.7341 264.209 82.8091 264.214 82.8541Z" fill="#FAFAFA"/>
<path d="M247.623 87.4607C247.828 87.5637 248.042 87.6458 248.263 87.7058C248.855 87.912 249.46 88.0791 250.074 88.206C250.982 88.4047 251.903 88.5351 252.83 88.5961C253.967 88.6666 255.107 88.6483 256.241 88.5411C258.299 88.3075 260.318 87.803 262.243 87.0406C262.979 86.7505 263.569 86.4904 263.959 86.2903C264.171 86.2001 264.374 86.0895 264.564 85.9602C264.342 86.0188 264.126 86.0975 263.919 86.1953C263.514 86.3703 262.919 86.6004 262.178 86.8655C260.253 87.5652 258.252 88.0337 256.216 88.261C255.098 88.3684 253.973 88.3951 252.85 88.341C251.932 88.2851 251.018 88.1732 250.114 88.0059C248.564 87.7258 247.638 87.4107 247.623 87.4607Z" fill="#FAFAFA"/>
<path d="M248.293 101.096C248.517 101.219 248.751 101.321 248.994 101.401C249.272 101.514 249.556 101.612 249.844 101.696C250.179 101.796 250.554 101.931 250.989 102.026C251.425 102.121 251.885 102.241 252.4 102.321C252.915 102.401 253.465 102.476 254.045 102.541C255.31 102.648 256.582 102.648 257.847 102.541C259.109 102.407 260.358 102.165 261.578 101.816C262.138 101.641 262.668 101.481 263.149 101.286C263.629 101.091 264.079 100.905 264.479 100.72C264.879 100.535 265.229 100.34 265.544 100.18C265.86 100.02 266.11 99.8601 266.32 99.7251C266.542 99.5998 266.752 99.4559 266.95 99.2949C266.711 99.3872 266.481 99.5028 266.265 99.64C266.055 99.7601 265.79 99.9051 265.474 100.05C265.159 100.195 264.814 100.39 264.404 100.55C263.994 100.71 263.564 100.915 263.074 101.081C262.583 101.246 262.073 101.421 261.513 101.581C260.295 101.907 259.052 102.135 257.797 102.261C256.548 102.376 255.292 102.389 254.04 102.301C253.465 102.241 252.92 102.201 252.41 102.106C251.9 102.011 251.435 101.941 251.004 101.846C250.574 101.751 250.194 101.646 249.859 101.556C249.524 101.466 249.234 101.381 249.004 101.306C248.775 101.212 248.537 101.142 248.293 101.096Z" fill="#FAFAFA"/>
<path d="M240.04 98.9347C240.499 98.8936 240.949 98.7858 241.376 98.6146C243.489 97.8961 245.372 96.625 246.828 94.9333C247.143 94.6002 247.411 94.2248 247.623 93.8179C247.293 94.1336 246.981 94.4676 246.688 94.8182C245.181 96.4125 243.337 97.6497 241.291 98.4395C240.536 98.7496 240.03 98.8947 240.04 98.9347Z" fill="#FAFAFA"/>
<path d="M235.789 88.4711C236.197 88.4155 236.595 88.2992 236.969 88.126C237.897 87.7645 238.775 87.289 239.585 86.7105C240.397 86.1354 241.136 85.4636 241.786 84.7098C242.071 84.4125 242.312 84.0756 242.501 83.7095C241.562 84.7285 240.536 85.664 239.435 86.5055C238.28 87.2665 237.06 87.9242 235.789 88.4711Z" fill="#FAFAFA"/>
<path d="M267.12 95.0085C267.264 95.0649 267.416 95.0986 267.57 95.1086C267.984 95.1709 268.402 95.2076 268.82 95.2186C271.611 95.3077 274.367 94.583 276.753 93.1329C277.113 92.9161 277.459 92.6772 277.789 92.4176C278.019 92.2325 278.144 92.1275 278.134 92.1125C278.124 92.0975 277.579 92.4626 276.633 92.9728C274.238 94.309 271.543 95.0178 268.8 95.0335C267.775 95.0385 267.125 94.9635 267.12 95.0085Z" fill="#FAFAFA"/>
<path d="M266.005 102.686C266.005 102.731 266.615 102.721 267.58 102.836C270.113 103.134 272.51 104.143 274.493 105.747C275.253 106.357 275.668 106.802 275.698 106.772C275.728 106.742 275.623 106.637 275.443 106.432C275.187 106.137 274.909 105.861 274.613 105.607C272.657 103.894 270.201 102.858 267.61 102.651C267.22 102.625 266.829 102.625 266.44 102.651C266.294 102.639 266.147 102.651 266.005 102.686Z" fill="#FAFAFA"/>
<path d="M260.608 116.086C260.608 116.136 261.248 116.026 262.273 116.036C262.872 116.046 263.469 116.101 264.059 116.201C265.506 116.446 266.893 116.966 268.145 117.731C268.658 118.041 269.144 118.39 269.601 118.777C270.381 119.442 270.786 119.937 270.826 119.907C270.758 119.772 270.67 119.647 270.566 119.537C270.31 119.217 270.029 118.917 269.726 118.642C269.276 118.228 268.791 117.855 268.276 117.526C267.641 117.131 266.972 116.796 266.275 116.526C265.572 116.268 264.844 116.08 264.104 115.966C263.5 115.871 262.889 115.834 262.278 115.856C261.867 115.861 261.457 115.901 261.053 115.976C260.9 115.991 260.75 116.028 260.608 116.086Z" fill="#FAFAFA"/>
<path d="M273.973 112.475C275.646 112.443 277.312 112.241 278.944 111.869C278.107 111.838 277.269 111.895 276.443 112.039C275.607 112.1 274.779 112.246 273.973 112.475Z" fill="#FAFAFA"/>
<g opacity="0.3">
<path d="M277.489 105.692C277.407 108.018 277.008 110.322 276.303 112.54C275.803 114.18 277.529 116.771 275.498 118.467H271.496C273.442 113.68 275.298 108.658 277.088 104.152" fill="black"/>
</g>
<path d="M248.793 110.449C248.879 110.574 248.98 110.689 249.094 110.789C249.385 111.079 249.698 111.346 250.029 111.589C250.522 111.951 251.046 112.269 251.594 112.54C252.268 112.867 252.972 113.13 253.695 113.325C254.423 113.508 255.167 113.621 255.916 113.665C256.527 113.698 257.14 113.674 257.747 113.595C258.154 113.55 258.557 113.471 258.952 113.36C259.101 113.331 259.245 113.279 259.377 113.205C259.377 113.16 258.747 113.325 257.727 113.415C257.129 113.461 256.529 113.461 255.931 113.415C255.199 113.36 254.473 113.243 253.76 113.065C253.054 112.87 252.365 112.619 251.699 112.315C251.157 112.059 250.635 111.762 250.139 111.424C249.294 110.859 248.843 110.414 248.793 110.449Z" fill="#263238"/>
<path d="M254.101 113.285C254.393 113.492 254.718 113.651 255.061 113.755C255.874 114.049 256.724 114.231 257.587 114.295C258.447 114.357 259.312 114.317 260.163 114.175C260.519 114.142 260.868 114.056 261.198 113.92C261.198 113.83 259.582 114.175 257.607 114.035C256.416 113.9 255.242 113.648 254.101 113.285Z" fill="#FAFAFA"/>
<path d="M231.087 74.3262L226.186 73.9711C226.186 73.9711 225.115 75.3315 225.971 76.3919C226.826 77.4523 228.471 80.2383 228.471 80.2383L232.288 80.7785L233.818 83.5444L239.61 79.7931L236.979 74.5513L232.723 70.825L230.017 70.88L228.516 72.6956C228.516 72.6956 230.187 73.5159 230.987 72.1954L232.283 72.4505V73.2008C232.285 73.3551 232.254 73.5081 232.194 73.6501C232.134 73.7921 232.044 73.92 231.932 74.0258C231.82 74.1316 231.687 74.2129 231.541 74.2646C231.396 74.3163 231.241 74.3373 231.087 74.3262Z" fill="#FFBE9D"/>
<path d="M226.246 74.1559L222.909 73.1956C222.703 73.1706 222.494 73.1962 222.299 73.2702C222.105 73.3443 221.931 73.4646 221.794 73.6208L221.694 73.9659L225.785 75.7365L226.246 74.1559Z" fill="#FFBE9D"/>
<path d="M233.533 77.8222C233.415 77.5622 233.264 77.3184 233.083 77.0969C232.683 76.5602 232.411 75.9392 232.288 75.2813C232.234 74.9253 232.266 74.5616 232.383 74.2209C232.44 74.0583 232.484 73.8909 232.513 73.7208C232.539 73.5685 232.539 73.4129 232.513 73.2606C232.481 72.9725 232.396 72.6927 232.263 72.4353C232.253 72.7203 232.274 73.0055 232.328 73.2856C232.359 73.5781 232.305 73.8733 232.173 74.1359C232.033 74.5111 231.99 74.9152 232.048 75.3113C232.176 76.0108 232.489 76.6634 232.953 77.202C233.288 77.6171 233.508 77.8422 233.533 77.8222Z" fill="#EB996E"/>
<path d="M219.918 70.1646C219.918 70.2596 219.418 71.32 219.418 71.32L232.988 78.0573L233.668 76.7869L219.918 70.1646Z" fill="#263238"/>
<path d="M228.486 80.003C228.414 79.9269 228.358 79.837 228.321 79.7387C228.284 79.6404 228.267 79.5357 228.271 79.4308C228.275 79.3259 228.3 79.2229 228.345 79.1278C228.39 79.0328 228.453 78.9477 228.531 78.8776C228.862 78.6028 229.265 78.4291 229.692 78.3774C230.37 78.2162 231.065 78.134 231.762 78.1324C231.992 78.1278 232.218 78.1793 232.423 78.2824C232.524 78.3364 232.608 78.4195 232.662 78.5211C232.716 78.6226 232.739 78.738 232.728 78.8526C232.673 79.1277 232.383 79.2778 232.123 79.3778C231.419 79.6468 230.688 79.8347 229.942 79.938" fill="#FFBE9D"/>
<path d="M229.942 79.9681C230.392 79.9809 230.842 79.9201 231.272 79.788C231.473 79.738 231.693 79.673 231.923 79.598C232.19 79.5288 232.44 79.4063 232.658 79.2378C232.723 79.1791 232.774 79.1072 232.808 79.027C232.843 78.9467 232.86 78.86 232.858 78.7727C232.843 78.594 232.761 78.4277 232.628 78.3075C232.358 78.1006 232.021 78.0024 231.683 78.0324C231.083 78.0365 230.486 78.107 229.902 78.2425C229.402 78.2953 228.926 78.48 228.521 78.7777C228.388 78.8943 228.291 79.0469 228.242 79.2173C228.193 79.3876 228.195 79.5684 228.246 79.738C228.336 79.9781 228.486 80.0281 228.486 80.0181C228.486 80.0081 228.391 79.9231 228.341 79.713C228.317 79.565 228.332 79.4131 228.384 79.2727C228.437 79.1322 228.526 79.0081 228.642 78.9127C229.035 78.6638 229.483 78.5144 229.947 78.4776C230.517 78.3601 231.096 78.2982 231.678 78.2925C231.952 78.2633 232.227 78.3344 232.453 78.4926C232.498 78.5241 232.535 78.5653 232.562 78.6132C232.589 78.6611 232.604 78.7144 232.608 78.7692C232.611 78.824 232.602 78.8789 232.581 78.9297C232.561 78.9805 232.529 79.026 232.488 79.0628C232.299 79.2126 232.084 79.3246 231.853 79.3929C231.628 79.4779 231.417 79.5479 231.222 79.608C230.442 79.848 229.937 79.9231 229.942 79.9681Z" fill="#EB996E"/>
<path d="M226.816 77.3572C227.886 76.887 228.666 76.6369 229.737 76.1718C230.068 75.9811 230.452 75.9021 230.832 75.9467C231.207 76.0317 231.507 76.4819 231.302 76.802C231.218 76.9078 231.112 76.9947 230.992 77.0571L227.881 78.9477" fill="#FFBE9D"/>
<path d="M227.881 78.9478C228.311 78.775 228.723 78.5606 229.112 78.3076L230.412 77.5523L231.182 77.0922C231.266 77.0418 231.338 76.9735 231.392 76.8923C231.447 76.811 231.483 76.7187 231.497 76.622C231.501 76.524 231.486 76.4261 231.451 76.3342C231.417 76.2423 231.365 76.1582 231.297 76.0868C231.169 75.9385 230.991 75.841 230.797 75.8117C230.632 75.7792 230.462 75.7792 230.297 75.8117C230.006 75.8975 229.724 76.0079 229.452 76.1418L228.066 76.727C227.628 76.8788 227.209 77.0837 226.821 77.3373C227.269 77.2225 227.709 77.0754 228.136 76.8971C228.536 76.7521 229.022 76.582 229.547 76.3619C229.808 76.2398 230.079 76.1394 230.357 76.0618C230.486 76.0176 230.625 76.0105 230.757 76.0415C230.89 76.0724 231.011 76.1402 231.107 76.2369C231.195 76.3304 231.243 76.4539 231.242 76.582C231.233 76.641 231.21 76.697 231.175 76.7456C231.141 76.7943 231.095 76.8341 231.042 76.8621L230.292 77.3273L229.022 78.1325C228.616 78.3675 228.235 78.6405 227.881 78.9478Z" fill="#EB996E"/>
<path d="M225.785 75.7366L228.717 74.6613C229.061 74.4944 229.45 74.4419 229.827 74.5112C230.192 74.6162 230.467 75.0864 230.242 75.3915C230.153 75.4946 230.042 75.5766 229.917 75.6316L226.691 77.3172" fill="#FFBE9D"/>
<path d="M226.696 77.3172C227.134 77.1695 227.558 76.982 227.961 76.757L229.287 76.0867L230.082 75.6816C230.169 75.6399 230.246 75.5792 230.307 75.5039C230.367 75.4285 230.41 75.3406 230.432 75.2464C230.447 75.1485 230.441 75.0487 230.415 74.9532C230.389 74.8577 230.344 74.7685 230.282 74.6912C230.17 74.536 230.007 74.4246 229.822 74.3761C229.657 74.3434 229.487 74.3434 229.322 74.3761C229.025 74.4354 228.735 74.5259 228.457 74.6462L227.056 75.1864C226.616 75.331 226.192 75.5204 225.791 75.7516C226.244 75.6601 226.69 75.5295 227.121 75.3615L228.537 74.8613C228.804 74.7547 229.08 74.6727 229.362 74.6162C229.493 74.5826 229.632 74.5868 229.761 74.6284C229.89 74.67 230.005 74.7473 230.092 74.8513C230.522 75.3965 229.622 75.5966 229.192 75.8817L227.876 76.6019C227.461 76.8019 227.066 77.0414 226.696 77.3172Z" fill="#EB996E"/>
<path d="M226 70.4999C226.03 70.4999 225.945 70.2048 225.66 69.8247C225.28 69.3361 224.771 68.9637 224.19 68.7493C223.608 68.5341 222.976 68.489 222.369 68.6192C221.909 68.7243 221.659 68.8843 221.674 68.9143C221.689 68.9444 221.954 68.8543 222.399 68.8043C222.973 68.733 223.556 68.7981 224.1 68.9944C224.64 69.198 225.126 69.5231 225.52 69.9447C225.82 70.2698 225.965 70.4999 226 70.4999Z" fill="#263238"/>
<path d="M227.161 69.8847C227.058 69.521 226.866 69.189 226.601 68.9194C225.996 68.2298 225.201 67.7354 224.315 67.4989C223.433 67.266 222.507 67.2523 221.619 67.4589C221.25 67.5209 220.895 67.6515 220.574 67.844C220.574 67.884 220.989 67.749 221.654 67.6439C222.515 67.4961 223.398 67.5319 224.245 67.749C225.087 67.9766 225.853 68.4236 226.466 69.0444C226.931 69.5246 227.121 69.9097 227.161 69.8847Z" fill="#263238"/>
<path d="M228.842 69.3344C228.842 69.3344 228.792 69.1943 228.646 68.9793C228.442 68.6765 228.209 68.3935 227.951 68.134C227.1 67.2595 226.045 66.6114 224.88 66.2483C223.715 65.8932 222.479 65.8313 221.284 66.0682C220.925 66.1385 220.573 66.2423 220.234 66.3783C220.104 66.4159 219.981 66.4769 219.873 66.5584C219.873 66.6034 220.419 66.3883 221.314 66.2483C222.479 66.0628 223.67 66.1467 224.797 66.4935C225.925 66.8403 226.957 67.4409 227.816 68.249C228.486 68.8842 228.787 69.3594 228.842 69.3344Z" fill="#263238"/>
<path d="M230.032 68.7691C230.004 68.6034 229.95 68.4431 229.872 68.2939C229.683 67.8778 229.433 67.4919 229.132 67.1485C228.687 66.637 228.167 66.1953 227.591 65.8381C226.887 65.4015 226.135 65.0473 225.35 64.7827C223.92 64.2857 222.382 64.1855 220.899 64.4926C220.454 64.5799 220.017 64.7054 219.593 64.8677C219.433 64.9123 219.281 64.9833 219.143 65.0778C219.143 65.1228 219.818 64.8577 220.934 64.6727C222.385 64.4267 223.874 64.5488 225.265 65.0278C226.672 65.4615 227.953 66.2304 228.997 67.2686C229.394 67.7304 229.741 68.2334 230.032 68.7691Z" fill="#263238"/>
<path d="M257.902 126.139C258.902 125.779 258.817 126.485 258.452 127.315C260.393 128.54 262.513 130.066 264.809 130.081L267.25 124.619L260.298 122.248L260.173 122.598C259.472 123.265 258.712 123.866 257.902 124.394C257.487 124.671 257.029 124.875 256.546 124.999C255.952 125.174 255.336 125.267 254.716 125.274C254.598 125.256 254.478 125.276 254.372 125.329C254.266 125.383 254.18 125.468 254.125 125.573C254.07 125.679 254.049 125.798 254.065 125.916C254.081 126.034 254.134 126.143 254.215 126.229C254.616 126.57 256.176 126.75 257.902 126.139Z" fill="#FFBE9D"/>
<path d="M257.702 126.755C257.942 127.081 258.23 127.37 258.557 127.61C259.311 128.236 260.139 128.767 261.023 129.19C261.906 129.615 262.838 129.928 263.799 130.121C264.192 130.224 264.598 130.269 265.004 130.256C262.32 129.708 259.814 128.505 257.707 126.755H257.702Z" fill="#455A64"/>
</svg>
