<svg width="48" height="48" viewBox="0 0 48 48" fill="none" xmlns="http://www.w3.org/2000/svg">
<circle cx="24" cy="24" r="22.5" stroke="#717171" stroke-width="3"/>
<mask id="mask0_709_69" style="mask-type:alpha" maskUnits="userSpaceOnUse" x="3" y="3" width="42" height="42">
<rect x="3" y="3" width="42" height="42" fill="#D9D9D9"/>
</mask>
<g mask="url(#mask0_709_69)">
<path d="M24.3158 27.6842C23.0877 27.6842 22.0439 27.2544 21.1842 26.3947C20.3246 25.5351 19.8947 24.4912 19.8947 23.2632V14.4211C19.8947 13.193 20.3246 12.1491 21.1842 11.2895C22.0439 10.4298 23.0877 10 24.3158 10C25.5439 10 26.5877 10.4298 27.4474 11.2895C28.307 12.1491 28.7368 13.193 28.7368 14.4211V23.2632C28.7368 24.4912 28.307 25.5351 27.4474 26.3947C26.5877 27.2544 25.5439 27.6842 24.3158 27.6842ZM22.8421 38V33.4684C20.2877 33.1246 18.1754 31.9825 16.5053 30.0421C14.8351 28.1018 14 25.8421 14 23.2632H16.9474C16.9474 25.3018 17.6658 27.0395 19.1026 28.4763C20.5395 29.9132 22.2772 30.6316 24.3158 30.6316C26.3544 30.6316 28.0921 29.9132 29.5289 28.4763C30.9658 27.0395 31.6842 25.3018 31.6842 23.2632H34.6316C34.6316 25.8421 33.7965 28.1018 32.1263 30.0421C30.4561 31.9825 28.3439 33.1246 25.7895 33.4684V38H22.8421ZM24.3158 24.7368C24.7333 24.7368 25.0833 24.5956 25.3658 24.3132C25.6482 24.0307 25.7895 23.6807 25.7895 23.2632V14.4211C25.7895 14.0035 25.6482 13.6535 25.3658 13.3711C25.0833 13.0886 24.7333 12.9474 24.3158 12.9474C23.8982 12.9474 23.5482 13.0886 23.2658 13.3711C22.9833 13.6535 22.8421 14.0035 22.8421 14.4211V23.2632C22.8421 23.6807 22.9833 24.0307 23.2658 24.3132C23.5482 24.5956 23.8982 24.7368 24.3158 24.7368Z" fill="#FF725E"/>
</g>
</svg>
