<svg width="40" height="40" viewBox="0 0 40 40" fill="none" xmlns="http://www.w3.org/2000/svg">
<rect width="40" height="40" rx="20" fill="#7B7B7B"/>
<path d="M23.1301 33C22.7897 33 22.4826 32.9685 22.2087 32.9057C21.9349 32.8428 21.6758 32.7521 21.4316 32.6337V8.38855C21.6758 8.27015 21.9312 8.17579 22.1976 8.10547C22.464 8.03516 22.7601 8 23.0857 8C24.2402 8 25.2431 8.39779 26.0941 9.19337C26.9453 9.98898 27.4374 10.9566 27.5706 12.0964C28.888 12.2814 30.0073 12.879 30.9287 13.8892C31.8502 14.8994 32.3109 16.1076 32.3109 17.5138C32.3109 17.9578 32.2572 18.3834 32.1499 18.7904C32.0426 19.1975 31.9038 19.586 31.7336 19.956C32.1406 20.4815 32.4644 21.0865 32.7049 21.7711C32.9455 22.4557 33.0657 23.1199 33.0657 23.7638C33.0657 25.3328 32.5273 26.6408 31.4505 27.6881C30.3737 28.7353 29.0878 29.2589 27.5928 29.2589C27.3634 30.2802 26.8361 31.1591 26.0109 31.8954C25.1857 32.6318 24.2254 33 23.1301 33ZM16.9134 33C15.8033 33 14.8375 32.6318 14.016 31.8954C13.1945 31.1591 12.6764 30.2802 12.4618 29.2589C10.952 29.2441 9.6643 28.702 8.59858 27.6325C7.53286 26.5631 7 25.2439 7 23.6749C7 23.0089 7.11472 22.3669 7.34416 21.7489C7.57358 21.1309 7.91031 20.5592 8.35436 20.0337C8.14713 19.6563 7.9954 19.2604 7.8992 18.8459C7.803 18.4315 7.7549 17.9874 7.7549 17.5138C7.7549 16.1446 8.20634 14.9494 9.10923 13.9281C10.0121 12.9068 11.1149 12.2962 12.4174 12.0964C12.5506 10.9344 13.0391 9.96123 13.8828 9.17672C14.7265 8.39224 15.7441 8 16.9356 8C17.2613 8 17.561 8.03516 17.8348 8.10547C18.1087 8.17579 18.3751 8.26274 18.6341 8.36634V32.6337C18.3751 32.7521 18.1087 32.8428 17.8348 32.9057C17.561 32.9685 17.2539 33 16.9134 33Z" fill="#F8F8F8"/>
</svg>
