<svg width="60" height="60" viewBox="0 0 60 60" fill="none" xmlns="http://www.w3.org/2000/svg">
<rect width="60" height="60" rx="20" fill="#FF725E"/>
<path d="M33.75 9.37506C33.75 9.00628 33.6412 8.6457 33.4373 8.33843C33.2333 8.03116 32.9433 7.79085 32.6035 7.64756C32.2637 7.50427 31.8892 7.46438 31.5268 7.53286C31.1645 7.60133 30.8303 7.77515 30.5662 8.03256L19.59 18.7201H13.125C11.6332 18.7201 10.2024 19.3127 9.14752 20.3676C8.09263 21.4225 7.5 22.8532 7.5 24.3451V35.5576C7.5 37.0494 8.09263 38.4801 9.14752 39.535C10.2024 40.5899 11.6332 41.1826 13.125 41.1826H19.5863L30.5625 51.9638C30.8262 52.2223 31.1603 52.3971 31.5229 52.4664C31.8856 52.5358 32.2606 52.4965 32.6011 52.3535C32.9415 52.2105 33.2321 51.9702 33.4365 51.6628C33.6409 51.3553 33.7499 50.9943 33.75 50.6251V9.37506ZM37.9163 19.4588C38.0696 19.2659 38.2594 19.1051 38.4749 18.9856C38.6904 18.8661 38.9273 18.7902 39.1722 18.7624C39.417 18.7345 39.665 18.7552 39.9018 18.8232C40.1387 18.8912 40.3598 19.0053 40.5525 19.1588L40.56 19.1626L40.5675 19.1701L40.5863 19.1851L40.6425 19.2338L40.815 19.3838C40.95 19.5113 41.1338 19.6838 41.3475 19.9163C41.7713 20.3776 42.3225 21.0488 42.8662 21.9413C43.9575 23.7413 45.015 26.4151 45.015 29.9963C45.015 33.5738 43.9575 36.2513 42.8662 38.0513C42.4288 38.7764 41.92 39.456 41.3475 40.0801C41.109 40.3391 40.8561 40.5845 40.59 40.8151L40.56 40.8413H40.5562C40.5562 40.8413 38.88 41.7526 37.92 40.5488C37.6113 40.1626 37.4677 39.67 37.5203 39.1784C37.573 38.6868 37.8177 38.2359 38.2013 37.9238L38.2087 37.9163L38.2762 37.8563C38.3438 37.7926 38.4562 37.6876 38.595 37.5376C38.9966 37.0965 39.3533 36.6167 39.66 36.1051C40.4475 34.8113 41.265 32.7976 41.265 29.9926C41.265 27.1913 40.4475 25.1813 39.66 23.8913C39.2744 23.2548 38.8108 22.6691 38.28 22.1476C38.0749 21.9984 37.9023 21.8091 37.7725 21.5913C37.6426 21.3735 37.5583 21.1316 37.5247 20.8802C37.491 20.6289 37.5087 20.3733 37.5767 20.129C37.6446 19.8847 37.7614 19.6567 37.92 19.4588M44.3025 11.6588C44.1105 11.4999 43.8888 11.3809 43.6504 11.3087C43.4119 11.2365 43.1614 11.2126 42.9136 11.2383C42.6657 11.264 42.4255 11.3389 42.2069 11.4585C41.9884 11.5781 41.7958 11.7401 41.6406 11.935C41.4853 12.1299 41.3704 12.3537 41.3027 12.5935C41.2349 12.8333 41.2157 13.0842 41.246 13.3315C41.2763 13.5788 41.3556 13.8176 41.4793 14.0339C41.603 14.2502 41.7685 14.4397 41.9663 14.5913L42.0075 14.6288L42.2025 14.7976C42.3787 14.9551 42.6375 15.1988 42.9562 15.5288C43.5938 16.1926 44.4562 17.1901 45.3187 18.5063C47.0438 21.1351 48.7687 25.0051 48.7687 30.0151C48.7784 34.1029 47.578 38.1021 45.3187 41.5088C44.4562 42.8213 43.5938 43.8113 42.9562 44.4713C42.6547 44.7851 42.3394 45.0854 42.0112 45.3713L41.97 45.4088H41.9663C41.5878 45.722 41.3474 46.1712 41.2967 46.6598C41.246 47.1484 41.3891 47.6374 41.6952 48.0216C42.0013 48.4058 42.4459 48.6546 42.9335 48.7144C43.4211 48.7741 43.9127 48.6402 44.3025 48.3413L44.4263 48.2401L44.7075 47.9963C44.9437 47.7826 45.27 47.4788 45.6562 47.0776C46.6957 45.9969 47.6322 44.8219 48.4537 43.5676C51.1131 39.5488 52.526 34.834 52.515 30.0151C52.5245 25.1917 51.1118 20.4725 48.4537 16.4476C47.6325 15.1918 46.6973 14.0143 45.66 12.9301C45.268 12.5227 44.8576 12.1336 44.43 11.7638L44.3438 11.6926L44.3175 11.6701L44.31 11.6626L44.3025 11.6588Z" fill="#F8F8F8"/>
</svg>
