<svg width="27" height="26" viewBox="0 0 27 26" fill="none" xmlns="http://www.w3.org/2000/svg">
<path id="Vector" fill-rule="evenodd" clip-rule="evenodd" d="M22.1172 13.093L3.52649 4.37611L5.44249 11.5576L13.4654 11.5565C13.8722 11.5566 14.2622 11.7184 14.5498 12.0061C14.8373 12.2938 14.9988 12.684 14.9986 13.0908C14.9985 13.4976 14.8367 13.8876 14.549 14.1752C14.2613 14.4627 13.8711 14.6242 13.4643 14.624H5.44032L3.52757 21.8066L22.1172 13.093ZM24.9006 11.01C26.6659 11.8362 26.6659 14.3475 24.9006 15.1738L3.33673 25.2829C1.56712 26.1113 -0.365139 24.4957 0.137985 22.6068L2.67638 13.0919L0.137984 3.57696C-0.365141 1.68807 1.56712 0.0724328 3.33673 0.900855L24.9006 11.01Z" fill="#FF725E"/>
</svg>
