<svg width="36" height="34" viewBox="0 0 36 34" fill="none" xmlns="http://www.w3.org/2000/svg">
<path d="M8.97229 0H27.5001V21.4445L15.889 33.3333L14.2779 31.9167C14.0094 31.7037 13.8219 31.4491 13.7154 31.1528C13.6089 30.8565 13.5557 30.5371 13.5557 30.1945V29.7223L15.4168 21.4445H3.4445C2.72228 21.4445 2.07876 21.162 1.51396 20.5972C0.949151 20.0324 0.666748 19.3889 0.666748 18.6667V15.2778C0.666748 15.0093 0.696845 14.7037 0.75704 14.3611C0.817206 14.0185 0.907484 13.7129 1.02787 13.4444L5.91675 2.08333C6.16675 1.50925 6.57879 1.01851 7.15287 0.611125C7.72693 0.203708 8.3334 0 8.97229 0ZM30.2779 21.4445V0H35.6667V21.4445H30.2779Z" fill="#DC493A"/>
</svg>
