<svg width="40" height="40" viewBox="0 0 40 40" fill="none" xmlns="http://www.w3.org/2000/svg">
<mask id="mask0_650_117" style="mask-type:alpha" maskUnits="userSpaceOnUse" x="0" y="0" width="40" height="40">
<rect width="40" height="40" fill="#D9D9D9"/>
</mask>
<g mask="url(#mask0_650_117)">
<path d="M29.8889 35H11.4445V13.5555L23.0555 1.66667L24.8333 3.22221C25.0093 3.37963 25.1458 3.59723 25.243 3.87501C25.3403 4.15276 25.3889 4.46294 25.3889 4.80555V5.27776L23.5278 13.5555H35.4167C36.1574 13.5555 36.8056 13.8333 37.3611 14.3889C37.9167 14.9444 38.1945 15.5926 38.1945 16.3333V19.7178C38.1945 19.9152 38.1991 20.1204 38.2083 20.3333C38.2176 20.5463 38.1852 20.75 38.1111 20.9444L32.9445 32.9167C32.6967 33.4954 32.2838 33.9873 31.7057 34.3924C31.1276 34.7975 30.522 35 29.8889 35ZM14.2222 32.2223H30.25L35.4167 20.0278V16.3333H20.0555L22.2778 6.36109L14.2222 14.7222V32.2223ZM11.4445 13.5555V16.3333H6.08333V32.2223H11.4445V35H3.30554V13.5555H11.4445Z" fill="#DC493A"/>
</g>
</svg>
