<svg width="40" height="40" viewBox="0 0 40 40" fill="none" xmlns="http://www.w3.org/2000/svg">
<mask id="mask0_650_81" style="mask-type:alpha" maskUnits="userSpaceOnUse" x="0" y="0" width="40" height="40">
<rect width="40" height="40" fill="#D9D9D9"/>
</mask>
<g mask="url(#mask0_650_81)">
<path d="M30.0277 35H11.4999V13.5555L23.111 1.66667L24.7221 3.08334C24.9906 3.29628 25.1781 3.55091 25.2846 3.84721C25.3911 4.14349 25.4443 4.46294 25.4443 4.80555V5.27776L23.5832 13.5555H35.5555C36.2777 13.5555 36.9212 13.838 37.486 14.4028C38.0508 14.9676 38.3333 15.6111 38.3333 16.3333V19.7222C38.3333 19.9907 38.3032 20.2963 38.243 20.6389C38.1828 20.9815 38.0925 21.2871 37.9721 21.5556L33.0833 32.9167C32.8333 33.4908 32.4212 33.9815 31.8471 34.3889C31.2731 34.7963 30.6666 35 30.0277 35ZM8.72209 13.5555V35H3.33325V13.5555H8.72209Z" fill="#DC493A"/>
</g>
</svg>
