<svg width="40" height="40" viewBox="0 0 40 40" fill="none" xmlns="http://www.w3.org/2000/svg">
<mask id="mask0_650_111" style="mask-type:alpha" maskUnits="userSpaceOnUse" x="0" y="0" width="40" height="40">
<rect width="40" height="40" fill="#D9D9D9"/>
</mask>
<g mask="url(#mask0_650_111)">
<path d="M10.0556 5H28.5V26.4445L16.8889 38.3333L15.1112 36.7778C14.9353 36.6204 14.7987 36.4028 14.7015 36.125C14.6042 35.8473 14.5556 35.5371 14.5556 35.1945V34.7223L16.4167 26.4445H4.52779C3.78707 26.4445 3.13893 26.1667 2.58338 25.6111C2.02782 25.0556 1.75004 24.4074 1.75004 23.6667V20.2823C1.75004 20.0848 1.74542 19.8796 1.73617 19.6667C1.72689 19.4537 1.75929 19.25 1.83338 19.0556L7.00004 7.08333C7.24779 6.50464 7.66071 6.01274 8.23879 5.60763C8.81688 5.20254 9.42247 5 10.0556 5ZM25.7223 7.77775H9.69446L4.52779 19.9722V23.6667H19.8889L17.6667 33.6389L25.7223 25.2778V7.77775ZM28.5 26.4445V23.6667H33.8612V7.77775H28.5V5H36.6389V26.4445H28.5Z" fill="#DC493A"/>
</g>
</svg>
