<svg width="60" height="60" viewBox="0 0 60 60" fill="none" xmlns="http://www.w3.org/2000/svg">
<rect width="60" height="60" rx="30" fill="#FF725E"/>
<path d="M42.5 22.5C42.5 19.0475 41.1 15.9225 38.84 13.6625C36.5775 11.4 33.4525 10 30 10C26.5475 10 23.4225 11.4 21.16 13.6625C18.9 15.9225 17.5 19.0475 17.5 22.5C17.5 25.9525 18.9 29.0775 21.16 31.3375C23.4225 33.6 26.5475 35 30 35C33.4525 35 36.5775 33.6 38.84 31.3375C40.0021 30.1781 40.9237 28.8006 41.5518 27.284C42.1799 25.7673 42.5022 24.1415 42.5 22.5ZM15 47.5C15 50 20.625 52.5 30 52.5C38.795 52.5 45 50 45 47.5C45 42.5 39.115 37.5 30 37.5C20.625 37.5 15 42.5 15 47.5Z" fill="#F8F8F8"/>
<circle cx="51" cy="51" r="9" fill="#89BE76"/>
</svg>
